{
.appVersion = "3141";
.formatVersion = 3;
axes = (
{
name = Weight;
tag = wght;
}
);
classes = (
{
automatic = 1;

glyphs = (
{
color = 1;
glyphname = A;
kernLeft = A;
kernRight = A;
lastChange = "2021-11-14 10:14:53 +0000";
layers = (
{
anchors = (
{
name = bottom;
pos = (257,0);
},
{
name = ogonek;
pos = (511,0);
},
{
name = top;
pos = (355,697);
}
);
layerId = "F91D9E91-C1BC-4259-B0D8-112C0CBA2B8E";
shapes = (
{
closed = 1;
nodes = (
(24,0,l),
(353,675,l),
(490,0,l),
(513,0,l),
(367,697,l),
(341,697,l),
(1,0,l)
);
},
{
closed = 1;
nodes = (
(454,208,l),
(450,227,l),
(129,227,l),
(118,208,l)
);
}
);
width = 584;
},
{
anchors = (
{
name = bottom;
pos = (315,0);
},
{
name = ogonek;
pos = (641,0);
},
{
name = top;
pos = (413,697);
}
);
layerId = "957254E3-B7AD-4837-9092-D4428001DE8E";
shapes = (
{
closed = 1;
nodes = (
(140,0,l),
(383,463,l),
(492,0,l),
(660,0,l),
(469,697,l),
(354,697,l),
(-34,0,l)
);
},
{
closed = 1;
nodes = (
(472,118,l),
(440,258,l),
(259,258,l),
(191,118,l)
);
}
);
width = 698;
},
{
anchors = (
{
name = bottom;
pos = (284,0);
},
{
name = ogonek;
pos = (573,0);
},
{
name = top;
pos = (382,697);
}
);
layerId = m003;
shapes = (
{
closed = 1;
nodes = (
(80,0,l),
(365,571,l),
(489,0,l),
(583,0,l),
(416,697,l),
(345,697,l),
(-18,0,l)
);
},
{
closed = 1;
nodes = (
(461,164,l),
(443,243,l),
(191,243,l),
(152,164,l)
);
}
);
width = 637;
}
);
note = A;
unicode = 65;
},
{
color = 1;
glyphname = AE;
kernLeft = A;
kernRight = E;
lastChange = "2021-11-14 10:14:53 +0000";
layers = (
{
anchors = (
{
name = bottom;
pos = (386,0);
},
{
name = top;
pos = (484,697);
}
);
layerId = "F91D9E91-C1BC-4259-B0D8-112C0CBA2B8E";
shapes = (
{
closed = 1;
nodes = (
(24,0,l),
(354,678,l),
(438,678,l),
(342,0,l),
(765,0,l),
(769,19,l),
(367,19,l),
(412,341,l),
(760,341,l),
(763,361,l),
(415,361,l),
(459,678,l),
(861,678,l),
(863,697,l),
(341,697,l),
(1,0,l)
);
},
{
closed = 1;
nodes = (
(380,208,l),
(383,228,l),
(129,228,l),
(119,208,l)
);
}
);
width = 844;
},
{
anchors = (
{
name = bottom;
pos = (447,0);
},
{
name = top;
pos = (545,697);
}
);
layerId = "957254E3-B7AD-4837-9092-D4428001DE8E";
shapes = (
{
closed = 1;
nodes = (
(140,0,l),
(430,559,l),
(457,559,l),
(378,0,l),
(868,0,l),
(888,140,l),
(556,140,l),
(575,278,l),
(868,278,l),
(888,418,l),
(595,418,l),
(615,557,l),
(947,557,l),
(966,697,l),
(353,697,l),
(-34,0,l)
);
},
{
closed = 1;
nodes = (
(432,118,l),
(452,262,l),
(244,262,l),
(175,118,l)
);
}
);
width = 949;
},
{
anchors = (
{
name = bottom;
pos = (414,0);
},
{
name = top;
pos = (512,697);
}
);
layerId = m003;
shapes = (
{
closed = 1;
nodes = (
(80,0,l),
(390,620,l),
(445,620,l),
(358,0,l),
(814,0,l),
(825,79,l),
(458,79,l),
(490,310,l),
(811,310,l),
(822,390,l),
(502,390,l),
(534,618,l),
(901,618,l),
(912,697,l),
(345,697,l),
(-18,0,l)
);
},
{
closed = 1;
nodes = (
(403,164,l),
(415,245,l),
(184,245,l),
(144,164,l)
);
}
);
width = 896;
}
);
metricLeft = "=A";
metricRight = "=E";
note = AE;
unicode = 198;
},
{
color = 1;
glyphname = B;
kernLeft = H;
kernRight = B;
lastChange = "2021-11-14 10:14:53 +0000";
layers = (
{
anchors = (
{
name = bottom;
pos = (248,0);
},
{
name = top;
pos = (346,697);
}
);
layerId = "F91D9E91-C1BC-4259-B0D8-112C0CBA2B8E";
shapes = (
{
closed = 1;
nodes = (
(262,0,ls),
(415,0,o),
(508,77,o),
(508,222,cs),
(508,299,o),
(469,354,o),
(389,366,c),
(475,393,o),
(521,470,o),
(521,554,cs),
(521,645,o),
(458,697,o),
(346,697,cs),
(160,697,l),
(62,0,l)
);
},
{
closed = 1;
nodes = (
(133,352,l),
(348,352,ls),
(438,352,o),
(487,304,o),
(487,223,cs),
(487,91,o),
(406,19,o),
(262,19,cs),
(86,19,l)
);
},
{
closed = 1;
nodes = (
(178,678,l),
(345,678,ls),
(445,678,o),
(500,632,o),
(500,554,cs),
(500,445,o),
(427,371,o),
(329,371,cs),
(135,371,l)
);
}
);
width = 584;
},
{
anchors = (
{
name = bottom;
pos = (263,0);
},
{
name = top;
pos = (361,697);
}
);
layerId = "957254E3-B7AD-4837-9092-D4428001DE8E";
shapes = (
{
closed = 1;
nodes = (
(325,0,ls),
(478,0,o),
(582,91,o),
(582,237,cs),
(582,303,o),
(553,350,o),
(498,375,c),
(557,412,o),
(587,471,o),
(587,539,cs),
(587,638,o),
(509,697,o),
(378,697,cs),
(122,697,l),
(24,0,l)
);
},
{
closed = 1;
nodes = (
(222,289,l),
(353,289,ls),
(403,289,o),
(427,266,o),
(427,231,cs),
(427,175,o),
(391,144,o),
(325,144,cs),
(202,144,l)
);
},
{
closed = 1;
nodes = (
(259,553,l),
(366,553,ls),
(407,553,o),
(428,534,o),
(428,503,cs),
(428,453,o),
(389,429,o),
(341,429,cs),
(242,429,l)
);
}
);
width = 618;
},
{
anchors = (
{
name = bottom;
pos = (257,0);
},
{
name = top;
pos = (355,697);
}
);
layerId = m003;
shapes = (
{
closed = 1;
nodes = (
(294,0,ls),
(447,0,o),
(545,84,o),
(545,230,cs),
(545,304,o),
(508,352,o),
(443,371,c),
(514,402,o),
(554,467,o),
(554,548,cs),
(554,642,o),
(483,697,o),
(363,697,cs),
(142,697,l),
(44,0,l)
);
},
{
closed = 1;
nodes = (
(177,321,l),
(351,321,ls),
(422,321,o),
(459,288,o),
(459,228,cs),
(459,136,o),
(398,81,o),
(294,81,cs),
(144,81,l)
);
},
{
closed = 1;
nodes = (
(219,616,l),
(356,616,ls),
(427,616,o),
(465,586,o),
(465,532,cs),
(465,460,o),
(413,400,o),
(335,400,cs),
(189,400,l)
);
}
);
width = 601;
}
);
metricLeft = H;
note = B;
unicode = 66;
},
{
color = 1;
glyphname = C;
kernLeft = O;
kernRight = C;
lastChange = "2021-11-14 10:14:53 +0000";
layers = (
{
anchors = (
{
name = bottom;
pos = (334,0);
},
{
name = top;
pos = (432,697);
}
);
layerId = "F91D9E91-C1BC-4259-B0D8-112C0CBA2B8E";
shapes = (
{
closed = 1;
nodes = (
(466,-6,o),
(573,61,o),
(632,172,c),
(614,180,l),
(558,75,o),
(462,14,o),
(340,14,cs),
(188,14,o),
(98,115,o),
(98,277,cs),
(98,487,o),
(222,683,o),
(436,683,cs),
(560,683,o),
(637,618,o),
(662,518,c),
(681,525,l),
(655,630,o),
(571,703,o),
(436,703,cs),
(210,703,o),
(78,495,o),
(78,278,cs),
(78,103,o),
(177,-6,o),
(339,-6,cs)
);
}
);
width = 697;
},
{
anchors = (
{
name = bottom;
pos = (322,0);
},
{
name = top;
pos = (420,697);
}
);
layerId = "957254E3-B7AD-4837-9092-D4428001DE8E";
shapes = (
{
closed = 1;
nodes = (
(493,-18,o),
(618,60,o),
(684,194,c),
(542,255,l),
(505,180,o),
(445,132,o),
(358,132,cs),
(253,132,o),
(196,201,o),
(196,308,cs),
(196,432,o),
(273,565,o),
(416,565,cs),
(494,565,o),
(556,525,o),
(572,450,c),
(724,495,l),
(695,629,o),
(588,715,o),
(431,715,cs),
(182,715,o),
(42,494,o),
(42,295,cs),
(42,131,o),
(137,-18,o),
(344,-18,cs)
);
}
);
width = 714;
},
{
anchors = (
{
name = bottom;
pos = (325,0);
},
{
name = top;
pos = (423,697);
}
);
layerId = m003;
shapes = (
{
closed = 1;
nodes = (
(477,-12,o),
(593,60,o),
(655,182,c),
(576,217,l),
(529,127,o),
(446,72,o),
(342,72,cs),
(218,72,o),
(146,152,o),
(146,286,cs),
(146,458,o),
(246,625,o),
(429,625,cs),
(528,625,o),
(594,574,o),
(616,484,c),
(700,510,l),
(671,632,o),
(573,709,o),
(431,709,cs),
(200,709,o),
(59,504,o),
(59,284,cs),
(59,103,o),
(167,-12,o),
(339,-12,cs)
);
}
);
width = 703;
}
);
metricLeft = O;
note = C;
unicode = 67;
},
{
color = 1;
glyphname = D;
kernLeft = H;
kernRight = D;
lastChange = "2021-11-14 10:14:53 +0000";
layers = (
{
anchors = (
{
name = bottom;
pos = (304,0);
},
{
name = center;
pos = (151,349);
},
{
name = top;
pos = (402,697);
}
);
layerId = "F91D9E91-C1BC-4259-B0D8-112C0CBA2B8E";
shapes = (
{
closed = 1;
nodes = (
(239,0,ls),
(515,0,o),
(642,184,o),
(642,415,cs),
(642,595,o),
(534,697,o),
(336,697,cs),
(160,697,l),
(62,0,l)
);
},
{
closed = 1;
nodes = (
(178,678,l),
(334,678,ls),
(520,678,o),
(621,585,o),
(621,415,cs),
(621,191,o),
(498,19,o),
(239,19,cs),
(86,19,l)
);
}
);
width = 692;
},
{
anchors = (
{
name = bottom;
pos = (287,0);
},
{
name = center;
pos = (169,349);
},
{
name = top;
pos = (385,697);
}
);
layerId = "957254E3-B7AD-4837-9092-D4428001DE8E";
shapes = (
{
closed = 1;
nodes = (
(237,0,ls),
(522,0,o),
(653,172,o),
(653,406,cs),
(653,592,o),
(536,697,o),
(328,697,cs),
(122,697,l),
(24,0,l)
);
},
{
closed = 1;
nodes = (
(259,553,l),
(313,553,ls),
(428,553,o),
(498,524,o),
(498,409,cs),
(498,293,o),
(466,144,o),
(234,144,cs),
(202,144,l)
);
}
);
width = 668;
},
{
anchors = (
{
name = bottom;
pos = (296,0);
},
{
name = center;
pos = (161,349);
},
{
name = top;
pos = (394,697);
}
);
layerId = m003;
shapes = (
{
closed = 1;
nodes = (
(239,0,ls),
(515,0,o),
(648,174,o),
(648,410,cs),
(648,593,o),
(536,697,o),
(333,697,cs),
(142,697,l),
(44,0,l)
);
},
{
closed = 1;
nodes = (
(219,616,l),
(325,616,ls),
(475,616,o),
(561,554,o),
(561,412,cs),
(561,256,o),
(493,81,o),
(237,81,cs),
(144,81,l)
);
}
);
width = 682;
}
);
metricLeft = H;
note = D;
unicode = 68;
},
{
color = 1;
glyphname = E;
kernLeft = H;
kernRight = E;
lastChange = "2021-11-14 10:14:53 +0000";
layers = (
{
anchors = (
{
name = bottom;
pos = (287,0);
},
{
name = ogonek;
pos = (511,0);
},
{
name = top;
pos = (385,697);
},
{
name = topleft;
pos = (55,697);
}
);
layerId = "F91D9E91-C1BC-4259-B0D8-112C0CBA2B8E";
shapes = (
{
closed = 1;
nodes = (
(511,0,l),
(515,19,l),
(86,19,l),
(131,342,l),
(508,342,l),
(510,361,l),
(133,361,l),
(178,678,l),
(607,678,l),
(609,697,l),
(160,697,l),
(62,0,l)
);
}
);
width = 590;
},
{
anchors = (
{
name = bottom;
pos = (258,0);
},
{
name = ogonek;
pos = (492,0);
},
{
name = top;
pos = (356,697);
},
{
name = topleft;
pos = (65,697);
}
);
layerId = "957254E3-B7AD-4837-9092-D4428001DE8E";
shapes = (
{
closed = 1;
nodes = (
(492,0,l),
(512,140,l),
(201,140,l),
(222,289,l),
(518,289,l),
(538,429,l),
(242,429,l),
(260,557,l),
(571,557,l),
(590,697,l),
(122,697,l),
(24,0,l)
);
}
);
width = 573;
},
{
anchors = (
{
name = bottom;
pos = (274,0);
},
{
name = ogonek;
pos = (503,0);
},
{
name = top;
pos = (372,697);
},
{
name = topleft;
pos = (61,697);
}
);
layerId = m003;
shapes = (
{
closed = 1;
nodes = (
(503,0,l),
(514,79,l),
(143,79,l),
(177,316,l),
(513,316,l),
(524,395,l),
(188,395,l),
(219,618,l),
(590,618,l),
(601,697,l),
(142,697,l),
(44,0,l)
);
}
);
width = 585;
}
);
metricLeft = "=I";
note = E;
unicode = 69;
},
{
glyphname = Schwa;
kernLeft = C;
kernRight = D;
lastChange = "2021-11-14 10:14:53 +0000";
layers = (
{
anchors = (
{
name = bottom;
pos = (321,0);
},
{
name = top;
pos = (419,697);
}
);
layerId = "F91D9E91-C1BC-4259-B0D8-112C0CBA2B8E";
shapes = (
{
closed = 1;
nodes = (
(520,-6,o),
(647,124,o),
(679,350,cs),
(683,378,o),
(685,413,o),
(685,431,cs),
(685,606,o),
(593,703,o),
(421,703,cs),
(289,703,o),
(193,645,o),
(129,524,c),
(148,516,l),
(207,631,o),
(295,683,o),
(420,683,cs),
(580,683,o),
(664,595,o),
(664,433,cs),
(664,415,o),
(662,374,o),
(659,353,cs),
(630,144,o),
(515,14,o),
(333,14,cs),
(180,14,o),
(97,105,o),
(97,268,cs),
(97,291,o),
(99,319,o),
(103,351,c),
(83,351,l),
(79,321,o),
(77,293,o),
(77,267,cs),
(77,93,o),
(166,-6,o),
(331,-6,cs)
);
},
{
closed = 1;
nodes = (
(672,333,l),
(675,351,l),
(94,351,l),
(91,333,l)
);
}
);
width = 732;
},
{
anchors = (
{
name = bottom;
pos = (344,0);
},
{
name = top;
pos = (442,697);
}
);
layerId = "957254E3-B7AD-4837-9092-D4428001DE8E";
shapes = (
{
closed = 1;
nodes = (
(559,-18,o),
(715,123,o),
(746,339,cs),
(749,363,o),
(751,386,o),
(751,408,cs),
(751,597,o),
(634,717,o),
(443,717,cs),
(291,717,o),
(168,641,o),
(98,509,c),
(237,444,l),
(275,523,o),
(349,567,o),
(438,567,cs),
(539,567,o),
(595,511,o),
(595,408,cs),
(595,392,o),
(593,376,o),
(591,359,cs),
(571,215,o),
(482,132,o),
(357,132,cs),
(255,132,o),
(198,189,o),
(198,296,cs),
(198,312,o),
(199,329,o),
(202,347,c),
(46,355,l),
(43,331,o),
(41,309,o),
(41,287,cs),
(41,101,o),
(160,-18,o),
(352,-18,cs)
);
},
{
closed = 1;
nodes = (
(689,231,l),
(706,351,l),
(125,351,l),
(108,231,l)
);
}
);
width = 765;
},
{
anchors = (
{
name = bottom;
pos = (331,0);
},
{
name = top;
pos = (429,697);
}
);
layerId = m003;
shapes = (
{
closed = 1;
nodes = (
(538,-12,o),
(679,124,o),
(710,344,cs),
(714,371,o),
(716,399,o),
(716,421,cs),
(716,602,o),
(611,710,o),
(431,710,cs),
(288,710,o),
(179,643,o),
(113,517,c),
(191,480,l),
(241,579,o),
(323,626,o),
(428,626,cs),
(559,626,o),
(629,554,o),
(629,421,cs),
(629,401,o),
(627,379,o),
(624,356,cs),
(599,176,o),
(496,72,o),
(344,72,cs),
(216,72,o),
(146,147,o),
(146,283,cs),
(146,303,o),
(148,325,o),
(151,349,c),
(64,353,l),
(60,327,o),
(58,301,o),
(58,277,cs),
(58,97,o),
(163,-12,o),
(341,-12,cs)
);
},
{
closed = 1;
nodes = (
(680,283,l),
(690,351,l),
(109,351,l),
(99,283,l)
);
}
);
width = 747;
}
);
metricLeft = O;
metricRight = O;
unicode = 399;
},
{
color = 1;
glyphname = F;
kernLeft = H;
kernRight = F;
lastChange = "2021-11-14 10:14:53 +0000";
layers = (
{
anchors = (
{
name = bottom;
pos = (281,0);
},
{
name = top;
pos = (379,697);
}
);
layerId = "F91D9E91-C1BC-4259-B0D8-112C0CBA2B8E";
shapes = (
{
closed = 1;
nodes = (
(82,0,l),
(131,342,l),
(497,342,l),
(499,361,l),
(133,361,l),
(178,678,l),
(598,678,l),
(601,697,l),
(160,697,l),
(62,0,l)
);
}
);
width = 573;
},
{
anchors = (
{
name = bottom;
pos = (247,0);
},
{
name = top;
pos = (345,697);
}
);
layerId = "957254E3-B7AD-4837-9092-D4428001DE8E";
shapes = (
{
closed = 1;
nodes = (
(181,0,l),
(222,289,l),
(496,289,l),
(516,429,l),
(242,429,l),
(260,557,l),
(575,557,l),
(594,697,l),
(122,697,l),
(24,0,l)
);
}
);
width = 553;
},
{
anchors = (
{
name = bottom;
pos = (265,0);
},
{
name = top;
pos = (363,697);
}
);
layerId = m003;
shapes = (
{
closed = 1;
nodes = (
(132,0,l),
(177,316,l),
(497,316,l),
(508,395,l),
(188,395,l),
(219,618,l),
(588,618,l),
(599,697,l),
(142,697,l),
(44,0,l)
);
}
);
width = 565;
}
);
metricLeft = "=I";
note = F;
unicode = 70;
},
{
color = 1;
glyphname = G;
kernLeft = O;
kernRight = G;
lastChange = "2021-11-14 10:14:53 +0000";
layers = (
{
anchors = (
{
name = bottom;
pos = (339,0);
},
{
name = top;
pos = (437,697);
}
);
layerId = "F91D9E91-C1BC-4259-B0D8-112C0CBA2B8E";
shapes = (
{
closed = 1;
nodes = (
(443,-6,o),
(562,41,o),
(614,172,c),
(612,173,l),
(588,0,l),
(607,0,l),
(656,344,l),
(454,344,l),
(451,325,l),
(640,325,l),
(635,337,l),
(626,269,ls),
(599,69,o),
(454,14,o),
(340,14,cs),
(188,14,o),
(98,115,o),
(98,277,cs),
(98,486,o),
(222,683,o),
(436,683,cs),
(560,683,o),
(637,618,o),
(662,518,c),
(681,525,l),
(655,630,o),
(571,703,o),
(436,703,cs),
(210,703,o),
(78,494,o),
(78,278,cs),
(78,103,o),
(177,-6,o),
(338,-6,cs)
);
}
);
width = 723;
},
{
anchors = (
{
name = bottom;
pos = (338,0);
},
{
name = top;
pos = (436,697);
}
);
layerId = "957254E3-B7AD-4837-9092-D4428001DE8E";
shapes = (
{
closed = 1;
nodes = (
(418,-18,o),
(487,13,o),
(534,72,c),
(508,98,l),
(518,0,l),
(655,0,l),
(709,387,l),
(402,387,l),
(383,247,l),
(584,247,l),
(565,357,l),
(561,328,ls),
(540,174,o),
(433,132,o),
(348,132,cs),
(254,132,o),
(198,191,o),
(198,293,cs),
(198,433,o),
(281,565,o),
(425,565,cs),
(503,565,o),
(555,525,o),
(571,450,c),
(723,495,l),
(694,629,o),
(587,715,o),
(430,715,cs),
(192,715,o),
(42,513,o),
(42,290,cs),
(42,103,o),
(158,-18,o),
(333,-18,cs)
);
}
);
width = 738;
},
{
anchors = (
{
name = bottom;
pos = (336,0);
},
{
name = top;
pos = (434,697);
}
);
layerId = m003;
shapes = (
{
closed = 1;
nodes = (
(428,-12,o),
(522,26,o),
(572,123,c),
(558,136,l),
(552,0,l),
(629,0,l),
(680,366,l),
(426,366,l),
(415,287,l),
(610,287,l),
(599,347,l),
(592,298,ls),
(569,128,o),
(450,72,o),
(342,72,cs),
(218,72,o),
(146,152,o),
(146,286,cs),
(146,458,o),
(246,625,o),
(429,625,cs),
(528,625,o),
(594,574,o),
(616,484,c),
(700,510,l),
(671,632,o),
(573,709,o),
(431,709,cs),
(201,709,o),
(59,505,o),
(59,283,cs),
(59,103,o),
(165,-12,o),
(334,-12,cs)
);
}
);
width = 730;
}
);
metricLeft = O;
note = G;
unicode = 71;
},
{
color = 1;
glyphname = H;
kernLeft = H;
kernRight = H;
lastChange = "2021-11-14 10:14:53 +0000";
layers = (
{
anchors = (
{
name = bottom;
pos = (291,0);
},
{
name = center;
pos = (367,539);
},
{
name = top;
pos = (389,697);
},
{
name = topleft;
pos = (56,697);
}
);
layerId = "F91D9E91-C1BC-4259-B0D8-112C0CBA2B8E";
shapes = (
{
closed = 1;
nodes = (
(82,0,l),
(131,343,l),
(547,343,l),
(498,0,l),
(519,0,l),
(617,697,l),
(596,697,l),
(550,363,l),
(134,363,l),
(180,697,l),
(160,697,l),
(62,0,l)
);
}
);
width = 651;
},
{
anchors = (
{
name = bottom;
pos = (318,0);
},
{
name = center;
pos = (396,557);
},
{
name = top;
pos = (415,697);
},
{
name = topleft;
pos = (65,697);
}
);
layerId = "957254E3-B7AD-4837-9092-D4428001DE8E";
shapes = (
{
closed = 1;
nodes = (
(181,0,l),
(222,288,l),
(493,288,l),
(452,0,l),
(609,0,l),
(707,697,l),
(550,697,l),
(513,432,l),
(242,432,l),
(279,697,l),
(122,697,l),
(24,0,l)
);
}
);
width = 703;
},
{
anchors = (
{
name = bottom;
pos = (304,0);
},
{
name = center;
pos = (381,545);
},
{
name = top;
pos = (402,697);
},
{
name = topleft;
pos = (73,697);
}
);
layerId = m003;
shapes = (
{
closed = 1;
nodes = (
(132,0,l),
(177,316,l),
(521,316,l),
(476,0,l),
(564,0,l),
(662,697,l),
(574,697,l),
(532,398,l),
(188,398,l),
(230,697,l),
(142,697,l),
(44,0,l)
);
}
);
width = 678;
}
);
note = H;
unicode = 72;
},
{
color = 1;
glyphname = I;
kernLeft = H;
kernRight = H;
lastChange = "2021-11-14 10:14:53 +0000";
layers = (
{
anchors = (
{
name = bottom;
pos = (72,0);
},
{
name = ogonek;
pos = (82,0);
},
{
name = top;
pos = (170,697);
},
{
name = topleft;
pos = (55,697);
}
);
layerId = "F91D9E91-C1BC-4259-B0D8-112C0CBA2B8E";
shapes = (
{
closed = 1;
nodes = (
(82,0,l),
(180,697,l),
(160,697,l),
(62,0,l)
);
}
);
width = 214;
},
{
anchors = (
{
name = bottom;
pos = (103,0);
},
{
name = ogonek;
pos = (181,0);
},
{
name = top;
pos = (201,697);
},
{
name = topleft;
pos = (65,697);
}
);
layerId = "957254E3-B7AD-4837-9092-D4428001DE8E";
shapes = (
{
closed = 1;
nodes = (
(181,0,l),
(279,697,l),
(122,697,l),
(24,0,l)
);
}
);
width = 275;
},
{
anchors = (
{
name = bottom;
pos = (89,0);
},
{
name = ogonek;
pos = (132,0);
},
{
name = top;
pos = (187,697);
},
{
name = topleft;
pos = (61,697);
}
);
layerId = m003;
shapes = (
{
closed = 1;
nodes = (
(132,0,l),
(230,697,l),
(142,697,l),
(44,0,l)
);
}
);
width = 246;
}
);
metricLeft = H;
metricRight = H;
note = I;
unicode = 73;
},
{
color = 1;
glyphname = J;
kernLeft = J;
kernRight = J;
lastChange = "2021-11-14 10:14:53 +0000";
layers = (
{
anchors = (
{
name = bottom;
pos = (244,0);
},
{
name = top;
pos = (362,697);
}
);
layerId = "F91D9E91-C1BC-4259-B0D8-112C0CBA2B8E";
shapes = (
{
closed = 1;
nodes = (
(352,-6,o),
(436,84,o),
(460,255,cs),
(522,697,l),
(201,697,l),
(199,678,l),
(499,678,l),
(440,257,ls),
(418,97,o),
(342,14,o),
(220,14,cs),
(112,14,o),
(55,77,o),
(53,171,c),
(33,169,l),
(35,60,o),
(105,-6,o),
(219,-6,cs)
);
}
);
width = 549;
},
{
anchors = (
{
name = bottom;
pos = (255,0);
},
{
name = top;
pos = (363,697);
}
);
layerId = "957254E3-B7AD-4837-9092-D4428001DE8E";
shapes = (
{
closed = 1;
nodes = (
(375,-18,o),
(480,77,o),
(502,234,cs),
(567,697,l),
(158,697,l),
(139,557,l),
(390,557,l),
(347,251,ls),
(337,178,o),
(316,127,o),
(248,127,cs),
(198,127,o),
(169,147,o),
(169,207,c),
(13,201,l),
(13,65,o),
(96,-18,o),
(231,-18,cs)
);
}
);
width = 558;
},
{
anchors = (
{
name = bottom;
pos = (249,0);
},
{
name = top;
pos = (361,697);
}
);
layerId = m003;
shapes = (
{
closed = 1;
nodes = (
(363,-12,o),
(457,81,o),
(480,244,cs),
(543,697,l),
(179,697,l),
(168,618,l),
(444,618,l),
(393,254,ls),
(377,137,o),
(323,70,o),
(226,70,cs),
(145,70,o),
(112,114,o),
(109,188,c),
(22,182,l),
(25,61,o),
(102,-12,o),
(224,-12,cs)
);
}
);
width = 552;
}
);
note = J;
unicode = 74;
},
{
color = 1;
glyphname = K;
kernLeft = H;
kernRight = K;
lastChange = "2021-11-14 10:14:53 +0000";
layers = (
{
anchors = (
{
name = bottom;
pos = (259,0);
},
{
name = top;
pos = (357,697);
}
);
layerId = "F91D9E91-C1BC-4259-B0D8-112C0CBA2B8E";
shapes = (
{
closed = 1;
nodes = (
(614,697,l),
(586,697,l),
(114,269,l),
(110,241,l)
);
},
{
closed = 1;
nodes = (
(82,0,l),
(180,697,l),
(160,697,l),
(62,0,l)
);
},
{
closed = 1;
nodes = (
(519,0,l),
(308,428,l),
(291,414,l),
(495,0,l)
);
}
);
width = 590;
},
{
anchors = (
{
name = bottom;
pos = (306,0);
},
{
name = top;
pos = (404,697);
}
);
layerId = "957254E3-B7AD-4837-9092-D4428001DE8E";
shapes = (
{
closed = 1;
nodes = (
(740,697,l),
(526,697,l),
(205,400,l),
(180,202,l)
);
},
{
closed = 1;
nodes = (
(181,0,l),
(279,697,l),
(122,697,l),
(24,0,l)
);
},
{
closed = 1;
nodes = (
(641,0,l),
(423,444,l),
(294,335,l),
(458,0,l)
);
}
);
width = 682;
},
{
anchors = (
{
name = bottom;
pos = (283,0);
},
{
name = top;
pos = (381,697);
}
);
layerId = m003;
shapes = (
{
closed = 1;
nodes = (
(677,697,l),
(557,697,l),
(159,334,l),
(145,222,l)
);
},
{
closed = 1;
nodes = (
(132,0,l),
(230,697,l),
(142,697,l),
(44,0,l)
);
},
{
closed = 1;
nodes = (
(579,0,l),
(365,436,l),
(293,375,l),
(478,0,l)
);
}
);
width = 634;
}
);
metricLeft = H;
note = K;
unicode = 75;
},
{
color = 1;
glyphname = L;
kernLeft = H;
kernRight = L;
lastChange = "2021-11-14 10:14:53 +0000";
layers = (
{
anchors = (
{
name = bottom;
pos = (236,0);
},
{
name = center;
pos = (187,375);
},
{
name = top;
pos = (170,697);
},
{
name = topright;
pos = (424,493);
}
);
layerId = "F91D9E91-C1BC-4259-B0D8-112C0CBA2B8E";
shapes = (
{
closed = 1;
nodes = (
(419,0,l),
(422,19,l),
(86,19,l),
(180,697,l),
(160,697,l),
(62,0,l)
);
}
);
width = 479;
},
{
anchors = (
{
name = bottom;
pos = (246,0);
},
{
name = center;
pos = (167,323);
},
{
name = top;
pos = (201,697);
},
{
name = topright;
pos = (467,493);
}
);
layerId = "957254E3-B7AD-4837-9092-D4428001DE8E";
shapes = (
{
closed = 1;
nodes = (
(467,0,l),
(487,140,l),
(201,140,l),
(279,697,l),
(122,697,l),
(24,0,l)
);
}
);
width = 510;
},
{
anchors = (
{
name = bottom;
pos = (212,0);
},
{
name = center;
pos = (174,349);
},
{
name = top;
pos = (187,697);
},
{
name = topright;
pos = (446,493);
}
);
layerId = m003;
shapes = (
{
closed = 1;
nodes = (
(444,0,l),
(455,79,l),
(143,79,l),
(230,697,l),
(142,697,l),
(44,0,l)
);
}
);
width = 495;
}
);
metricLeft = H;
note = L;
unicode = 76;
},
{
color = 1;
glyphname = M;
kernLeft = H;
kernRight = H;
lastChange = "2021-11-14 10:14:53 +0000";
layers = (
{
anchors = (
{
name = bottom;
pos = (369,0);
},
{
name = top;
pos = (467,697);
}
);
layerId = "F91D9E91-C1BC-4259-B0D8-112C0CBA2B8E";
shapes = (
{
closed = 1;
nodes = (
(82,0,l),
(178,675,l),
(178,675,l),
(366,55,l),
(387,55,l),
(749,675,l),
(750,675,l),
(655,0,l),
(675,0,l),
(773,697,l),
(740,697,l),
(377,72,l),
(382,72,l),
(193,697,l),
(160,697,l),
(62,0,l)
);
}
);
width = 807;
},
{
anchors = (
{
name = bottom;
pos = (399,0);
},
{
name = top;
pos = (497,697);
}
);
layerId = "957254E3-B7AD-4837-9092-D4428001DE8E";
shapes = (
{
closed = 1;
nodes = (
(181,0,l),
(253,513,l),
(239,510,l),
(333,63,l),
(485,63,l),
(705,510,l),
(689,513,l),
(617,0,l),
(774,0,l),
(872,697,l),
(642,697,l),
(415,221,l),
(443,221,l),
(350,697,l),
(122,697,l),
(24,0,l)
);
}
);
width = 868;
},
{
anchors = (
{
name = bottom;
pos = (385,0);
},
{
name = top;
pos = (483,697);
}
);
layerId = m003;
shapes = (
{
closed = 1;
nodes = (
(132,0,l),
(216,595,l),
(209,594,l),
(351,59,l),
(437,59,l),
(728,594,l),
(721,595,l),
(637,0,l),
(725,0,l),
(823,697,l),
(693,697,l),
(397,146,l),
(413,146,l),
(271,697,l),
(142,697,l),
(44,0,l)
);
}
);
width = 839;
}
);
metricLeft = H;
metricRight = H;
note = M;
unicode = 77;
},
{
color = 1;
glyphname = N;
kernLeft = H;
kernRight = H;
lastChange = "2021-11-14 10:14:53 +0000";
layers = (
{
anchors = (
{
name = bottom;
pos = (282,0);
},
{
name = top;
pos = (380,697);
}
);
layerId = "F91D9E91-C1BC-4259-B0D8-112C0CBA2B8E";
shapes = (
{
closed = 1;
nodes = (
(82,0,l),
(177,673,l),
(177,673,l),
(489,0,l),
(518,0,l),
(616,697,l),
(596,697,l),
(502,24,l),
(502,24,l),
(188,697,l),
(160,697,l),
(62,0,l)
);
}
);
width = 650;
},
{
anchors = (
{
name = bottom;
pos = (315,0);
},
{
name = top;
pos = (413,697);
}
);
layerId = "957254E3-B7AD-4837-9092-D4428001DE8E";
shapes = (
{
closed = 1;
nodes = (
(181,0,l),
(251,492,l),
(212,492,l),
(445,0,l),
(604,0,l),
(702,697,l),
(545,697,l),
(476,206,l),
(516,206,l),
(281,697,l),
(122,697,l),
(24,0,l)
);
}
);
width = 698;
},
{
anchors = (
{
name = bottom;
pos = (299,0);
},
{
name = top;
pos = (397,697);
}
);
layerId = m003;
shapes = (
{
closed = 1;
nodes = (
(132,0,l),
(214,584,l),
(195,584,l),
(468,0,l),
(562,0,l),
(660,697,l),
(572,697,l),
(490,114,l),
(509,114,l),
(234,697,l),
(142,697,l),
(44,0,l)
);
}
);
width = 676;
}
);
metricLeft = H;
metricRight = H;
note = N;
unicode = 78;
},
{
glyphname = Nhookleft;
kernLeft = H;
kernRight = H;
lastChange = "2021-11-14 10:14:53 +0000";
layers = (
{
anchors = (
{
name = bottom;
pos = (283,0);
},
{
name = top;
pos = (381,697);
}
);
layerId = "F91D9E91-C1BC-4259-B0D8-112C0CBA2B8E";
shapes = (
{
closed = 1;
nodes = (
(83,0,l),
(177,672,l),
(177,672,l),
(490,0,l),
(519,0,l),
(617,697,l),
(596,697,l),
(502,25,l),
(502,25,l),
(188,697,l),
(160,697,l),
(62,0,l)
);
},
{
closed = 1;
nodes = (
(21,-160,o),
(67,-109,o),
(79,-28,cs),
(83,0,l),
(62,0,l),
(62,-2,o),
(62,-6,o),
(58,-33,cs),
(50,-90,o),
(15,-143,o),
(-64,-143,c),
(-65,-160,l)
);
}
);
width = 651;
},
{
anchors = (
{
name = bottom;
pos = (314,0);
},
{
name = top;
pos = (412,697);
}
);
layerId = "957254E3-B7AD-4837-9092-D4428001DE8E";
shapes = (
{
closed = 1;
nodes = (
(181,0,l),
(248,475,l),
(214,475,l),
(445,0,l),
(604,0,l),
(702,697,l),
(545,697,l),
(479,225,l),
(513,225,l),
(281,697,l),
(122,697,l),
(24,0,l)
);
},
{
closed = 1;
nodes = (
(99,-189,o),
(166,-111,o),
(177,-30,cs),
(181,0,l),
(25,4,l),
(23,-10,o),
(23,-13,o),
(21,-23,cs),
(17,-50,o),
(-9,-87,o),
(-60,-87,c),
(-66,-189,l)
);
}
);
width = 698;
},
{
anchors = (
{
name = bottom;
pos = (299,0);
},
{
name = top;
pos = (397,697);
}
);
layerId = m003;
shapes = (
{
closed = 1;
nodes = (
(132,0,l),
(213,575,l),
(196,575,l),
(468,0,l),
(562,0,l),
(660,697,l),
(572,697,l),
(491,124,l),
(508,124,l),
(234,697,l),
(142,697,l),
(44,0,l)
);
},
{
closed = 1;
nodes = (
(57,-175,o),
(116,-113,o),
(128,-29,cs),
(132,0,l),
(45,2,l),
(43,-9,o),
(40,-27,o),
(40,-29,cs),
(35,-70,o),
(3,-116,o),
(-61,-116,c),
(-65,-175,l)
);
}
);
width = 676;
}
);
metricLeft = "=I@200";
metricRight = "=I";
unicode = 413;
},
{
color = 1;
glyphname = Eng;
kernLeft = H;
kernRight = H;
lastChange = "2021-11-14 10:14:53 +0000";
layers = (
{
layerId = "F91D9E91-C1BC-4259-B0D8-112C0CBA2B8E";
shapes = (
{
closed = 1;
nodes = (
(460,-160,o),
(504,-105,o),
(515,-26,cs),
(616,697,l),
(596,697,l),
(502,25,l),
(502,25,l),
(188,697,l),
(160,697,l),
(62,0,l),
(82,0,l),
(177,672,l),
(177,672,l),
(491,0,ls),
(494,-6,o),
(495,-14,o),
(495,-22,cs),
(495,-25,o),
(495,-31,o),
(494,-35,cs),
(486,-91,o),
(450,-143,o),
(372,-143,cs),
(354,-143,o),
(328,-137,o),
(309,-129,c),
(304,-145,l),
(325,-154,o),
(355,-160,o),
(375,-160,cs)
);
}
);
width = 650;
},
{
layerId = "957254E3-B7AD-4837-9092-D4428001DE8E";
shapes = (
{
closed = 1;
nodes = (
(536,-189,o),
(591,-93,o),
(605,4,cs),
(702,697,l),
(545,697,l),
(479,225,l),
(513,225,l),
(281,697,l),
(122,697,l),
(24,0,l),
(181,0,l),
(248,475,l),
(214,475,l),
(447,4,ls),
(450,-4,o),
(451,-11,o),
(451,-19,cs),
(451,-24,o),
(450,-31,o),
(450,-30,cs),
(446,-61,o),
(411,-87,o),
(355,-87,cs),
(350,-87,o),
(341,-87,o),
(332,-87,c),
(326,-186,l),
(354,-189,o),
(374,-189,o),
(400,-189,cs)
);
}
);
width = 698;
},
{
layerId = m003;
shapes = (
{
closed = 1;
nodes = (
(490,-175,o),
(546,-109,o),
(560,-11,cs),
(660,697,l),
(572,697,l),
(491,124,l),
(508,124,l),
(234,697,l),
(142,697,l),
(44,0,l),
(132,0,l),
(213,575,l),
(196,575,l),
(470,2,ls),
(473,-5,o),
(474,-11,o),
(474,-21,cs),
(474,-25,o),
(473,-28,o),
(473,-32,cs),
(467,-76,o),
(431,-116,o),
(365,-116,cs),
(354,-116,o),
(335,-113,o),
(320,-109,c),
(315,-165,l),
(340,-171,o),
(364,-175,o),
(388,-175,cs)
);
}
);
width = 676;
}
);
metricLeft = "=I";
metricRight = "=I";
note = Eng;
unicode = 330;
},
{
color = 1;
glyphname = O;
kernLeft = O;
kernRight = O;
lastChange = "2021-11-14 10:14:53 +0000";
layers = (
{
anchors = (
{
name = bottom;
pos = (340,0);
},
{
name = center;
pos = (389,349);
},
{
name = ogonek;
pos = (400,0);
},
{
name = top;
pos = (438,697);
},
{
name = topleft;
pos = (69,697);
},
{
name = topright;
pos = (683,697);
}
);
layerId = "F91D9E91-C1BC-4259-B0D8-112C0CBA2B8E";
shapes = (
{
closed = 1;
nodes = (
(568,-6,o),
(699,200,o),
(699,419,cs),
(699,592,o),
(601,703,o),
(436,703,cs),
(210,703,o),
(77,490,o),
(77,277,cs),
(77,116,o),
(169,-6,o),
(339,-6,cs)
);
},
{
closed = 1;
nodes = (
(175,14,o),
(97,133,o),
(97,281,cs),
(97,475,o),
(220,683,o),
(436,683,cs),
(589,683,o),
(679,581,o),
(679,422,cs),
(679,213,o),
(559,14,o),
(340,14,cs)
);
}
);
width = 748;
},
{
anchors = (
{
name = bottom;
pos = (339,0);
},
{
name = center;
pos = (388,349);
},
{
name = ogonek;
pos = (426,0);
},
{
name = top;
pos = (436,697);
},
{
name = topleft;
pos = (86,697);
},
{
name = topright;
pos = (639,697);
}
);
background = {
shapes = (
{
closed = 1;
nodes = (
(493,-18,o),
(618,60,o),
(684,194,c),
(542,255,l),
(505,180,o),
(445,132,o),
(358,132,cs),
(253,132,o),
(196,201,o),
(196,308,cs),
(196,432,o),
(273,565,o),
(416,565,cs),
(494,565,o),
(556,525,o),
(572,450,c),
(724,495,l),
(695,629,o),
(588,715,o),
(431,715,cs),
(182,715,o),
(42,494,o),
(42,295,cs),
(42,131,o),
(137,-18,o),
(344,-18,cs)
);
}
);
};
layerId = "957254E3-B7AD-4837-9092-D4428001DE8E";
shapes = (
{
closed = 1;
nodes = (
(581,-18,o),
(733,183,o),
(733,402,cs),
(733,595,o),
(616,715,o),
(432,715,cs),
(193,715,o),
(42,513,o),
(42,294,cs),
(42,101,o),
(159,-18,o),
(343,-18,cs)
);
},
{
closed = 1;
nodes = (
(254,132,o),
(198,200,o),
(198,308,cs),
(198,437,o),
(278,565,o),
(418,565,cs),
(521,565,o),
(575,495,o),
(575,387,cs),
(575,252,o),
(492,132,o),
(356,132,cs)
);
}
);
width = 748;
},
{
anchors = (
{
name = bottom;
pos = (338,0);
},
{
name = center;
pos = (387,349);
},
{
name = ogonek;
pos = (413,0);
},
{
name = top;
pos = (436,697);
},
{
name = topleft;
pos = (73,697);
},
{
name = topright;
pos = (655,697);
}
);
guides = (
{
pos = (1717,1394);
}
);
layerId = m003;
shapes = (
{
closed = 1;
nodes = (
(574,-12,o),
(715,192,o),
(715,413,cs),
(715,594,o),
(607,709,o),
(432,709,cs),
(198,709,o),
(59,501,o),
(59,284,cs),
(59,104,o),
(166,-12,o),
(340,-12,cs)
);
},
{
closed = 1;
nodes = (
(219,72,o),
(147,152,o),
(147,285,cs),
(147,457,o),
(246,625,o),
(430,625,cs),
(554,625,o),
(627,544,o),
(627,412,cs),
(627,237,o),
(526,72,o),
(343,72,cs)
);
}
);
width = 748;
}
);
note = O;
unicode = 79;
},
{
color = 1;
glyphname = OE;
kernLeft = O;
kernRight = E;
lastChange = "2021-11-14 10:14:54 +0000";
layers = (
{
anchors = (
{
name = bottom;
pos = (514,0);
},
{
name = top;
pos = (612,697);
}
);
layerId = "F91D9E91-C1BC-4259-B0D8-112C0CBA2B8E";
shapes = (
{
closed = 1;
nodes = (
(989,0,l),
(992,19,l),
(563,19,l),
(608,342,l),
(985,342,l),
(987,361,l),
(611,361,l),
(655,678,l),
(1084,678,l),
(1087,697,l),
(481,697,ls),
(213,697,o),
(77,507,o),
(77,273,cs),
(77,96,o),
(185,0,o),
(385,0,cs)
);
},
{
closed = 1;
nodes = (
(198,19,o),
(97,107,o),
(97,273,cs),
(97,496,o),
(225,678,o),
(479,678,cs),
(635,678,l),
(543,19,l),
(387,19,ls)
);
}
);
width = 1067;
},
{
anchors = (
{
name = bottom;
pos = (415,0);
},
{
name = top;
pos = (513,697);
}
);
layerId = "957254E3-B7AD-4837-9092-D4428001DE8E";
shapes = (
{
closed = 1;
nodes = (
(886,0,l),
(906,140,l),
(595,140,l),
(615,289,l),
(911,289,l),
(931,429,l),
(635,429,l),
(653,557,l),
(964,557,l),
(984,697,l),
(459,697,ls),
(192,697,o),
(42,527,o),
(42,282,cs),
(42,99,o),
(158,0,o),
(370,0,cs)
);
},
{
closed = 1;
nodes = (
(273,144,o),
(200,170,o),
(200,287,cs),
(200,413,o),
(242,553,o),
(450,553,cs),
(496,553,l),
(438,144,l),
(398,144,ls)
);
}
);
width = 967;
},
{
anchors = (
{
name = bottom;
pos = (596,0);
},
{
name = top;
pos = (694,697);
}
);
layerId = m003;
shapes = (
{
closed = 1;
nodes = (
(937,0,l),
(948,79,l),
(577,79,l),
(611,316,l),
(947,316,l),
(958,395,l),
(622,395,l),
(653,618,l),
(1024,618,l),
(1035,697,l),
(469,697,ls),
(203,697,o),
(59,519,o),
(59,277,cs),
(59,98,o),
(171,0,o),
(377,0,cs)
);
},
{
closed = 1;
nodes = (
(235,81,o),
(147,137,o),
(147,279,cs),
(147,445,o),
(226,616,o),
(464,616,cs),
(565,616,l),
(490,81,l),
(392,81,ls)
);
}
);
width = 1019;
}
);
metricLeft = O;
metricRight = E;
note = OE;
unicode = 338;
},
{
color = 1;
glyphname = P;
kernLeft = H;
kernRight = P;
lastChange = "2021-11-14 10:14:53 +0000";
layers = (
{
anchors = (
{
name = bottom;
pos = (229,0);
},
{
name = top;
pos = (327,697);
}
);
layerId = "F91D9E91-C1BC-4259-B0D8-112C0CBA2B8E";
shapes = (
{
closed = 1;
nodes = (
(82,0,l),
(127,318,l),
(278,318,ls),
(428,318,o),
(530,402,o),
(530,537,cs),
(530,639,o),
(457,697,o),
(330,697,cs),
(160,697,l),
(62,0,l)
);
},
{
closed = 1;
nodes = (
(178,678,l),
(327,678,ls),
(444,678,o),
(510,627,o),
(510,538,cs),
(510,412,o),
(417,337,o),
(279,337,cs),
(130,337,l)
);
}
);
width = 542;
},
{
anchors = (
{
name = bottom;
pos = (233,0);
},
{
name = top;
pos = (331,697);
}
);
layerId = "957254E3-B7AD-4837-9092-D4428001DE8E";
shapes = (
{
closed = 1;
nodes = (
(180,0,l),
(220,280,l),
(313,280,ls),
(485,280,o),
(582,367,o),
(582,526,cs),
(582,640,o),
(497,697,o),
(353,697,cs),
(122,697,l),
(24,0,l)
);
},
{
closed = 1;
nodes = (
(259,557,l),
(336,557,ls),
(388,557,o),
(425,545,o),
(425,501,cs),
(425,442,o),
(387,420,o),
(308,420,cs),
(239,420,l)
);
}
);
width = 567;
},
{
anchors = (
{
name = bottom;
pos = (232,0);
},
{
name = top;
pos = (330,697);
}
);
layerId = m003;
shapes = (
{
closed = 1;
nodes = (
(131,0,l),
(173,300,l),
(296,300,ls),
(457,300,o),
(557,385,o),
(557,532,cs),
(557,639,o),
(483,697,o),
(348,697,cs),
(142,697,l),
(44,0,l)
);
},
{
closed = 1;
nodes = (
(218,618,l),
(332,618,ls),
(422,618,o),
(469,589,o),
(469,525,cs),
(469,432,o),
(400,378,o),
(294,378,cs),
(184,378,l)
);
}
);
width = 554;
}
);
metricLeft = H;
note = P;
unicode = 80;
},
{
color = 1;
glyphname = Thorn;
kernLeft = H;
kernRight = Thorn;
lastChange = "2021-11-14 10:14:53 +0000";
layers = (
{
anchors = (
{
name = bottom;
pos = (278,0);
},
{
name = top;
pos = (376,697);
}
);
layerId = "F91D9E91-C1BC-4259-B0D8-112C0CBA2B8E";
shapes = (
{
closed = 1;
nodes = (
(130,0,l),
(161,214,l),
(311,214,ls),
(452,214,o),
(544,284,o),
(561,401,cs),
(563,413,o),
(563,424,o),
(563,435,cs),
(563,535,o),
(491,593,o),
(366,593,cs),
(214,593,l),
(228,697,l),
(209,697,l),
(111,0,l)
);
},
{
closed = 1;
nodes = (
(211,575,l),
(362,575,ls),
(477,575,o),
(544,524,o),
(544,434,cs),
(544,432,o),
(544,416,o),
(542,404,cs),
(526,295,o),
(442,233,o),
(313,233,cs),
(163,233,l)
);
}
);
width = 625;
},
{
anchors = (
{
name = bottom;
pos = (265,0);
},
{
name = top;
pos = (363,697);
}
);
layerId = "957254E3-B7AD-4837-9092-D4428001DE8E";
shapes = (
{
closed = 1;
nodes = (
(206,0,l),
(233,191,l),
(320,191,ls),
(476,191,o),
(574,266,o),
(592,395,cs),
(594,408,o),
(595,421,o),
(595,433,cs),
(595,541,o),
(524,603,o),
(405,603,cs),
(291,603,l),
(304,697,l),
(161,697,l),
(63,0,l)
);
},
{
closed = 1;
nodes = (
(274,481,l),
(361,481,ls),
(419,481,o),
(452,467,o),
(452,423,cs),
(452,418,o),
(452,413,o),
(451,408,cs),
(442,344,o),
(394,321,o),
(330,321,cs),
(251,321,l)
);
}
);
width = 606;
},
{
anchors = (
{
name = bottom;
pos = (278,0);
},
{
name = top;
pos = (376,697);
}
);
layerId = m003;
shapes = (
{
closed = 1;
nodes = (
(175,0,l),
(203,203,l),
(323,203,ls),
(469,203,o),
(566,275,o),
(583,397,cs),
(585,410,o),
(585,425,o),
(585,433,cs),
(585,538,o),
(515,598,o),
(392,598,cs),
(259,598,l),
(273,697,l),
(192,697,l),
(94,0,l)
);
},
{
closed = 1;
nodes = (
(249,529,l),
(368,529,ls),
(456,529,o),
(505,496,o),
(505,429,cs),
(505,422,o),
(504,414,o),
(503,406,cs),
(491,320,o),
(425,276,o),
(328,276,cs),
(214,276,l)
);
}
);
width = 631;
}
);
note = Thorn;
unicode = 222;
},
{
color = 1;
glyphname = Q;
kernLeft = O;
kernRight = Q;
lastChange = "2021-11-14 10:14:54 +0000";
layers = (
{
anchors = (
{
name = bottom;
pos = (345,0);
},
{
name = top;
pos = (443,697);
}
);
layerId = "F91D9E91-C1BC-4259-B0D8-112C0CBA2B8E";
shapes = (
{
closed = 1;
nodes = (
(568,-6,o),
(699,199,o),
(699,419,cs),
(699,593,o),
(601,703,o),
(436,703,cs),
(210,703,o),
(78,494,o),
(78,277,cs),
(78,103,o),
(177,-6,o),
(339,-6,cs)
);
},
{
closed = 1;
nodes = (
(652,-17,l),
(437,229,l),
(424,215,l),
(637,-30,l)
);
},
{
closed = 1;
nodes = (
(188,14,o),
(98,114,o),
(98,276,cs),
(98,484,o),
(218,683,o),
(436,683,cs),
(589,683,o),
(679,584,o),
(679,422,cs),
(679,212,o),
(559,14,o),
(340,14,cs)
);
}
);
width = 757;
},
{
anchors = (
{
name = bottom;
pos = (355,0);
},
{
name = top;
pos = (453,697);
}
);
layerId = "957254E3-B7AD-4837-9092-D4428001DE8E";
shapes = (
{
closed = 1;
nodes = (
(581,-18,o),
(733,183,o),
(733,402,cs),
(733,595,o),
(616,715,o),
(432,715,cs),
(193,715,o),
(42,513,o),
(42,294,cs),
(42,101,o),
(159,-18,o),
(343,-18,cs)
);
},
{
closed = 1;
nodes = (
(727,24,l),
(477,308,l),
(369,221,l),
(626,-62,l)
);
},
{
closed = 1;
nodes = (
(254,132,o),
(198,200,o),
(198,308,cs),
(198,437,o),
(278,565,o),
(418,565,cs),
(521,565,o),
(575,495,o),
(575,387,cs),
(575,252,o),
(492,132,o),
(356,132,cs)
);
}
);
width = 790;
},
{
anchors = (
{
name = bottom;
pos = (349,0);
},
{
name = top;
pos = (447,697);
}
);
layerId = m003;
shapes = (
{
closed = 1;
nodes = (
(574,-12,o),
(715,192,o),
(715,413,cs),
(715,594,o),
(607,709,o),
(432,709,cs),
(197,709,o),
(59,499,o),
(59,285,cs),
(59,104,o),
(167,-12,o),
(340,-12,cs)
);
},
{
closed = 1;
nodes = (
(689,6,l),
(453,273,l),
(395,218,l),
(631,-46,l)
);
},
{
closed = 1;
nodes = (
(219,72,o),
(147,152,o),
(147,285,cs),
(147,457,o),
(246,625,o),
(430,625,cs),
(554,625,o),
(627,544,o),
(627,412,cs),
(627,237,o),
(526,72,o),
(343,72,cs)
);
}
);
width = 774;
}
);
metricLeft = O;
metricRight = O;
note = Q;
unicode = 81;
},
{
color = 1;
glyphname = R;
kernLeft = H;
kernRight = R;
lastChange = "2021-11-14 10:14:53 +0000";
layers = (
{
anchors = (
{
name = bottom;
pos = (246,0);
},
{
name = top;
pos = (344,697);
}
);
layerId = "F91D9E91-C1BC-4259-B0D8-112C0CBA2B8E";
shapes = (
{
closed = 1;
nodes = (
(82,0,l),
(129,327,l),
(274,327,ls),
(294,327,o),
(314,328,o),
(334,330,c),
(462,349,o),
(530,429,o),
(530,543,cs),
(530,642,o),
(460,697,o),
(330,697,cs),
(160,697,l),
(62,0,l)
);
},
{
closed = 1;
nodes = (
(492,0,l),
(346,336,l),
(326,333,l),
(470,0,l)
);
},
{
closed = 1;
nodes = (
(178,678,l),
(327,678,ls),
(445,678,o),
(510,630,o),
(510,541,cs),
(510,417,o),
(419,346,o),
(280,346,cs),
(131,346,l)
);
}
);
width = 577;
},
{
anchors = (
{
name = bottom;
pos = (259,0);
},
{
name = top;
pos = (357,697);
}
);
background = {
shapes = (
{
closed = 1;
nodes = (
(181,0,l),
(220,277,l),
(238,277,ls),
(258,277,o),
(296,277,o),
(337,277,c),
(513,286,o),
(582,395,o),
(582,525,cs),
(582,630,o),
(519,697,o),
(363,697,cs),
(122,697,l),
(24,0,l)
);
},
{
closed = 1;
nodes = (
(260,557,l),
(336,557,ls),
(381,557,o),
(426,548,o),
(426,500,cs),
(426,434,o),
(382,417,o),
(308,417,cs),
(240,417,l)
);
}
);
};
layerId = "957254E3-B7AD-4837-9092-D4428001DE8E";
shapes = (
{
closed = 1;
nodes = (
(180,0,l),
(220,280,l),
(310,280,ls),
(328,280,o),
(345,280,o),
(363,280,c),
(510,300,o),
(582,389,o),
(582,526,cs),
(582,640,o),
(497,697,o),
(353,697,cs),
(122,697,l),
(24,0,l)
);
},
{
closed = 1;
nodes = (
(576,0,l),
(428,313,l),
(267,294,l),
(402,0,l)
);
},
{
closed = 1;
nodes = (
(259,557,l),
(336,557,ls),
(390,557,o),
(425,543,o),
(425,499,cs),
(425,440,o),
(387,417,o),
(308,417,cs),
(239,417,l)
);
}
);
width = 621;
},
{
anchors = (
{
name = bottom;
pos = (253,0);
},
{
name = top;
pos = (351,697);
}
);
layerId = m003;
shapes = (
{
closed = 1;
nodes = (
(132,0,l),
(175,303,l),
(257,303,ls),
(283,303,o),
(314,303,o),
(337,303,c),
(495,319,o),
(557,422,o),
(557,533,cs),
(557,635,o),
(490,697,o),
(348,697,cs),
(142,697,l),
(44,0,l)
);
},
{
closed = 1;
nodes = (
(534,0,l),
(385,325,l),
(298,314,l),
(437,0,l)
);
},
{
closed = 1;
nodes = (
(219,618,l),
(332,618,ls),
(414,618,o),
(469,594,o),
(469,526,cs),
(469,434,o),
(400,381,o),
(294,381,cs),
(186,381,l)
);
}
);
width = 598;
}
);
metricLeft = H;
note = R;
unicode = 82;
},
{
color = 1;
glyphname = S;
kernLeft = S;
kernRight = S;
lastChange = "2021-11-14 10:14:53 +0000";
layers = (
{
anchors = (
{
name = bottom;
pos = (240,0);
},
{
name = top;
pos = (338,697);
}
);
layerId = "F91D9E91-C1BC-4259-B0D8-112C0CBA2B8E";
shapes = (
{
closed = 1;
nodes = (
(385,-6,o),
(481,67,o),
(481,187,cs),
(481,302,o),
(398,340,o),
(305,377,cs),
(225,409,o),
(152,438,o),
(152,531,cs),
(152,611,o),
(217,684,o),
(323,684,cs),
(408,684,o),
(465,648,o),
(491,588,c),
(509,598,l),
(479,666,o),
(413,703,o),
(323,703,cs),
(204,703,o),
(132,620,o),
(132,531,cs),
(132,432,o),
(206,395,o),
(292,361,cs),
(386,324,o),
(461,290,o),
(461,186,cs),
(461,82,o),
(377,13,o),
(262,13,cs),
(148,13,o),
(69,75,o),
(66,180,c),
(46,176,l),
(49,64,o),
(135,-6,o),
(260,-6,cs)
);
}
);
width = 549;
},
{
anchors = (
{
name = bottom;
pos = (256,0);
},
{
name = top;
pos = (354,697);
}
);
layerId = "957254E3-B7AD-4837-9092-D4428001DE8E";
shapes = (
{
closed = 1;
nodes = (
(441,-15,o),
(548,77,o),
(548,214,cs),
(548,318,o),
(486,375,o),
(371,421,cs),
(288,454,o),
(265,476,o),
(265,511,cs),
(265,544,o),
(287,576,o),
(341,576,cs),
(385,576,o),
(413,554,o),
(432,508,c),
(564,576,l),
(534,661,o),
(449,715,o),
(341,715,cs),
(204,715,o),
(107,627,o),
(107,503,cs),
(107,408,o),
(163,344,o),
(288,293,cs),
(364,262,o),
(390,239,o),
(390,200,cs),
(390,152,o),
(349,124,o),
(290,124,cs),
(224,124,o),
(174,159,o),
(172,239,c),
(16,209,l),
(18,76,o),
(129,-15,o),
(285,-15,cs)
);
}
);
width = 583;
},
{
anchors = (
{
name = bottom;
pos = (247,0);
},
{
name = top;
pos = (345,697);
}
);
layerId = m003;
shapes = (
{
closed = 1;
nodes = (
(410,-11,o),
(513,75,o),
(513,200,cs),
(513,293,o),
(455,351,o),
(339,398,cs),
(252,433,o),
(206,455,o),
(206,517,cs),
(206,584,o),
(259,631,o),
(334,631,cs),
(389,631,o),
(438,603,o),
(461,549,c),
(535,587,l),
(503,666,o),
(425,709,o),
(335,709,cs),
(202,709,o),
(119,617,o),
(119,513,cs),
(119,430,o),
(173,374,o),
(290,327,cs),
(369,295,o),
(425,267,o),
(425,195,cs),
(425,125,o),
(371,68,o),
(275,68,cs),
(188,68,o),
(120,114,o),
(118,209,c),
(30,192,l),
(33,70,o),
(129,-11,o),
(267,-11,cs)
);
}
);
width = 564;
}
);
note = S;
unicode = 83;
},
{
color = 1;
glyphname = Germandbls;
kernRight = S;
lastChange = "2021-11-14 10:14:54 +0000";
layers = (
{
anchors = (
{
name = bottom;
pos = (315,0);
},
{
name = top;
pos = (413,697);
}
);
layerId = "F91D9E91-C1BC-4259-B0D8-112C0CBA2B8E";
shapes = (
{
closed = 1;
nodes = (
(82,0,l),
(178,678,l),
(670,678,l),
(672,697,l),
(160,697,l),
(62,0,l)
);
},
{
closed = 1;
nodes = (
(526,-6,o),
(632,86,o),
(632,207,cs),
(632,305,o),
(545,341,o),
(458,376,cs),
(377,409,o),
(303,438,o),
(303,517,cs),
(303,610,o),
(381,679,o),
(487,680,c),
(476,690,l),
(364,688,o),
(282,614,o),
(282,517,cs),
(282,429,o),
(359,395,o),
(443,361,cs),
(528,327,o),
(611,295,o),
(611,205,cs),
(611,112,o),
(528,13,o),
(394,13,cs),
(292,13,o),
(220,71,o),
(217,180,c),
(197,176,l),
(199,69,o),
(271,-6,o),
(392,-6,cs)
);
}
);
width = 698;
},
{
anchors = (
{
name = bottom;
pos = (378,0);
},
{
name = top;
pos = (476,697);
}
);
layerId = "957254E3-B7AD-4837-9092-D4428001DE8E";
shapes = (
{
closed = 1;
nodes = (
(181,0,l),
(260,557,l),
(804,557,l),
(823,697,l),
(122,697,l),
(24,0,l)
);
},
{
closed = 1;
nodes = (
(660,-15,o),
(790,84,o),
(790,230,cs),
(790,324,o),
(724,367,o),
(615,420,cs),
(539,457,o),
(509,476,o),
(509,516,cs),
(509,543,o),
(515,569,o),
(557,585,c),
(392,594,l),
(367,567,o),
(352,536,o),
(352,492,cs),
(352,399,o),
(408,354,o),
(530,298,cs),
(616,259,o),
(633,235,o),
(633,201,cs),
(633,153,o),
(586,124,o),
(531,124,cs),
(465,124,o),
(413,158,o),
(418,240,c),
(258,209,l),
(261,76,o),
(365,-15,o),
(514,-15,cs)
);
}
);
width = 823;
},
{
anchors = (
{
name = bottom;
pos = (347,0);
},
{
name = top;
pos = (445,697);
}
);
layerId = m003;
shapes = (
{
closed = 1;
nodes = (
(132,0,l),
(219,618,l),
(737,618,l),
(748,697,l),
(142,697,l),
(44,0,l)
);
},
{
closed = 1;
nodes = (
(593,-11,o),
(710,87,o),
(710,219,cs),
(710,314,o),
(637,353,o),
(534,399,cs),
(451,436,o),
(405,461,o),
(405,517,cs),
(405,578,o),
(450,626,o),
(505,635,c),
(418,641,l),
(353,630,o),
(317,563,o),
(317,510,cs),
(317,418,o),
(377,377,o),
(487,330,cs),
(567,295,o),
(622,269,o),
(622,207,cs),
(622,127,o),
(547,68,o),
(457,68,cs),
(370,68,o),
(316,117,o),
(316,210,c),
(228,192,l),
(230,74,o),
(317,-11,o),
(453,-11,cs)
);
}
);
width = 758;
}
);
metricLeft = "=I";
metricRight = S;
unicode = 7838;
},
{
color = 1;
glyphname = T;
kernLeft = T;
kernRight = T;
lastChange = "2021-11-14 10:14:53 +0000";
layers = (
{
anchors = (
{
name = bottom;
pos = (264,0);
},
{
name = center;
pos = (313,349);
},
{
name = top;
pos = (362,697);
}
);
layerId = "F91D9E91-C1BC-4259-B0D8-112C0CBA2B8E";
shapes = (
{
closed = 1;
nodes = (
(274,0,l),
(370,678,l),
(633,678,l),
(636,697,l),
(88,697,l),
(86,678,l),
(349,678,l),
(254,0,l)
);
}
);
width = 599;
},
{
anchors = (
{
name = bottom;
pos = (256,0);
},
{
name = center;
pos = (305,349);
},
{
name = top;
pos = (354,697);
}
);
layerId = "957254E3-B7AD-4837-9092-D4428001DE8E";
shapes = (
{
closed = 1;
nodes = (
(336,0,l),
(414,557,l),
(617,557,l),
(637,697,l),
(71,697,l),
(51,557,l),
(255,557,l),
(177,0,l)
);
}
);
width = 582;
},
{
anchors = (
{
name = bottom;
pos = (258,0);
},
{
name = center;
pos = (307,349);
},
{
name = top;
pos = (356,697);
}
);
layerId = m003;
shapes = (
{
closed = 1;
nodes = (
(303,0,l),
(390,618,l),
(623,618,l),
(634,697,l),
(78,697,l),
(67,618,l),
(301,618,l),
(214,0,l)
);
}
);
width = 587;
}
);
note = T;
unicode = 84;
},
{
color = 1;
glyphname = U;
kernLeft = U;
kernRight = J;
lastChange = "2021-11-14 10:14:53 +0000";
layers = (
{
anchors = (
{
name = bottom;
pos = (289,0);
},
{
name = ogonek;
pos = (345,0);
},
{
name = top;
pos = (387,697);
},
{
name = topright;
pos = (592,697);
}
);
layerId = "F91D9E91-C1BC-4259-B0D8-112C0CBA2B8E";
shapes = (
{
closed = 1;
nodes = (
(432,-6,o),
(536,79,o),
(561,257,cs),
(623,697,l),
(603,697,l),
(541,258,ls),
(519,101,o),
(430,14,o),
(290,14,cs),
(169,14,o),
(107,78,o),
(107,194,cs),
(107,212,o),
(108,232,o),
(111,253,cs),
(172,697,l),
(152,697,l),
(90,252,ls),
(87,231,o),
(86,210,o),
(86,194,cs),
(86,65,o),
(156,-6,o),
(289,-6,cs)
);
}
);
width = 649;
},
{
anchors = (
{
name = bottom;
pos = (295,0);
},
{
name = ogonek;
pos = (390,0);
},
{
name = top;
pos = (393,697);
},
{
name = topright;
pos = (606,697);
}
);
layerId = "957254E3-B7AD-4837-9092-D4428001DE8E";
shapes = (
{
closed = 1;
nodes = (
(478,-18,o),
(580,68,o),
(606,253,cs),
(668,697,l),
(511,697,l),
(452,272,ls),
(439,178,o),
(408,126,o),
(304,126,cs),
(230,126,o),
(208,151,o),
(208,207,cs),
(208,226,o),
(210,243,o),
(213,266,cs),
(273,697,l),
(116,697,l),
(54,256,ls),
(51,235,o),
(50,214,o),
(50,197,cs),
(50,54,o),
(135,-18,o),
(300,-18,cs)
);
}
);
width = 658;
},
{
anchors = (
{
name = bottom;
pos = (293,0);
},
{
name = ogonek;
pos = (368,0);
},
{
name = top;
pos = (391,697);
},
{
name = topright;
pos = (592,697);
}
);
layerId = m003;
shapes = (
{
closed = 1;
nodes = (
(460,-12,o),
(559,78,o),
(584,255,cs),
(646,697,l),
(559,697,l),
(498,265,ls),
(480,139,o),
(420,69,o),
(297,69,cs),
(198,69,o),
(158,115,o),
(158,203,cs),
(158,216,o),
(159,239,o),
(162,259,cs),
(223,697,l),
(135,697,l),
(73,254,ls),
(70,234,o),
(69,210,o),
(69,196,cs),
(69,60,o),
(147,-12,o),
(295,-12,cs)
);
}
);
width = 656;
}
);
note = U;
unicode = 85;
},
{
color = 1;
glyphname = V;
kernLeft = V;
kernRight = V;
lastChange = "2021-11-14 10:14:53 +0000";
layers = (
{
anchors = (
{
name = bottom;
pos = (284,0);
},
{
name = top;
pos = (382,697);
}
);
layerId = "F91D9E91-C1BC-4259-B0D8-112C0CBA2B8E";
shapes = (
{
closed = 1;
nodes = (
(296,0,l),
(667,697,l),
(644,697,l),
(288,23,l),
(288,23,l),
(119,697,l),
(97,697,l),
(273,0,l)
);
}
);
width = 638;
},
{
anchors = (
{
name = bottom;
pos = (307,0);
},
{
name = top;
pos = (405,697);
}
);
layerId = "957254E3-B7AD-4837-9092-D4428001DE8E";
shapes = (
{
closed = 1;
nodes = (
(366,0,l),
(744,697,l),
(567,697,l),
(308,193,l),
(359,193,l),
(238,697,l),
(68,697,l),
(251,0,l)
);
}
);
width = 682;
},
{
anchors = (
{
name = bottom;
pos = (294,0);
},
{
name = top;
pos = (392,697);
}
);
layerId = m003;
shapes = (
{
closed = 1;
nodes = (
(329,0,l),
(703,697,l),
(605,697,l),
(296,107,l),
(321,107,l),
(176,697,l),
(81,697,l),
(261,0,l)
);
}
);
width = 656;
}
);
note = V;
unicode = 86;
},
{
color = 1;
glyphname = W;
kernLeft = W;
kernRight = W;
lastChange = "2021-11-14 10:14:53 +0000";
layers = (
{
anchors = (
{
name = bottom;
pos = (428,0);
},
{
name = top;
pos = (526,697);
}
);
layerId = "F91D9E91-C1BC-4259-B0D8-112C0CBA2B8E";
shapes = (
{
closed = 1;
nodes = (
(226,0,l),
(520,638,l),
(516,638,l),
(629,0,l),
(655,0,l),
(947,697,l),
(925,697,l),
(645,26,l),
(532,662,l),
(509,662,l),
(217,26,l),
(126,697,l),
(104,697,l),
(200,0,l)
);
}
);
width = 925;
},
{
anchors = (
{
name = bottom;
pos = (462,0);
},
{
name = top;
pos = (560,697);
}
);
layerId = "957254E3-B7AD-4837-9092-D4428001DE8E";
shapes = (
{
closed = 1;
nodes = (
(337,0,l),
(542,468,l),
(516,468,l),
(589,0,l),
(740,0,l),
(1051,697,l),
(885,697,l),
(686,242,l),
(630,655,l),
(476,655,l),
(302,242,l),
(233,697,l),
(71,697,l),
(186,0,l)
);
}
);
width = 994;
},
{
anchors = (
{
name = bottom;
pos = (444,0);
},
{
name = top;
pos = (542,697);
}
);
layerId = m003;
shapes = (
{
closed = 1;
nodes = (
(280,0,l),
(530,554,l),
(515,554,l),
(608,0,l),
(696,0,l),
(998,697,l),
(905,697,l),
(664,133,l),
(580,659,l),
(492,659,l),
(258,133,l),
(178,697,l),
(87,697,l),
(192,0,l)
);
}
);
width = 957;
}
);
note = W;
unicode = 87;
},
{
color = 1;
glyphname = X;
kernLeft = X;
kernRight = X;
lastChange = "2021-11-14 10:14:53 +0000";
layers = (
{
anchors = (
{
name = bottom;
pos = (266,0);
},
{
name = top;
pos = (364,697);
}
);
layerId = "F91D9E91-C1BC-4259-B0D8-112C0CBA2B8E";
shapes = (
{
closed = 1;
nodes = (
(26,0,l),
(314,337,l),
(507,0,l),
(531,0,l),
(329,354,l),
(622,697,l),
(597,697,l),
(317,370,l),
(131,697,l),
(107,697,l),
(302,354,l),
(1,0,l)
);
}
);
width = 603;
},
{
anchors = (
{
name = bottom;
pos = (310,0);
},
{
name = top;
pos = (408,697);
}
);
layerId = "957254E3-B7AD-4837-9092-D4428001DE8E";
shapes = (
{
closed = 1;
nodes = (
(163,0,l),
(345,233,l),
(459,0,l),
(644,0,l),
(466,346,l),
(745,697,l),
(555,697,l),
(371,455,l),
(257,697,l),
(72,697,l),
(249,346,l),
(-28,0,l)
);
}
);
width = 689;
},
{
anchors = (
{
name = bottom;
pos = (286,0);
},
{
name = top;
pos = (384,697);
}
);
layerId = m003;
shapes = (
{
closed = 1;
nodes = (
(91,0,l),
(327,286,l),
(482,0,l),
(585,0,l),
(395,350,l),
(681,697,l),
(574,697,l),
(342,412,l),
(191,697,l),
(88,697,l),
(275,350,l),
(-15,0,l)
);
}
);
width = 641;
}
);
note = X;
unicode = 88;
},
{
color = 1;
glyphname = Y;
kernLeft = Y;
kernRight = Y;
lastChange = "2021-11-14 10:14:53 +0000";
layers = (
{
anchors = (
{
name = bottom;
pos = (252,0);
},
{
name = top;
pos = (350,697);
},
{
name = topleft;
pos = (90,697);
}
);
layerId = "F91D9E91-C1BC-4259-B0D8-112C0CBA2B8E";
shapes = (
{
closed = 1;
nodes = (
(262,0,l),
(299,262,l),
(608,697,l),
(584,697,l),
(292,284,l),
(115,697,l),
(92,697,l),
(279,262,l),
(242,0,l)
);
}
);
width = 574;
},
{
anchors = (
{
name = bottom;
pos = (286,0);
},
{
name = top;
pos = (384,697);
},
{
name = topleft;
pos = (85,697);
}
);
layerId = "957254E3-B7AD-4837-9092-D4428001DE8E";
shapes = (
{
closed = 1;
nodes = (
(365,0,l),
(405,275,l),
(705,697,l),
(524,697,l),
(340,431,l),
(239,697,l),
(63,697,l),
(248,275,l),
(208,0,l)
);
}
);
width = 640;
},
{
anchors = (
{
name = bottom;
pos = (267,0);
},
{
name = top;
pos = (365,697);
},
{
name = topleft;
pos = (85,697);
}
);
layerId = m003;
shapes = (
{
closed = 1;
nodes = (
(311,0,l),
(349,269,l),
(654,697,l),
(552,697,l),
(313,357,l),
(174,697,l),
(76,697,l),
(261,269,l),
(223,0,l)
);
}
);
width = 602;
}
);
note = Y;
unicode = 89;
},
{
color = 1;
glyphname = Z;
kernLeft = Z;
kernRight = Z;
lastChange = "2021-11-14 10:14:53 +0000";
layers = (
{
anchors = (
{
name = bottom;
pos = (238,0);
},
{
name = center;
pos = (287,349);
},
{
name = top;
pos = (336,697);
}
);
layerId = "F91D9E91-C1BC-4259-B0D8-112C0CBA2B8E";
shapes = (
{
closed = 1;
nodes = (
(470,0,l),
(473,19,l),
(26,19,l),
(28,19,l),
(556,674,l),
(558,697,l),
(126,697,l),
(124,678,l),
(538,678,l),
(537,681,l),
(7,24,l),
(4,0,l)
);
}
);
width = 543;
},
{
anchors = (
{
name = bottom;
pos = (279,0);
},
{
name = center;
pos = (328,349);
},
{
name = top;
pos = (377,697);
}
);
layerId = "957254E3-B7AD-4837-9092-D4428001DE8E";
shapes = (
{
closed = 1;
nodes = (
(560,0,l),
(580,140,l),
(162,140,l),
(181,108,l),
(627,569,l),
(644,697,l),
(111,697,l),
(91,557,l),
(488,557,l),
(469,607,l),
(6,127,l),
(-10,0,l)
);
}
);
width = 621;
},
{
anchors = (
{
name = bottom;
pos = (258,0);
},
{
name = center;
pos = (307,349);
},
{
name = top;
pos = (356,697);
}
);
layerId = m003;
shapes = (
{
closed = 1;
nodes = (
(514,0,l),
(525,79,l),
(93,79,l),
(103,63,l),
(591,623,l),
(600,697,l),
(119,697,l),
(108,618,l),
(512,618,l),
(503,645,l),
(6,75,l),
(-3,0,l)
);
}
);
width = 582;
}
);
note = Z;
unicode = 90;
},
{
color = 1;
glyphname = a;
kernLeft = c;
kernRight = a;
lastChange = "2021-11-14 10:14:53 +0000";
layers = (
{
anchors = (
{
name = bottom;
pos = (269,0);
},
{
name = ogonek;
pos = (482,0);
},
{
name = top;
pos = (339,493);
}
);
layerId = "F91D9E91-C1BC-4259-B0D8-112C0CBA2B8E";
shapes = (
{
closed = 1;
nodes = (
(361,-5,o),
(450,63,o),
(491,166,c),
(487,170,l),
(462,0,l),
(482,0,l),
(551,493,l),
(532,493,l),
(509,324,l),
(513,328,l),
(501,431,o),
(427,498,o),
(326,498,cs),
(179,498,o),
(63,359,o),
(63,206,cs),
(63,83,o),
(141,-5,o),
(257,-5,cs)
);
},
{
closed = 1;
nodes = (
(153,14,o),
(83,95,o),
(83,206,cs),
(83,343,o),
(185,479,o),
(327,479,cs),
(431,479,o),
(501,401,o),
(501,289,cs),
(501,147,o),
(398,14,o),
(260,14,cs)
);
}
);
width = 607;
},
{
anchors = (
{
name = bottom;
pos = (250,0);
},
{
name = ogonek;
pos = (481,0);
},
{
name = top;
pos = (320,493);
}
);
layerId = "957254E3-B7AD-4837-9092-D4428001DE8E";
shapes = (
{
closed = 1;
nodes = (
(264,-11,o),
(339,9,o),
(383,148,c),
(347,122,l),
(341,0,l),
(481,0,l),
(550,493,l),
(411,493,l),
(384,369,l),
(407,343,l),
(416,460,o),
(347,504,o),
(274,504,cs),
(129,504,o),
(32,353,o),
(32,199,cs),
(32,75,o),
(93,-11,o),
(208,-11,cs)
);
},
{
closed = 1;
nodes = (
(209,127,o),
(183,157,o),
(183,210,cs),
(183,283,o),
(222,366,o),
(308,366,cs),
(357,366,o),
(383,336,o),
(383,283,cs),
(383,212,o),
(344,127,o),
(258,127,cs)
);
}
);
width = 570;
},
{
anchors = (
{
name = bottom;
pos = (259,0);
},
{
name = ogonek;
pos = (480,0);
},
{
name = top;
pos = (329,493);
}
);
layerId = m003;
shapes = (
{
closed = 1;
nodes = (
(334,-8,o),
(403,39,o),
(441,125,c),
(416,147,l),
(396,0,l),
(480,0,l),
(549,493,l),
(466,493,l),
(445,346,l),
(472,367,l),
(461,444,o),
(400,501,o),
(304,501,cs),
(152,501,o),
(47,360,o),
(47,205,cs),
(47,81,o),
(121,-8,o),
(242,-8,cs)
);
},
{
closed = 1;
nodes = (
(179,70,o),
(131,125,o),
(131,209,cs),
(131,316,o),
(203,424,o),
(316,424,cs),
(393,424,o),
(441,368,o),
(441,285,cs),
(441,179,o),
(371,70,o),
(258,70,cs)
);
}
);
width = 587;
}
);
metricLeft = "=d";
metricRight = "=d";
note = a;
unicode = 97;
},
{
color = 1;
glyphname = ae;
kernLeft = a;
kernRight = e;
lastChange = "2021-11-14 10:14:53 +0000";
layers = (
{
anchors = (
{
name = bottom;
pos = (415,0);
},
{
name = top;
pos = (485,493);
}
);
layerId = "F91D9E91-C1BC-4259-B0D8-112C0CBA2B8E";
shapes = (
{
closed = 1;
nodes = (
(282,-5,o),
(371,35,o),
(425,183,c),
(428,183,l),
(431,62,o),
(500,-5,o),
(607,-5,cs),
(686,-5,o),
(734,16,o),
(797,71,c),
(783,85,l),
(724,32,o),
(680,14,o),
(608,14,cs),
(504,14,o),
(445,79,o),
(445,195,cs),
(445,207,o),
(446,228,o),
(449,247,c),
(831,247,l),
(837,265,o),
(842,299,o),
(842,322,cs),
(842,405,o),
(799,498,o),
(669,498,cs),
(576,498,o),
(499,437,o),
(457,337,c),
(463,441,o),
(410,498,o),
(302,498,cs),
(224,498,o),
(166,472,o),
(107,404,c),
(121,391,l),
(175,455,o),
(229,480,o),
(300,480,cs),
(417,480,o),
(453,406,o),
(438,304,cs),
(432,264,l),
(287,264,ls),
(149,264,o),
(49,230,o),
(49,115,cs),
(49,39,o),
(106,-5,o),
(196,-5,cs)
);
},
{
closed = 1;
nodes = (
(117,13,o),
(69,52,o),
(69,115,cs),
(69,220,o),
(163,248,o),
(286,248,cs),
(439,248,l),
(432,256,l),
(429,240,l),
(387,69,o),
(289,13,o),
(198,13,cs)
);
},
{
closed = 1;
nodes = (
(821,264,l),
(451,264,l),
(474,391,o),
(561,480,o),
(667,480,cs),
(785,480,o),
(823,398,o),
(823,324,cs),
(823,299,o),
(821,283,o),
(815,260,c)
);
}
);
width = 900;
},
{
anchors = (
{
name = bottom;
pos = (398,0);
},
{
name = top;
pos = (468,493);
}
);
layerId = "957254E3-B7AD-4837-9092-D4428001DE8E";
shapes = (
{
closed = 1;
nodes = (
(276,-11,o),
(336,2,o),
(399,66,c),
(411,66,l),
(447,15,o),
(505,-11,o),
(577,-11,cs),
(659,-11,o),
(731,18,o),
(791,76,c),
(684,163,l),
(654,138,o),
(617,125,o),
(581,125,cs),
(536,125,o),
(512,139,o),
(502,162,cs),
(499,170,o),
(497,180,o),
(497,190,c),
(822,190,l),
(830,223,o),
(835,250,o),
(835,288,cs),
(835,416,o),
(765,504,o),
(626,504,cs),
(571,504,o),
(505,485,o),
(467,449,c),
(431,490,o),
(378,504,o),
(318,504,cs),
(227,504,o),
(147,481,o),
(67,414,c),
(169,317,l),
(212,360,o),
(263,373,o),
(299,373,cs),
(339,373,o),
(363,356,o),
(363,318,cs),
(363,299,l),
(238,299,ls),
(110,299,o),
(21,249,o),
(21,135,cs),
(21,40,o),
(110,-11,o),
(208,-11,cs)
);
},
{
closed = 1;
nodes = (
(196,107,o),
(175,129,o),
(175,149,cs),
(175,172,o),
(191,191,o),
(234,191,cs),
(362,191,l),
(353,218,l),
(348,186,l),
(342,146,o),
(301,107,o),
(243,107,cs)
);
},
{
closed = 1;
nodes = (
(718,301,l),
(512,301,l),
(522,333,o),
(556,379,o),
(627,379,cs),
(671,379,o),
(700,351,o),
(700,318,cs),
(700,304,o),
(698,297,o),
(694,286,c)
);
}
);
width = 866;
},
{
anchors = (
{
name = bottom;
pos = (401,0);
},
{
name = top;
pos = (471,493);
}
);
background = {
shapes = (
{
closed = 1;
nodes = (
(282,-8,o),
(344,29,o),
(396,122,c),
(406,122,l),
(423,42,o),
(483,-8,o),
(577,-8,cs),
(657,-8,o),
(712,8,o),
(783,74,c),
(727,130,l),
(684,89,o),
(641,70,o),
(580,70,cs),
(503,70,o),
(466,115,o),
(466,193,cs),
(466,201,o),
(466,209,o),
(467,218,c),
(813,218,l),
(821,248,o),
(826,283,o),
(826,314,cs),
(826,415,o),
(776,498,o),
(639,498,cs),
(568,498,o),
(509,462,o),
(467,401,c),
(455,463,o),
(400,501,o),
(310,501,cs),
(228,501,o),
(159,479,o),
(87,409,c),
(145,354,l),
(192,407,o),
(244,428,o),
(300,428,cs),
(376,428,o),
(415,389,o),
(402,311,cs),
(398,287,l),
(277,287,ls),
(221,287,o),
(35,289,o),
(35,124,cs),
(35,46,o),
(93,-8,o),
(197,-8,cs)
);
},
{
closed = 1;
nodes = (
(151,65,o),
(121,89,o),
(121,127,cs),
(121,185,o),
(169,226,o),
(279,226,cs),
(390,226,l),
(389,220,l),
(366,116,o),
(292,65,o),
(208,65,cs)
);
},
{
closed = 1;
nodes = (
(489,357,o),
(546,428,o),
(638,428,cs),
(722,428,o),
(749,366,o),
(749,302,cs),
(749,289,o),
(747,273,o),
(741,251,c),
(787,286,l),
(475,281,l)
);
}
);
};
layerId = m003;
shapes = (
{
closed = 1;
nodes = (
(281,-8,o),
(351,29,o),
(403,122,c),
(413,122,l),
(433,36,o),
(482,-8,o),
(586,-8,cs),
(665,-8,o),
(722,17,o),
(783,74,c),
(727,130,l),
(684,89,o),
(640,70,o),
(584,70,cs),
(497,70,o),
(466,115,o),
(466,205,cs),
(466,209,o),
(466,207,o),
(467,218,c),
(813,218,l),
(821,248,o),
(826,283,o),
(826,314,cs),
(826,415,o),
(773,498,o),
(646,498,cs),
(567,498,o),
(513,466,o),
(467,401,c),
(454,464,o),
(402,501,o),
(305,501,cs),
(230,501,o),
(159,479,o),
(87,409,c),
(145,354,l),
(192,407,o),
(244,428,o),
(300,428,cs),
(376,428,o),
(415,389,o),
(402,311,cs),
(398,287,l),
(277,287,ls),
(115,287,o),
(35,235,o),
(35,134,cs),
(35,41,o),
(104,-8,o),
(199,-8,cs)
);
},
{
closed = 1;
nodes = (
(158,65,o),
(121,88,o),
(121,137,cs),
(121,195,o),
(171,226,o),
(279,226,cs),
(430,226,l),
(397,265,l),
(389,220,l),
(371,114,o),
(289,65,o),
(211,65,cs)
);
},
{
closed = 1;
nodes = (
(759,286,l),
(475,281,l),
(489,357,o),
(546,428,o),
(638,428,cs),
(718,428,o),
(749,370,o),
(749,308,cs),
(749,297,o),
(748,286,o),
(746,275,c)
);
}
);
width = 870;
}
);
metricLeft = "=a";
metricRight = "=e";
note = ae;
unicode = 230;
},
{
color = 1;
glyphname = b;
kernLeft = b;
kernRight = b;
lastChange = "2021-11-14 10:14:53 +0000";
layers = (
{
anchors = (
{
name = bottom;
pos = (261,0);
},
{
name = center;
pos = (188,608);
},
{
name = top;
pos = (163,697);
},
{
name = topleft;
pos = (17,493);
}
);
layerId = "F91D9E91-C1BC-4259-B0D8-112C0CBA2B8E";
shapes = (
{
closed = 1;
nodes = (
(430,-5,o),
(544,138,o),
(544,288,cs),
(544,411,o),
(465,498,o),
(350,498,cs),
(246,498,o),
(156,428,o),
(118,329,c),
(121,324,l),
(173,697,l),
(153,697,l),
(55,0,l),
(75,0,l),
(99,170,l),
(95,166,l),
(106,64,o),
(178,-5,o),
(281,-5,cs)
);
},
{
closed = 1;
nodes = (
(176,14,o),
(106,94,o),
(106,206,cs),
(106,345,o),
(208,479,o),
(347,479,cs),
(453,479,o),
(524,399,o),
(524,287,cs),
(524,149,o),
(419,14,o),
(280,14,cs)
);
}
);
width = 606;
},
{
anchors = (
{
name = bottom;
pos = (240,0);
},
{
name = center;
pos = (202,589);
},
{
name = top;
pos = (192,697);
},
{
name = topleft;
pos = (-48,493);
}
);
layerId = "957254E3-B7AD-4837-9092-D4428001DE8E";
shapes = (
{
closed = 1;
nodes = (
(458,-11,o),
(538,146,o),
(538,296,cs),
(538,430,o),
(463,504,o),
(362,504,cs),
(297,504,o),
(224,468,o),
(191,351,c),
(222,369,l),
(267,697,l),
(117,697,l),
(19,0,l),
(159,0,l),
(185,122,l),
(160,156,l),
(167,17,o),
(242,-11,o),
(306,-11,cs)
);
},
{
closed = 1;
nodes = (
(218,127,o),
(188,162,o),
(188,223,cs),
(188,311,o),
(234,366,o),
(303,366,cs),
(356,366,o),
(386,332,o),
(386,271,cs),
(386,181,o),
(340,127,o),
(271,127,cs)
);
}
);
width = 570;
},
{
anchors = (
{
name = bottom;
pos = (259,0);
},
{
name = center;
pos = (200,608);
},
{
name = top;
pos = (177,697);
},
{
name = topleft;
pos = (-15,493);
}
);
layerId = m003;
shapes = (
{
closed = 1;
nodes = (
(440,-8,o),
(541,143,o),
(541,290,cs),
(541,420,o),
(458,501,o),
(345,501,cs),
(253,501,o),
(181,448,o),
(149,371,c),
(171,346,l),
(219,697,l),
(135,697,l),
(37,0,l),
(121,0,l),
(141,147,l),
(113,130,l),
(127,44,o),
(187,-8,o),
(283,-8,cs)
);
},
{
closed = 1;
nodes = (
(194,70,o),
(146,126,o),
(146,209,cs),
(146,317,o),
(217,424,o),
(330,424,cs),
(407,424,o),
(456,368,o),
(456,284,cs),
(456,177,o),
(383,70,o),
(271,70,cs)
);
}
);
width = 587;
}
);
note = b;
unicode = 98;
},
{
color = 1;
glyphname = c;
kernLeft = c;
kernRight = c;
lastChange = "2021-11-14 10:14:53 +0000";
layers = (
{
anchors = (
{
name = bottom;
pos = (252,0);
},
{
name = top;
pos = (310,493);
}
);
layerId = "F91D9E91-C1BC-4259-B0D8-112C0CBA2B8E";
shapes = (
{
closed = 1;
nodes = (
(326,-5,o),
(398,39,o),
(439,121,c),
(421,129,l),
(385,56,o),
(321,13,o),
(242,13,cs),
(134,13,o),
(84,94,o),
(84,197,cs),
(84,329,o),
(162,480,o),
(309,480,cs),
(387,480,o),
(439,438,o),
(454,365,c),
(474,371,l),
(456,453,o),
(396,498,o),
(310,498,cs),
(156,498,o),
(64,344,o),
(64,197,cs),
(64,76,o),
(131,-5,o),
(241,-5,cs)
);
}
);
width = 514;
},
{
anchors = (
{
name = bottom;
pos = (255,0);
},
{
name = top;
pos = (296,493);
}
);
layerId = "957254E3-B7AD-4837-9092-D4428001DE8E";
shapes = (
{
closed = 1;
nodes = (
(351,-11,o),
(434,34,o),
(485,135,c),
(360,195,l),
(342,152,o),
(317,120,o),
(263,120,cs),
(207,120,o),
(179,162,o),
(179,210,cs),
(179,285,o),
(221,373,o),
(305,373,cs),
(351,373,o),
(370,347,o),
(378,306,c),
(513,350,l),
(490,451,o),
(416,504,o),
(308,504,cs),
(136,504,o),
(30,363,o),
(30,211,cs),
(30,94,o),
(98,-11,o),
(261,-11,cs)
);
}
);
width = 526;
},
{
anchors = (
{
name = bottom;
pos = (252,0);
},
{
name = top;
pos = (302,493);
}
);
layerId = m003;
shapes = (
{
closed = 1;
nodes = (
(336,-8,o),
(414,35,o),
(461,128,c),
(389,162,l),
(362,105,o),
(314,66,o),
(246,66,cs),
(163,66,o),
(129,129,o),
(129,205,cs),
(129,308,o),
(192,428,o),
(307,428,cs),
(369,428,o),
(404,392,o),
(415,336,c),
(492,360,l),
(471,453,o),
(403,501,o),
(308,501,cs),
(147,501,o),
(46,357,o),
(46,206,cs),
(46,86,o),
(113,-8,o),
(245,-8,cs)
);
}
);
width = 518;
}
);
note = c;
unicode = 99;
},
{
color = 1;
glyphname = d;
kernRight = d;
lastChange = "2021-11-14 10:14:53 +0000";
layers = (
{
anchors = (
{
name = bottom;
pos = (276,0);
},
{
name = center;
pos = (521,608);
},
{
name = top;
pos = (570,697);
},
{
name = topright;
pos = (660,493);
}
);
layerId = "F91D9E91-C1BC-4259-B0D8-112C0CBA2B8E";
shapes = (
{
closed = 1;
nodes = (
(361,-5,o),
(450,63,o),
(491,166,c),
(487,170,l),
(462,0,l),
(482,0,l),
(580,697,l),
(560,697,l),
(509,324,l),
(513,328,l),
(501,431,o),
(427,498,o),
(326,498,cs),
(179,498,o),
(63,359,o),
(63,206,cs),
(63,83,o),
(141,-5,o),
(257,-5,cs)
);
},
{
closed = 1;
nodes = (
(153,14,o),
(83,95,o),
(83,206,cs),
(83,343,o),
(185,479,o),
(327,479,cs),
(431,479,o),
(501,401,o),
(501,289,cs),
(501,147,o),
(398,14,o),
(260,14,cs)
);
}
);
width = 607;
},
{
anchors = (
{
name = bottom;
pos = (260,0);
},
{
name = center;
pos = (464,589);
},
{
name = top;
pos = (504,697);
},
{
name = topright;
pos = (688,493);
}
);
layerId = "957254E3-B7AD-4837-9092-D4428001DE8E";
shapes = (
{
closed = 1;
nodes = (
(264,-11,o),
(339,9,o),
(383,148,c),
(347,122,l),
(341,0,l),
(481,0,l),
(579,697,l),
(429,697,l),
(384,369,l),
(407,343,l),
(416,460,o),
(347,504,o),
(274,504,cs),
(129,504,o),
(32,353,o),
(32,199,cs),
(32,75,o),
(93,-11,o),
(208,-11,cs)
);
},
{
closed = 1;
nodes = (
(214,127,o),
(184,161,o),
(184,223,cs),
(184,312,o),
(230,366,o),
(299,366,cs),
(352,366,o),
(382,331,o),
(382,270,cs),
(382,182,o),
(336,127,o),
(267,127,cs)
);
}
);
width = 570;
},
{
anchors = (
{
name = bottom;
pos = (259,0);
},
{
name = center;
pos = (489,608);
},
{
name = top;
pos = (536,697);
},
{
name = topright;
pos = (672,493);
}
);
layerId = m003;
shapes = (
{
closed = 1;
nodes = (
(334,-8,o),
(403,39,o),
(441,125,c),
(416,147,l),
(396,0,l),
(480,0,l),
(578,697,l),
(494,697,l),
(445,346,l),
(472,367,l),
(461,444,o),
(400,501,o),
(304,501,cs),
(152,501,o),
(47,360,o),
(47,205,cs),
(47,81,o),
(121,-8,o),
(242,-8,cs)
);
},
{
closed = 1;
nodes = (
(179,70,o),
(131,125,o),
(131,209,cs),
(131,316,o),
(203,424,o),
(316,424,cs),
(393,424,o),
(441,368,o),
(441,285,cs),
(441,179,o),
(371,70,o),
(258,70,cs)
);
}
);
width = 587;
}
);
note = d;
unicode = 100;
},
{
color = 1;
glyphname = eth;
kernLeft = c;
kernRight = d;
lastChange = "2021-11-14 10:14:53 +0000";
layers = (
{
layerId = "F91D9E91-C1BC-4259-B0D8-112C0CBA2B8E";
shapes = (
{
closed = 1;
nodes = (
(477,-5,o),
(589,239,o),
(589,457,cs),
(589,620,o),
(505,704,o),
(241,709,c),
(239,693,l),
(466,689,o),
(571,625,o),
(571,455,cs),
(571,409,o),
(564,359,o),
(550,300,c),
(551,306,o),
(551,313,o),
(551,320,cs),
(551,421,o),
(503,508,o),
(393,508,cs),
(203,508,o),
(73,340,o),
(73,173,cs),
(73,66,o),
(141,-5,o),
(250,-5,cs)
);
},
{
closed = 1;
nodes = (
(154,13,o),
(92,76,o),
(92,174,cs),
(92,330,o),
(213,490,o),
(394,490,cs),
(502,490,o),
(541,404,o),
(541,320,cs),
(541,191,o),
(429,13,o),
(252,13,cs)
);
},
{
closed = 1;
nodes = (
(674,667,l),
(672,679,l),
(354,572,l),
(356,560,l)
);
}
);
width = 651;
},
{
layerId = "957254E3-B7AD-4837-9092-D4428001DE8E";
shapes = (
{
closed = 1;
nodes = (
(481,-11,o),
(593,233,o),
(593,455,cs),
(593,616,o),
(515,719,o),
(313,738,c),
(295,638,l),
(422,633,o),
(470,557,o),
(470,470,cs),
(470,456,o),
(468,442,o),
(466,427,c),
(460,437,o),
(452,446,o),
(442,454,cs),
(412,477,o),
(368,487,o),
(327,487,cs),
(174,487,o),
(29,354,o),
(29,187,cs),
(29,71,o),
(105,-11,o),
(245,-11,cs)
);
},
{
closed = 1;
nodes = (
(209,118,o),
(170,141,o),
(170,194,cs),
(170,257,o),
(222,364,o),
(342,364,cs),
(406,364,o),
(434,330,o),
(432,290,cs),
(429,213,o),
(353,118,o),
(256,118,cs)
);
},
{
closed = 1;
nodes = (
(623,607,l),
(617,667,l),
(242,581,l),
(249,521,l)
);
}
);
width = 591;
},
{
layerId = m003;
shapes = (
{
closed = 1;
nodes = (
(484,-8,o),
(596,235,o),
(596,456,cs),
(596,618,o),
(516,711,o),
(282,723,c),
(272,666,l),
(449,662,o),
(526,594,o),
(526,461,cs),
(526,432,o),
(523,398,o),
(515,362,c),
(515,381,o),
(511,399,o),
(503,417,cs),
(481,463,o),
(433,498,o),
(366,498,cs),
(184,498,o),
(57,334,o),
(57,180,cs),
(57,69,o),
(129,-8,o),
(253,-8,cs)
);
},
{
closed = 1;
nodes = (
(187,65,o),
(136,108,o),
(136,184,cs),
(136,300,o),
(228,428,o),
(374,428,cs),
(459,428,o),
(491,366,o),
(491,304,cs),
(491,189,o),
(388,65,o),
(259,65,cs)
);
},
{
closed = 1;
nodes = (
(655,638,l),
(650,674,l),
(304,577,l),
(309,541,l)
);
}
);
width = 619;
}
);
note = eth;
unicode = 240;
},
{
color = 1;
glyphname = e;
kernLeft = c;
kernRight = e;
lastChange = "2021-11-14 10:16:10 +0000";
layers = (
{
anchors = (
{
name = bottom;
pos = (246,0);
},
{
name = ogonek;
pos = (300,0);
},
{
name = top;
pos = (308,493);
}
);
layerId = "F91D9E91-C1BC-4259-B0D8-112C0CBA2B8E";
shapes = (
{
closed = 1;
nodes = (
(326,-5,o),
(373,16,o),
(437,71,c),
(423,85,l),
(361,29,o),
(315,14,o),
(247,14,cs),
(145,14,o),
(85,79,o),
(85,194,cs),
(85,211,o),
(85,228,o),
(88,247,c),
(473,247,l),
(477,263,o),
(482,294,o),
(482,321,cs),
(482,404,o),
(439,498,o),
(307,498,cs),
(154,498,o),
(64,339,o),
(64,192,cs),
(64,72,o),
(132,-5,o),
(246,-5,cs)
);
},
{
closed = 1;
nodes = (
(463,263,l),
(90,263,l),
(115,390,o),
(201,480,o),
(307,480,cs),
(426,480,o),
(463,397,o),
(463,324,cs),
(463,302,o),
(460,277,o),
(456,258,c)
);
}
);
width = 540;
},
{
anchors = (
{
name = bottom;
pos = (249,0);
},
{
name = ogonek;
pos = (328,0);
},
{
name = top;
pos = (311,493);
}
);
layerId = "957254E3-B7AD-4837-9092-D4428001DE8E";
shapes = (
{
closed = 1;
nodes = (
(337,-11,o),
(409,18,o),
(462,51,c),
(399,154,l),
(358,132,o),
(309,118,o),
(267,118,cs),
(223,118,o),
(186,133,o),
(177,171,cs),
(176,177,o),
(175,183,o),
(175,190,c),
(500,190,l),
(508,225,o),
(513,251,o),
(513,288,cs),
(513,416,o),
(443,504,o),
(304,504,cs),
(123,504,o),
(30,353,o),
(30,206,cs),
(30,91,o),
(91,-11,o),
(255,-11,cs)
);
},
{
closed = 1;
nodes = (
(422,301,l),
(190,301,l),
(200,333,o),
(234,384,o),
(303,384,cs),
(358,384,o),
(377,349,o),
(377,312,cs),
(377,300,o),
(375,286,o),
(371,273,c)
);
}
);
width = 544;
},
{
anchors = (
{
name = bottom;
pos = (246,0);
},
{
name = ogonek;
pos = (313,0);
},
{
name = top;
pos = (308,493);
}
);
layerId = m003;
shapes = (
{
closed = 1;
nodes = (
(329,-8,o),
(390,16,o),
(453,74,c),
(398,130,l),
(355,88,o),
(312,69,o),
(252,69,cs),
(173,69,o),
(129,114,o),
(129,193,cs),
(129,201,o),
(129,209,o),
(130,218,c),
(485,218,l),
(492,242,o),
(496,280,o),
(496,305,cs),
(496,410,o),
(439,501,o),
(304,501,cs),
(140,501,o),
(46,348,o),
(46,199,cs),
(46,82,o),
(111,-8,o),
(250,-8,cs)
);
},
{
closed = 1;
nodes = (
(442,282,l),
(138,282,l),
(155,361,o),
(216,430,o),
(305,430,cs),
(386,430,o),
(420,375,o),
(420,319,cs),
(420,297,o),
(419,288,o),
(416,266,c)
);
}
);
width = 541;
}
);
note = e;
unicode = 101;
},
{
color = 1;
glyphname = f;
kernLeft = f;
kernRight = f;
lastChange = "2022-02-25 20:13:41 +0000";
layers = (
{
anchors = (
{
name = bottom;
pos = (132,0);
},
{
name = top;
pos = (257,697);
}
);
layerId = "F91D9E91-C1BC-4259-B0D8-112C0CBA2B8E";
shapes = (
{
closed = 1;
nodes = (
(142,0,l),
(209,476,l),
(339,476,l),
(342,493,l),
(212,493,l),
(223,577,ls),
(233,649,o),
(274,684,o),
(334,684,cs),
(359,684,o),
(377,679,o),
(395,670,c),
(403,685,l),
(385,696,o),
(363,702,o),
(332,702,cs),
(262,702,o),
(215,663,o),
(203,577,cs),
(192,493,l),
(69,493,l),
(66,476,l),
(189,476,l),
(122,0,l)
);
}
);
width = 342;
},
{
anchors = (
{
name = bottom;
pos = (141,0);
},
{
name = top;
pos = (237,697);
}
);
layerId = "957254E3-B7AD-4837-9092-D4428001DE8E";
shapes = (
{
closed = 1;
nodes = (
(217,0,l),
(270,376,l),
(368,376,l),
(385,493,l),
(287,493,l),
(292,532,ls),
(296,560,o),
(310,583,o),
(338,583,cs),
(347,583,o),
(359,579,o),
(370,573,c),
(428,684,l),
(399,697,o),
(371,708,o),
(323,708,cs),
(234,708,o),
(163,673,o),
(144,541,cs),
(137,493,l),
(55,493,l),
(38,376,l),
(119,376,l),
(66,0,l)
);
}
);
width = 367;
},
{
anchors = (
{
name = bottom;
pos = (132,0);
},
{
name = top;
pos = (243,697);
}
);
layerId = m003;
shapes = (
{
closed = 1;
nodes = (
(175,0,l),
(235,427,l),
(350,427,l),
(359,493,l),
(245,493,l),
(253,554,ls),
(259,600,o),
(284,634,o),
(332,634,cs),
(347,634,o),
(364,630,o),
(379,622,c),
(412,684,l),
(388,696,o),
(362,705,o),
(324,705,cs),
(251,705,o),
(185,674,o),
(169,559,cs),
(160,493,l),
(58,493,l),
(48,427,l),
(150,427,l),
(90,0,l)
);
}
);
width = 348;
}
);
note = f;
unicode = 102;
},
{
color = 1;
glyphname = g;
kernLeft = c;
kernRight = g;
lastChange = "2021-11-14 10:14:53 +0000";
layers = (
{
anchors = (
{
name = bottom;
pos = (226,-209);
},
{
name = top;
pos = (346,493);
}
);
layerId = "F91D9E91-C1BC-4259-B0D8-112C0CBA2B8E";
shapes = (
{
closed = 1;
nodes = (
(355,-209,o),
(461,-153,o),
(484,10,cs),
(552,493,l),
(532,493,l),
(509,327,l),
(511,329,l),
(498,432,o),
(425,498,o),
(325,498,cs),
(179,498,o),
(64,360,o),
(64,212,cs),
(64,94,o),
(142,5,o),
(258,5,cs),
(359,5,o),
(449,74,o),
(490,175,c),
(487,178,l),
(464,11,ls),
(443,-141,o),
(345,-191,o),
(227,-191,cs),
(138,-191,o),
(76,-138,o),
(55,-61,c),
(39,-73,l),
(63,-157,o),
(133,-209,o),
(227,-209,cs)
);
},
{
closed = 1;
nodes = (
(154,25,o),
(84,106,o),
(84,213,cs),
(84,350,o),
(191,479,o),
(327,479,cs),
(432,479,o),
(502,400,o),
(502,291,cs),
(502,158,o),
(399,25,o),
(261,25,cs)
);
}
);
width = 606;
},
{
anchors = (
{
name = bottom;
pos = (208,-215);
},
{
name = top;
pos = (322,493);
}
);
layerId = "957254E3-B7AD-4837-9092-D4428001DE8E";
shapes = (
{
closed = 1;
nodes = (
(356,-215,o),
(461,-148,o),
(483,11,cs),
(551,493,l),
(411,493,l),
(389,402,l),
(405,418,l),
(395,471,o),
(352,504,o),
(277,504,cs),
(133,504,o),
(34,357,o),
(34,216,cs),
(34,97,o),
(99,9,o),
(214,9,cs),
(274,9,o),
(321,23,o),
(365,89,c),
(345,108,l),
(334,19,ls),
(323,-68,o),
(262,-86,o),
(217,-86,cs),
(163,-86,o),
(141,-52,o),
(124,-22,c),
(-1,-107,l),
(34,-160,o),
(91,-215,o),
(216,-215,cs)
);
},
{
closed = 1;
nodes = (
(220,142,o),
(187,180,o),
(187,235,cs),
(187,313,o),
(232,366,o),
(300,366,cs),
(354,366,o),
(382,330,o),
(382,275,cs),
(382,201,o),
(344,142,o),
(275,142,cs)
);
}
);
width = 571;
},
{
anchors = (
{
name = bottom;
pos = (216,-212);
},
{
name = top;
pos = (333,493);
}
);
layerId = m003;
shapes = (
{
closed = 1;
nodes = (
(366,-212,o),
(461,-140,o),
(482,10,cs),
(550,493,l),
(465,493,l),
(448,364,l),
(457,373,l),
(441,449,o),
(384,501,o),
(294,501,cs),
(153,501,o),
(48,365,o),
(48,214,cs),
(48,96,o),
(119,7,o),
(234,7,cs),
(314,7,o),
(384,48,o),
(426,133,c),
(415,144,l),
(398,15,ls),
(381,-109,o),
(297,-140,o),
(221,-140,cs),
(151,-140,o),
(107,-98,o),
(87,-42,c),
(17,-89,l),
(48,-162,o),
(115,-212,o),
(220,-212,cs)
);
},
{
closed = 1;
nodes = (
(180,87,o),
(132,141,o),
(132,220,cs),
(132,325,o),
(209,424,o),
(316,424,cs),
(394,424,o),
(442,367,o),
(442,287,cs),
(442,175,o),
(361,87,o),
(259,87,cs)
);
}
);
width = 588;
}
);
note = g;
unicode = 103;
},
{
color = 1;
glyphname = h;
kernLeft = h;
kernRight = h;
lastChange = "2021-11-14 10:14:53 +0000";
layers = (
{
anchors = (
{
name = bottom;
pos = (226,0);
},
{
name = center;
pos = (189,607);
},
{
name = top;
pos = (161,697);
}
);
layerId = "F91D9E91-C1BC-4259-B0D8-112C0CBA2B8E";
shapes = (
{
closed = 1;
nodes = (
(73,0,l),
(110,260,ls),
(130,401,o),
(195,480,o),
(303,480,cs),
(385,480,o),
(424,435,o),
(424,346,cs),
(424,333,o),
(423,311,o),
(420,292,cs),
(379,0,l),
(399,0,l),
(441,297,ls),
(444,318,o),
(445,336,o),
(445,350,cs),
(445,448,o),
(396,498,o),
(305,498,cs),
(218,498,o),
(154,452,o),
(120,360,c),
(124,359,l),
(171,697,l),
(151,697,l),
(53,0,l)
);
}
);
width = 516;
},
{
anchors = (
{
name = bottom;
pos = (261,0);
},
{
name = center;
pos = (233,589);
},
{
name = top;
pos = (194,697);
}
);
layerId = "957254E3-B7AD-4837-9092-D4428001DE8E";
shapes = (
{
closed = 1;
nodes = (
(170,0,l),
(202,226,ls),
(216,325,o),
(256,373,o),
(324,373,cs),
(365,373,o),
(383,355,o),
(383,311,cs),
(383,302,o),
(382,290,o),
(380,276,cs),
(341,0,l),
(492,0,l),
(538,324,ls),
(539,335,o),
(540,345,o),
(540,355,cs),
(540,446,o),
(479,504,o),
(373,504,cs),
(315,504,o),
(240,481,o),
(203,381,c),
(223,377,l),
(268,697,l),
(117,697,l),
(19,0,l)
);
}
);
width = 576;
},
{
anchors = (
{
name = bottom;
pos = (245,0);
},
{
name = center;
pos = (211,598);
},
{
name = top;
pos = (178,697);
}
);
layerId = m003;
shapes = (
{
closed = 1;
nodes = (
(122,0,l),
(156,243,ls),
(174,369,o),
(230,428,o),
(315,428,cs),
(374,428,o),
(404,397,o),
(404,329,cs),
(404,311,o),
(403,300,o),
(401,284,cs),
(361,0,l),
(446,0,l),
(489,310,ls),
(491,325,o),
(492,337,o),
(492,352,cs),
(492,449,o),
(436,501,o),
(339,501,cs),
(261,501,o),
(193,465,o),
(155,390,c),
(176,388,l),
(220,697,l),
(135,697,l),
(37,0,l)
);
}
);
width = 547;
}
);
note = h;
unicode = 104;
},
{
color = 1;
glyphname = idotless;
lastChange = "2021-11-14 10:14:53 +0000";
layers = (
{
anchors = (
{
name = bottom;
pos = (65,0);
},
{
name = ogonek;
pos = (75,0);
},
{
name = top;
pos = (135,493);
}
);
layerId = "F91D9E91-C1BC-4259-B0D8-112C0CBA2B8E";
shapes = (
{
closed = 1;
nodes = (
(75,0,l),
(145,493,l),
(125,493,l),
(55,0,l)
);
}
);
width = 200;
},
{
anchors = (
{
name = bottom;
pos = (94,0);
},
{
name = ogonek;
pos = (169,0);
},
{
name = top;
pos = (163,493);
}
);
layerId = "957254E3-B7AD-4837-9092-D4428001DE8E";
shapes = (
{
closed = 1;
nodes = (
(169,0,l),
(238,493,l),
(87,493,l),
(18,0,l)
);
}
);
width = 258;
},
{
anchors = (
{
name = bottom;
pos = (78,0);
},
{
name = ogonek;
pos = (120,0);
},
{
name = top;
pos = (148,493);
}
);
layerId = m003;
shapes = (
{
closed = 1;
nodes = (
(120,0,l),
(190,493,l),
(105,493,l),
(36,0,l)
);
}
);
width = 226;
}
);
note = dotlessi;
unicode = 305;
},
{
color = 1;
glyphname = jdotless;
lastChange = "2022-11-03 19:34:52 +0000";
layers = (
{
anchors = (
{
name = bottom;
pos = (30,-254);
},
{
name = top;
pos = (135,493);
}
);
guides = (
{
pos = (384,-204);
}
);
layerId = "F91D9E91-C1BC-4259-B0D8-112C0CBA2B8E";
shapes = (
{
closed = 1;
nodes = (
(20,-209,o),
(50,-180,o),
(59,-112,cs),
(145,493,l),
(125,493,l),
(40,-108,ls),
(32,-166,o),
(8,-191,o),
(-30,-191,cs),
(-43,-191,o),
(-62,-188,o),
(-82,-180,c),
(-84,-198,l),
(-63,-205,o),
(-44,-209,o),
(-27,-209,cs)
);
}
);
width = 200;
},
{
anchors = (
{
name = bottom;
pos = (58,-254);
},
{
name = top;
pos = (163,493);
}
);
guides = (
{
pos = (266,-204);
}
);
layerId = "957254E3-B7AD-4837-9092-D4428001DE8E";
shapes = (
{
closed = 1;
nodes = (
(88,-215,o),
(144,-176,o),
(157,-82,cs),
(238,493,l),
(87,493,l),
(14,-32,ls),
(9,-66,o),
(-10,-74,o),
(-38,-74,cs),
(-45,-74,o),
(-59,-73,o),
(-74,-70,c),
(-84,-198,l),
(-54,-208,o),
(-19,-215,o),
(14,-215,cs)
);
}
);
width = 258;
},
{
anchors = (
{
name = bottom;
pos = (43,-254);
},
{
name = top;
pos = (148,493);
}
);
guides = (
{
pos = (240,-204);
}
);
layerId = m003;
shapes = (
{
closed = 1;
nodes = (
(52,-212,o),
(96,-178,o),
(107,-97,cs),
(190,493,l),
(105,493,l),
(26,-71,ls),
(20,-116,o),
(-3,-134,o),
(-36,-134,cs),
(-44,-134,o),
(-59,-132,o),
(-79,-126,c),
(-85,-198,l),
(-60,-206,o),
(-33,-212,o),
(-8,-212,cs)
);
}
);
width = 226;
}
);
metricLeft = "=i@200";
metricRight = "=i@200";
note = uni0237;
unicode = 567;
},
{
color = 1;
glyphname = k;
kernLeft = k;
kernRight = k;
lastChange = "2021-11-14 10:14:53 +0000";
layers = (
{
anchors = (
{
name = bottom;
pos = (210,0);
},
{
name = top;
pos = (161,697);
}
);
layerId = "F91D9E91-C1BC-4259-B0D8-112C0CBA2B8E";
shapes = (
{
closed = 1;
nodes = (
(416,0,l),
(251,313,l),
(452,493,l),
(424,493,l),
(92,193,l),
(88,167,l),
(237,300,l),
(394,0,l)
);
},
{
closed = 1;
nodes = (
(73,0,l),
(171,697,l),
(151,697,l),
(53,0,l)
);
}
);
width = 492;
},
{
anchors = (
{
name = bottom;
pos = (260,0);
},
{
name = top;
pos = (193,697);
}
);
layerId = "957254E3-B7AD-4837-9092-D4428001DE8E";
shapes = (
{
closed = 1;
nodes = (
(529,0,l),
(367,305,l),
(584,493,l),
(380,493,l),
(203,318,l),
(179,131,l),
(256,208,l),
(362,0,l)
);
},
{
closed = 1;
nodes = (
(170,0,l),
(268,697,l),
(117,697,l),
(19,0,l)
);
}
);
width = 578;
},
{
anchors = (
{
name = bottom;
pos = (235,0);
},
{
name = top;
pos = (177,697);
}
);
layerId = m003;
shapes = (
{
closed = 1;
nodes = (
(472,0,l),
(307,308,l),
(517,493,l),
(402,493,l),
(146,255,l),
(133,150,l),
(246,254,l),
(377,0,l)
);
},
{
closed = 1;
nodes = (
(121,0,l),
(219,697,l),
(134,697,l),
(36,0,l)
);
}
);
width = 531;
}
);
note = k;
unicode = 107;
},
{
color = 1;
glyphname = kgreenlandic;
kernLeft = m;
kernRight = k;
lastChange = "2021-11-14 10:14:53 +0000";
layers = (
{
anchors = (
{
name = bottom;
pos = (212,0);
},
{
name = top;
pos = (282,493);
}
);
layerId = "F91D9E91-C1BC-4259-B0D8-112C0CBA2B8E";
shapes = (
{
closed = 1;
nodes = (
(238,300,l),
(395,0,l),
(417,0,l),
(252,313,l),
(453,493,l),
(425,493,l),
(93,193,l),
(89,167,l)
);
},
{
closed = 1;
nodes = (
(74,0,l),
(143,493,l),
(123,493,l),
(54,0,l)
);
}
);
width = 493;
},
{
anchors = (
{
name = bottom;
pos = (255,0);
},
{
name = top;
pos = (325,493);
}
);
layerId = "957254E3-B7AD-4837-9092-D4428001DE8E";
shapes = (
{
closed = 1;
nodes = (
(257,208,l),
(363,0,l),
(530,0,l),
(368,305,l),
(585,493,l),
(381,493,l),
(204,318,l),
(180,131,l)
);
},
{
closed = 1;
nodes = (
(171,0,l),
(240,493,l),
(89,493,l),
(20,0,l)
);
}
);
width = 579;
},
{
anchors = (
{
name = bottom;
pos = (233,0);
},
{
name = top;
pos = (303,493);
}
);
layerId = m003;
shapes = (
{
closed = 1;
nodes = (
(248,254,l),
(379,0,l),
(474,0,l),
(309,308,l),
(519,493,l),
(404,493,l),
(148,255,l),
(135,150,l)
);
},
{
closed = 1;
nodes = (
(123,0,l),
(192,493,l),
(107,493,l),
(38,0,l)
);
}
);
width = 533;
}
);
metricLeft = m;
note = kgreenlandic;
unicode = 312;
},
{
color = 1;
glyphname = l;
kernLeft = l;
kernRight = l;
lastChange = "2021-11-14 10:14:53 +0000";
layers = (
{
anchors = (
{
name = bottom;
pos = (104,0);
},
{
name = center;
pos = (143,412);
},
{
name = top;
pos = (162,697);
},
{
name = topright;
pos = (259,493);
}
);
layerId = "F91D9E91-C1BC-4259-B0D8-112C0CBA2B8E";
shapes = (
{
closed = 1;
nodes = (
(149,-5,o),
(162,-3,o),
(184,4,c),
(187,24,l),
(166,15,o),
(151,14,o),
(136,14,cs),
(95,14,o),
(85,39,o),
(85,67,cs),
(85,78,o),
(86,86,o),
(87,94,cs),
(171,697,l),
(152,697,l),
(67,93,ls),
(65,81,o),
(65,65,o),
(65,63,cs),
(65,26,o),
(79,-5,o),
(132,-5,cs)
);
}
);
width = 263;
},
{
anchors = (
{
name = bottom;
pos = (104,0);
},
{
name = center;
pos = (143,343);
},
{
name = top;
pos = (189,697);
},
{
name = topright;
pos = (379,493);
}
);
background = {
shapes = (
{
closed = 1;
nodes = (
(169,-11,o),
(199,-9,o),
(232,3,c),
(250.575,136.34,l),
(236.652,132.799,o),
(222.393,128,o),
(210,128,cs),
(195,128,o),
(190,136,o),
(190,151,cs),
(190,158,o),
(191,168,o),
(193,179,cs),
(264,697,l),
(114,697,l),
(35,129,ls),
(34,119,o),
(33,109,o),
(33,100,cs),
(33,25,o),
(83,-11,o),
(151,-11,cs)
);
}
);
};
layerId = "957254E3-B7AD-4837-9092-D4428001DE8E";
shapes = (
{
closed = 1;
nodes = (
(169,-11,o),
(199,-9,o),
(232,3,c),
(250,130,l),
(240,128,o),
(228,126,o),
(217,126,cs),
(202,126,o),
(190,131,o),
(190,151,cs),
(190,156,o),
(191,165,o),
(193,179,cs),
(264,697,l),
(114,697,l),
(35,129,ls),
(34,119,o),
(33,109,o),
(33,100,cs),
(33,25,o),
(83,-11,o),
(151,-11,cs)
);
}
);
width = 290;
},
{
anchors = (
{
name = bottom;
pos = (104,0);
},
{
name = center;
pos = (148,378);
},
{
name = top;
pos = (175,697);
},
{
name = topright;
pos = (318,493);
}
);
layerId = m003;
shapes = (
{
closed = 1;
nodes = (
(157,-8,o),
(181,-5,o),
(204,3,c),
(215,79,l),
(198,73,o),
(183,70,o),
(169,70,cs),
(148,70,o),
(136,80,o),
(136,105,cs),
(136,112,o),
(136,117,o),
(137,122,cs),
(217,697,l),
(133,697,l),
(51,111,ls),
(50,101,o),
(49,92,o),
(49,84,cs),
(49,22,o),
(84,-8,o),
(139,-8,cs)
);
}
);
width = 269;
}
);
note = l;
unicode = 108;
},
{
color = 1;
glyphname = m;
kernLeft = m;
kernRight = h;
lastChange = "2021-11-14 10:14:53 +0000";
layers = (
{
anchors = (
{
name = bottom;
pos = (364,0);
},
{
name = top;
pos = (434,493);
}
);
layerId = "F91D9E91-C1BC-4259-B0D8-112C0CBA2B8E";
shapes = (
{
closed = 1;
nodes = (
(74,0,l),
(114,289,ls),
(131,410,o),
(199,480,o),
(290,480,cs),
(366,480,o),
(404,438,o),
(404,348,cs),
(404,334,o),
(403,313,o),
(400,292,cs),
(359,0,l),
(379,0,l),
(420,289,ls),
(438,415,o),
(508,480,o),
(596,480,cs),
(681,480,o),
(710,428,o),
(710,346,cs),
(710,323,o),
(708,302,o),
(705,280,cs),
(665,0,l),
(686,0,l),
(726,282,ls),
(729,305,o),
(731,323,o),
(731,347,cs),
(731,439,o),
(695,498,o),
(600,498,cs),
(520,498,o),
(453,451,o),
(418,350,c),
(425,349,l),
(426,452,o),
(379,498,o),
(295,498,cs),
(220,498,o),
(155,457,o),
(122,368,c),
(125,367,l),
(143,493,l),
(123,493,l),
(53,0,l)
);
}
);
width = 803;
},
{
anchors = (
{
name = bottom;
pos = (392,0);
},
{
name = top;
pos = (462,493);
}
);
layerId = "957254E3-B7AD-4837-9092-D4428001DE8E";
shapes = (
{
closed = 1;
nodes = (
(170,0,l),
(203,235,ls),
(216,326,o),
(253,373,o),
(314,373,cs),
(352,373,o),
(362,347,o),
(362,316,cs),
(362,307,o),
(361,299,o),
(359,285,cs),
(319,0,l),
(469,0,l),
(502,235,ls),
(515,327,o),
(551,373,o),
(609,373,cs),
(642,373,o),
(660,356,o),
(660,314,cs),
(660,306,o),
(660,296,o),
(658,285,cs),
(618,0,l),
(769,0,l),
(813,314,ls),
(814,324,o),
(815,333,o),
(815,343,cs),
(815,424,o),
(766,504,o),
(647,504,cs),
(577,504,o),
(483,468,o),
(430,303,c),
(527,337,l),
(522,471,o),
(440,504,o),
(368,504,cs),
(309,504,o),
(221,480,o),
(183,333,c),
(223,364,l),
(230,493,l),
(89,493,l),
(19,0,l)
);
}
);
width = 852;
},
{
anchors = (
{
name = bottom;
pos = (379,0);
},
{
name = top;
pos = (448,493);
}
);
layerId = m003;
shapes = (
{
closed = 1;
nodes = (
(122,0,l),
(159,262,ls),
(174,370,o),
(229,428,o),
(303,428,cs),
(356,428,o),
(384,397,o),
(384,331,cs),
(384,316,o),
(383,304,o),
(381,289,cs),
(340,0,l),
(425,0,l),
(462,262,ls),
(477,370,o),
(529,428,o),
(604,428,cs),
(663,428,o),
(686,392,o),
(686,328,cs),
(686,309,o),
(685,297,o),
(683,282,cs),
(643,0,l),
(727,0,l),
(769,298,ls),
(771,313,o),
(772,326,o),
(772,343,cs),
(772,431,o),
(731,501,o),
(624,501,cs),
(536,501,o),
(471,453,o),
(428,352,c),
(476,343,l),
(474,447,o),
(421,501,o),
(329,501,cs),
(265,501,o),
(194,470,o),
(156,376,c),
(174,366,l),
(191,493,l),
(107,493,l),
(37,0,l)
);
}
);
width = 828;
}
);
note = m;
unicode = 109;
},
{
color = 1;
glyphname = n;
kernLeft = m;
kernRight = h;
lastChange = "2021-11-14 10:14:53 +0000";
layers = (
{
anchors = (
{
name = bottom;
pos = (225,0);
},
{
name = top;
pos = (290,493);
}
);
layerId = "F91D9E91-C1BC-4259-B0D8-112C0CBA2B8E";
shapes = (
{
closed = 1;
nodes = (
(73,0,l),
(110,260,ls),
(132,415,o),
(205,480,o),
(303,480,cs),
(383,480,o),
(424,437,o),
(424,345,cs),
(424,332,o),
(423,311,o),
(420,292,cs),
(379,0,l),
(399,0,l),
(441,297,ls),
(444,318,o),
(445,337,o),
(445,350,cs),
(445,453,o),
(393,498,o),
(305,498,cs),
(223,498,o),
(155,453,o),
(120,360,c),
(124,359,l),
(143,493,l),
(123,493,l),
(53,0,l)
);
}
);
width = 517;
},
{
anchors = (
{
name = bottom;
pos = (245,0);
},
{
name = top;
pos = (315,493);
}
);
layerId = "957254E3-B7AD-4837-9092-D4428001DE8E";
shapes = (
{
closed = 1;
nodes = (
(170,0,l),
(202,226,ls),
(216,325,o),
(256,373,o),
(324,373,cs),
(365,373,o),
(383,355,o),
(383,311,cs),
(383,302,o),
(382,290,o),
(380,276,cs),
(341,0,l),
(492,0,l),
(538,324,ls),
(540,335,o),
(540,345,o),
(540,355,cs),
(540,446,o),
(479,504,o),
(373,504,cs),
(315,504,o),
(240,481,o),
(203,381,c),
(223,377,l),
(230,493,l),
(89,493,l),
(19,0,l)
);
}
);
width = 576;
},
{
anchors = (
{
name = bottom;
pos = (236,0);
},
{
name = top;
pos = (303,493);
}
);
layerId = m003;
shapes = (
{
closed = 1;
nodes = (
(122,0,l),
(156,243,ls),
(174,369,o),
(230,428,o),
(315,428,cs),
(374,428,o),
(404,397,o),
(404,329,cs),
(404,311,o),
(403,300,o),
(401,284,cs),
(361,0,l),
(446,0,l),
(489,310,ls),
(491,325,o),
(492,337,o),
(492,352,cs),
(492,449,o),
(436,501,o),
(339,501,cs),
(261,501,o),
(193,465,o),
(155,390,c),
(176,388,l),
(191,493,l),
(107,493,l),
(37,0,l)
);
}
);
width = 547;
}
);
note = n;
unicode = 110;
},
{
glyphname = nhookleft;
kernLeft = m;
kernRight = h;
lastChange = "2021-11-14 10:14:53 +0000";
layers = (
{
layerId = "F91D9E91-C1BC-4259-B0D8-112C0CBA2B8E";
shapes = (
{
closed = 1;
nodes = (
(102,0,l),
(145,303,ls),
(160,406,o),
(228,480,o),
(329,480,cs),
(414,480,o),
(455,435,o),
(455,355,cs),
(455,341,o),
(453,327,o),
(451,312,cs),
(408,0,l),
(428,0,l),
(474,328,ls),
(476,342,o),
(477,354,o),
(477,364,cs),
(477,451,o),
(423,498,o),
(334,498,cs),
(253,498,o),
(185,457,o),
(153,381,c),
(156,378,l),
(172,493,l),
(152,493,l),
(82,0,l)
);
},
{
closed = 1;
nodes = (
(45,-209,o),
(76,-183,o),
(86,-112,cs),
(102,0,l),
(82,0,l),
(67,-110,ls),
(59,-167,o),
(36,-192,o),
(-3,-192,cs),
(-17,-192,o),
(-35,-188,o),
(-54,-180,c),
(-56,-198,l),
(-36,-205,o),
(-17,-209,o),
(1,-209,cs)
);
}
);
width = 545;
},
{
layerId = "957254E3-B7AD-4837-9092-D4428001DE8E";
shapes = (
{
closed = 1;
nodes = (
(170,0,l),
(202,226,ls),
(216,325,o),
(256,373,o),
(324,373,cs),
(365,373,o),
(383,355,o),
(383,311,cs),
(383,302,o),
(382,290,o),
(380,276,cs),
(341,0,l),
(492,0,l),
(538,324,ls),
(540,335,o),
(540,345,o),
(540,355,cs),
(540,446,o),
(479,504,o),
(373,504,cs),
(315,504,o),
(240,481,o),
(203,381,c),
(223,377,l),
(230,493,l),
(89,493,l),
(19,0,l)
);
},
{
closed = 1;
nodes = (
(89,-215,o),
(144,-176,o),
(158,-82,cs),
(170,0,l),
(19,0,l),
(10,-53,ls),
(6,-76,o),
(-7,-84,o),
(-29,-84,cs),
(-33,-84,o),
(-42,-84,o),
(-58,-80,c),
(-66,-197,l),
(-38,-208,o),
(-11,-215,o),
(20,-215,cs)
);
}
);
width = 576;
},
{
layerId = m003;
shapes = (
{
closed = 1;
nodes = (
(124,0,l),
(158,240,ls),
(170,322,o),
(201,428,o),
(315,428,cs),
(390,428,o),
(408,382,o),
(408,335,cs),
(408,324,o),
(407,313,o),
(406,303,cs),
(363,0,l),
(448,0,l),
(494,326,ls),
(496,340,o),
(497,351,o),
(497,360,cs),
(497,450,o),
(438,501,o),
(341,501,cs),
(265,501,o),
(198,467,o),
(162,389,c),
(177,369,l),
(194,493,l),
(109,493,l),
(40,0,l)
);
},
{
closed = 1;
nodes = (
(53,-212,o),
(99,-182,o),
(111,-97,cs),
(124,0,l),
(40,0,l),
(28,-81,ls),
(23,-119,o),
(5,-139,o),
(-28,-139,cs),
(-34,-139,o),
(-50,-137,o),
(-67,-131,c),
(-72,-198,l),
(-48,-207,o),
(-25,-212,o),
(-1,-212,cs)
);
}
);
width = 549;
}
);
metricRight = h;
unicode = 626;
},
{
color = 1;
glyphname = eng;
kernLeft = m;
kernRight = h;
lastChange = "2021-11-14 10:14:53 +0000";
layers = (
{
guides = (
{
pos = (414,-204);
}
);
layerId = "F91D9E91-C1BC-4259-B0D8-112C0CBA2B8E";
shapes = (
{
closed = 1;
nodes = (
(373,-209,o),
(405,-184,o),
(415,-112,cs),
(477,328,ls),
(479,342,o),
(480,354,o),
(480,364,cs),
(480,450,o),
(427,498,o),
(337,498,cs),
(255,498,o),
(188,456,o),
(156,381,c),
(159,378,l),
(175,493,l),
(155,493,l),
(85,0,l),
(105,0,l),
(148,303,ls),
(163,406,o),
(231,480,o),
(332,480,cs),
(417,480,o),
(458,435,o),
(458,355,cs),
(458,340,o),
(457,327,o),
(455,312,cs),
(395,-110,ls),
(387,-167,o),
(364,-192,o),
(326,-192,cs),
(311,-192,o),
(294,-188,o),
(274,-180,c),
(273,-198,l),
(293,-205,o),
(312,-209,o),
(330,-209,cs)
);
}
);
width = 576;
},
{
guides = (
{
pos = (317,-204);
}
);
layerId = "957254E3-B7AD-4837-9092-D4428001DE8E";
shapes = (
{
closed = 1;
nodes = (
(435,-215,o),
(492,-177,o),
(505,-82,cs),
(562,324,ls),
(564,335,o),
(564,346,o),
(564,355,cs),
(564,446,o),
(503,504,o),
(397,504,cs),
(336,504,o),
(257,479,o),
(222,367,c),
(246,357,l),
(254,493,l),
(113,493,l),
(43,0,l),
(194,0,l),
(226,226,ls),
(240,325,o),
(280,373,o),
(348,373,cs),
(389,373,o),
(407,355,o),
(407,311,cs),
(407,304,o),
(406,289,o),
(404,276,cs),
(358,-53,ls),
(355,-77,o),
(339,-84,o),
(318,-84,cs),
(314,-84,o),
(305,-84,o),
(289,-80,c),
(281,-197,l),
(309,-208,o),
(336,-215,o),
(367,-215,cs)
);
}
);
width = 619;
},
{
guides = (
{
pos = (279,-204);
}
);
layerId = m003;
shapes = (
{
closed = 1;
nodes = (
(410,-212,o),
(451,-179,o),
(463,-97,cs),
(523,326,ls),
(525,337,o),
(525,348,o),
(525,358,cs),
(525,449,o),
(467,501,o),
(370,501,cs),
(295,501,o),
(228,469,o),
(190,389,c),
(205,369,l),
(222,493,l),
(138,493,l),
(68,0,l),
(153,0,l),
(187,240,ls),
(204,366,o),
(256,428,o),
(343,428,cs),
(418,428,o),
(437,382,o),
(437,334,cs),
(437,324,o),
(436,313,o),
(435,303,cs),
(381,-81,ls),
(375,-121,o),
(356,-139,o),
(325,-139,cs),
(318,-139,o),
(303,-137,o),
(285,-131,c),
(280,-198,l),
(305,-207,o),
(327,-212,o),
(352,-212,cs)
);
}
);
width = 605;
}
);
note = eng;
unicode = 331;
},
{
color = 1;
glyphname = o;
kernLeft = c;
kernRight = o;
lastChange = "2021-11-14 10:14:53 +0000";
layers = (
{
anchors = (
{
name = bottom;
pos = (257,0);
},
{
name = center;
pos = (292,247);
},
{
name = ogonek;
pos = (307,0);
},
{
name = top;
pos = (327,493);
},
{
name = topright;
pos = (515,493);
}
);
layerId = "F91D9E91-C1BC-4259-B0D8-112C0CBA2B8E";
shapes = (
{
closed = 1;
nodes = (
(418,-5,o),
(521,139,o),
(521,292,cs),
(521,415,o),
(446,498,o),
(327,498,cs),
(167,498,o),
(63,356,o),
(63,201,cs),
(63,78,o),
(138,-5,o),
(258,-5,cs)
);
},
{
closed = 1;
nodes = (
(150,13,o),
(83,88,o),
(83,202,cs),
(83,346,o),
(178,480,o),
(325,480,cs),
(434,480,o),
(501,405,o),
(501,292,cs),
(501,147,o),
(405,13,o),
(259,13,cs)
);
}
);
width = 584;
},
{
anchors = (
{
name = bottom;
pos = (250,0);
},
{
name = center;
pos = (285,247);
},
{
name = ogonek;
pos = (326,0);
},
{
name = top;
pos = (319,493);
},
{
name = topright;
pos = (467,493);
}
);
layerId = "957254E3-B7AD-4837-9092-D4428001DE8E";
shapes = (
{
closed = 1;
nodes = (
(414,-11,o),
(539,121,o),
(539,279,cs),
(539,413,o),
(449,504,o),
(314,504,cs),
(152,504,o),
(29,373,o),
(29,216,cs),
(29,81,o),
(120,-11,o),
(254,-11,cs)
);
},
{
closed = 1;
nodes = (
(206,121,o),
(179,172,o),
(179,227,cs),
(179,296,o),
(221,372,o),
(301,372,cs),
(363,372,o),
(389,323,o),
(389,268,cs),
(389,199,o),
(346,121,o),
(268,121,cs)
);
}
);
width = 569;
},
{
anchors = (
{
name = bottom;
pos = (253,0);
},
{
name = center;
pos = (288,247);
},
{
name = ogonek;
pos = (316,0);
},
{
name = top;
pos = (322,493);
},
{
name = topright;
pos = (461,493);
}
);
layerId = m003;
shapes = (
{
closed = 1;
nodes = (
(415,-8,o),
(529,129,o),
(529,287,cs),
(529,414,o),
(446,501,o),
(319,501,cs),
(157,501,o),
(45,362,o),
(45,208,cs),
(45,80,o),
(129,-8,o),
(256,-8,cs)
);
},
{
closed = 1;
nodes = (
(176,67,o),
(128,120,o),
(128,205,cs),
(128,311,o),
(193,427,o),
(317,427,cs),
(398,427,o),
(446,374,o),
(446,289,cs),
(446,178,o),
(377,67,o),
(258,67,cs)
);
}
);
width = 576;
}
);
note = o;
unicode = 111;
},
{
color = 1;
glyphname = p;
kernLeft = m;
kernRight = p;
lastChange = "2021-11-14 10:14:53 +0000";
layers = (
{
anchors = (
{
name = bottom;
pos = (37,-204);
},
{
name = bottomleft;
pos = (-53,0);
},
{
name = center;
pos = (86,-115);
},
{
name = top;
pos = (331,493);
}
);
guides = (
{
pos = (223,-204);
}
);
layerId = "F91D9E91-C1BC-4259-B0D8-112C0CBA2B8E";
shapes = (
{
closed = 1;
nodes = (
(47,-204,l),
(98,169,l),
(94,165,l),
(106,65,o),
(177,-5,o),
(281,-5,cs),
(429,-5,o),
(544,135,o),
(544,287,cs),
(544,410,o),
(466,498,o),
(350,498,cs),
(247,498,o),
(157,430,o),
(116,327,c),
(121,323,l),
(145,493,l),
(125,493,l),
(27,-204,l)
);
},
{
closed = 1;
nodes = (
(176,14,o),
(106,92,o),
(106,204,cs),
(106,346,o),
(209,479,o),
(347,479,cs),
(453,479,o),
(524,398,o),
(524,286,cs),
(524,149,o),
(421,14,o),
(280,14,cs)
);
}
);
width = 607;
},
{
anchors = (
{
name = bottom;
pos = (66,-204);
},
{
name = bottomleft;
pos = (-118,0);
},
{
name = center;
pos = (106,-96);
},
{
name = top;
pos = (310,493);
}
);
guides = (
{
pos = (284,-204);
}
);
layerId = "957254E3-B7AD-4837-9092-D4428001DE8E";
shapes = (
{
closed = 1;
nodes = (
(141,-204,l),
(186,124,l),
(163,150,l),
(164,33,o),
(233,-11,o),
(306,-11,cs),
(451,-11,o),
(538,140,o),
(538,294,cs),
(538,418,o),
(477,504,o),
(362,504,cs),
(306,504,o),
(231,484,o),
(186,345,c),
(223,371,l),
(229,493,l),
(89,493,l),
(-9,-204,l)
);
},
{
closed = 1;
nodes = (
(218,127,o),
(188,162,o),
(188,223,cs),
(188,311,o),
(234,366,o),
(303,366,cs),
(356,366,o),
(386,332,o),
(386,270,cs),
(386,181,o),
(340,127,o),
(271,127,cs)
);
}
);
width = 570;
},
{
anchors = (
{
name = bottom;
pos = (51,-204);
},
{
name = bottomleft;
pos = (-85,0);
},
{
name = center;
pos = (98,-115);
},
{
name = top;
pos = (328,493);
}
);
guides = (
{
pos = (240,-204);
}
);
layerId = m003;
shapes = (
{
closed = 1;
nodes = (
(93,-204,l),
(141,147,l),
(115,126,l),
(126,49,o),
(187,-8,o),
(283,-8,cs),
(435,-8,o),
(540,133,o),
(540,288,cs),
(540,412,o),
(466,501,o),
(345,501,cs),
(253,501,o),
(183,453,o),
(145,367,c),
(171,346,l),
(191,493,l),
(107,493,l),
(9,-204,l)
);
},
{
closed = 1;
nodes = (
(194,69,o),
(146,125,o),
(146,208,cs),
(146,314,o),
(216,423,o),
(329,423,cs),
(407,423,o),
(456,367,o),
(456,283,cs),
(456,175,o),
(382,69,o),
(270,69,cs)
);
}
);
width = 587;
}
);
note = p;
unicode = 112;
},
{
color = 1;
glyphname = thorn;
kernLeft = b;
kernRight = o;
lastChange = "2021-11-14 10:14:53 +0000";
layers = (
{
anchors = (
{
name = bottom;
pos = (284,0);
},
{
name = top;
pos = (354,493);
}
);
guides = (
{
pos = (414,-204);
}
);
layerId = "F91D9E91-C1BC-4259-B0D8-112C0CBA2B8E";
shapes = (
{
closed = 1;
nodes = (
(78,-204,l),
(129,169,l),
(126,165,l),
(138,64,o),
(212,-5,o),
(314,-5,cs),
(468,-5,o),
(558,150,o),
(558,296,cs),
(558,413,o),
(496,498,o),
(383,498,cs),
(282,498,o),
(189,430,o),
(149,327,c),
(152,324,l),
(204,697,l),
(184,697,l),
(58,-204,l)
);
},
{
closed = 1;
nodes = (
(206,13,o),
(137,93,o),
(137,203,cs),
(137,345,o),
(239,480,o),
(379,480,cs),
(482,480,o),
(538,404,o),
(538,296,cs),
(538,161,o),
(458,13,o),
(312,13,cs)
);
}
);
width = 637;
},
{
anchors = (
{
name = bottom;
pos = (263,0);
},
{
name = top;
pos = (333,493);
}
);
guides = (
{
pos = (317,-204);
}
);
layerId = "957254E3-B7AD-4837-9092-D4428001DE8E";
shapes = (
{
closed = 1;
nodes = (
(167,-204,l),
(211,124,l),
(181,86,l),
(190,31,o),
(261,-11,o),
(331,-11,cs),
(476,-11,o),
(563,139,o),
(563,295,cs),
(563,416,o),
(505,504,o),
(387,504,cs),
(331,504,o),
(255,483,o),
(221,409,c),
(249,371,l),
(293,697,l),
(142,697,l),
(16,-204,l)
);
},
{
closed = 1;
nodes = (
(232,120,o),
(213,156,o),
(213,205,cs),
(213,291,o),
(256,372,o),
(342,372,cs),
(392,372,o),
(415,339,o),
(415,280,cs),
(415,231,o),
(390,120,o),
(291,120,cs)
);
}
);
width = 601;
},
{
anchors = (
{
name = bottom;
pos = (277,0);
},
{
name = top;
pos = (347,493);
}
);
guides = (
{
pos = (279,-204);
}
);
layerId = m003;
shapes = (
{
closed = 1;
nodes = (
(125,-204,l),
(174,147,l),
(157,126,l),
(168,47,o),
(241,-8,o),
(326,-8,cs),
(476,-8,o),
(564,145,o),
(564,294,cs),
(564,414,o),
(504,501,o),
(389,501,cs),
(309,501,o),
(226,456,o),
(188,368,c),
(203,347,l),
(252,697,l),
(167,697,l),
(41,-204,l)
);
},
{
closed = 1;
nodes = (
(222,66,o),
(177,125,o),
(177,206,cs),
(177,310,o),
(244,427,o),
(365,427,cs),
(444,427,o),
(480,377,o),
(480,296,cs),
(480,185,o),
(426,66,o),
(305,66,cs)
);
}
);
width = 627;
}
);
note = thorn;
unicode = 254;
},
{
color = 1;
glyphname = q;
kernLeft = c;
kernRight = i;
lastChange = "2021-11-14 10:14:53 +0000";
layers = (
{
anchors = (
{
name = bottom;
pos = (443,-204);
},
{
name = bottomright;
pos = (589,0);
},
{
name = center;
pos = (419,-115);
},
{
name = top;
pos = (345,493);
}
);
guides = (
{
pos = (239,-204);
}
);
layerId = "F91D9E91-C1BC-4259-B0D8-112C0CBA2B8E";
shapes = (
{
closed = 1;
nodes = (
(453,-204,l),
(551,493,l),
(531,493,l),
(507,323,l),
(512,327,l),
(500,429,o),
(429,498,o),
(325,498,cs),
(176,498,o),
(62,355,o),
(62,205,cs),
(62,82,o),
(142,-5,o),
(256,-5,cs),
(359,-5,o),
(450,64,o),
(489,164,c),
(485,169,l),
(433,-204,l)
);
},
{
closed = 1;
nodes = (
(153,14,o),
(82,94,o),
(82,206,cs),
(82,344,o),
(187,479,o),
(326,479,cs),
(430,479,o),
(500,399,o),
(500,287,cs),
(500,148,o),
(398,14,o),
(259,14,cs)
);
}
);
width = 606;
},
{
anchors = (
{
name = bottom;
pos = (378,-204);
},
{
name = bottomright;
pos = (618,0);
},
{
name = center;
pos = (368,-96);
},
{
name = top;
pos = (330,493);
}
);
guides = (
{
pos = (304,-204);
}
);
layerId = "957254E3-B7AD-4837-9092-D4428001DE8E";
shapes = (
{
closed = 1;
nodes = (
(453,-204,l),
(551,493,l),
(411,493,l),
(385,371,l),
(410,337,l),
(403,476,o),
(328,504,o),
(264,504,cs),
(112,504,o),
(32,347,o),
(32,197,cs),
(32,63,o),
(107,-11,o),
(208,-11,cs),
(273,-11,o),
(346,25,o),
(379,142,c),
(348,124,l),
(303,-204,l)
);
},
{
closed = 1;
nodes = (
(214,127,o),
(184,161,o),
(184,222,cs),
(184,312,o),
(230,366,o),
(299,366,cs),
(352,366,o),
(382,331,o),
(382,270,cs),
(382,182,o),
(336,127,o),
(267,127,cs)
);
}
);
width = 570;
},
{
anchors = (
{
name = bottom;
pos = (410,-204);
},
{
name = bottomright;
pos = (602,0);
},
{
name = center;
pos = (387,-115);
},
{
name = top;
pos = (328,493);
}
);
guides = (
{
pos = (256,-204);
}
);
layerId = m003;
shapes = (
{
closed = 1;
nodes = (
(452,-204,l),
(550,493,l),
(466,493,l),
(446,346,l),
(474,363,l),
(460,449,o),
(400,501,o),
(304,501,cs),
(147,501,o),
(46,350,o),
(46,203,cs),
(46,73,o),
(129,-8,o),
(242,-8,cs),
(334,-8,o),
(406,45,o),
(438,122,c),
(416,147,l),
(368,-204,l)
);
},
{
closed = 1;
nodes = (
(180,69,o),
(131,125,o),
(131,209,cs),
(131,316,o),
(204,423,o),
(316,423,cs),
(393,423,o),
(441,367,o),
(441,284,cs),
(441,176,o),
(370,69,o),
(257,69,cs)
);
}
);
width = 587;
}
);
note = q;
unicode = 113;
},
{
color = 1;
glyphname = r;
kernLeft = m;
kernRight = r;
lastChange = "2021-11-14 10:14:53 +0000";
layers = (
{
anchors = (
{
name = bottom;
pos = (143,0);
},
{
name = top;
pos = (213,493);
}
);
layerId = "F91D9E91-C1BC-4259-B0D8-112C0CBA2B8E";
shapes = (
{
closed = 1;
nodes = (
(73,0,l),
(115,303,ls),
(126,383,o),
(199,479,o),
(307,479,cs),
(327,479,o),
(349,474,o),
(364,467,c),
(376,485,l),
(357,494,o),
(333,498,o),
(311,498,cs),
(247,498,o),
(159,460,o),
(121,365,c),
(125,364,l),
(143,493,l),
(123,493,l),
(53,0,l)
);
}
);
width = 376;
},
{
anchors = (
{
name = bottom;
pos = (165,0);
},
{
name = top;
pos = (235,493);
}
);
layerId = "957254E3-B7AD-4837-9092-D4428001DE8E";
shapes = (
{
closed = 1;
nodes = (
(170,0,l),
(198,195,ls),
(210,278,o),
(237,354,o),
(316,354,cs),
(336,354,o),
(361,347,o),
(373,338,c),
(458,470,l),
(425,493,o),
(396,504,o),
(358,504,cs),
(291,504,o),
(218,446,o),
(204,362,c),
(222,358,l),
(231,493,l),
(89,493,l),
(19,0,l)
);
}
);
width = 439;
},
{
anchors = (
{
name = bottom;
pos = (154,0);
},
{
name = top;
pos = (223,493);
}
);
layerId = m003;
shapes = (
{
closed = 1;
nodes = (
(121,0,l),
(153,228,ls),
(168,332,o),
(208,417,o),
(312,417,cs),
(330,417,o),
(353,412,o),
(368,404,c),
(417,477,l),
(389,494,o),
(363,501,o),
(334,501,cs),
(266,501,o),
(173,451,o),
(147,363,c),
(172,361,l),
(191,493,l),
(106,493,l),
(36,0,l)
);
}
);
width = 406;
}
);
note = r;
unicode = 114;
},
{
color = 1;
glyphname = s;
kernLeft = s;
kernRight = s;
lastChange = "2021-11-14 10:14:53 +0000";
layers = (
{
anchors = (
{
name = bottom;
pos = (191,0);
},
{
name = top;
pos = (261,493);
}
);
layerId = "F91D9E91-C1BC-4259-B0D8-112C0CBA2B8E";
shapes = (
{
closed = 1;
nodes = (
(313,-5,o),
(387,56,o),
(387,150,cs),
(387,235,o),
(306,255,o),
(230,273,cs),
(162,290,o),
(111,307,o),
(111,363,cs),
(111,431,o),
(174,481,o),
(257,481,cs),
(321,481,o),
(368,453,o),
(390,392,c),
(406,400,l),
(385,465,o),
(328,498,o),
(258,498,cs),
(162,498,o),
(92,440,o),
(92,362,cs),
(92,295,o),
(150,274,o),
(224,255,cs),
(295,237,o),
(366,220,o),
(366,147,cs),
(366,62,o),
(295,13,o),
(206,13,cs),
(119,13,o),
(59,57,o),
(44,124,c),
(28,114,l),
(45,40,o),
(113,-5,o),
(205,-5,cs)
);
}
);
width = 467;
},
{
anchors = (
{
name = bottom;
pos = (207,0);
},
{
name = top;
pos = (277,493);
}
);
layerId = "957254E3-B7AD-4837-9092-D4428001DE8E";
shapes = (
{
closed = 1;
nodes = (
(346,-11,o),
(435,61,o),
(435,166,cs),
(435,268,o),
(345,298,o),
(263,319,cs),
(216,331,o),
(200,339,o),
(200,355,cs),
(200,377,o),
(230,388,o),
(260,388,cs),
(294,388,o),
(327,374,o),
(347,344,c),
(448,411,l),
(416,468,o),
(351,504,o),
(263,504,cs),
(141,504,o),
(56,435,o),
(56,340,cs),
(56,236,o),
(156,209,o),
(217,190,cs),
(252,179,o),
(285,169,o),
(285,143,cs),
(285,122,o),
(265,104,o),
(220,104,cs),
(177,104,o),
(133,130,o),
(105,171,c),
(-2,89,l),
(30,53,o),
(94,-11,o),
(213,-11,cs)
);
}
);
width = 478;
},
{
anchors = (
{
name = bottom;
pos = (202,0);
},
{
name = top;
pos = (272,493);
}
);
layerId = m003;
shapes = (
{
closed = 1;
nodes = (
(328,-8,o),
(414,61,o),
(414,164,cs),
(414,257,o),
(326,279,o),
(249,298,cs),
(184,314,o),
(156,328,o),
(156,360,cs),
(156,405,o),
(204,433,o),
(262,433,cs),
(312,433,o),
(353,415,o),
(373,369,c),
(430,405,l),
(403,467,o),
(341,501,o),
(265,501,cs),
(155,501,o),
(77,438,o),
(77,349,cs),
(77,269,o),
(151,245,o),
(221,226,cs),
(292,207,o),
(330,192,o),
(330,150,cs),
(330,97,o),
(275,63,o),
(210,63,cs),
(143,63,o),
(98,96,o),
(80,147,c),
(16,102,l),
(42,45,o),
(105,-8,o),
(209,-8,cs)
);
}
);
width = 475;
}
);
note = s;
unicode = 115;
},
{
color = 1;
glyphname = germandbls;
kernLeft = germandbls;
kernRight = germandbls;
lastChange = "2021-11-14 10:14:53 +0000";
layers = (
{
layerId = "F91D9E91-C1BC-4259-B0D8-112C0CBA2B8E";
shapes = (
{
closed = 1;
nodes = (
(465,-5,o),
(541,52,o),
(541,149,cs),
(541,231,o),
(469,252,o),
(386,270,cs),
(318,285,o),
(255,300,o),
(255,364,cs),
(255,438,o),
(303,466,o),
(391,487,cs),
(468,505,o),
(514,527,o),
(514,593,cs),
(514,657,o),
(448,702,o),
(358,702,cs),
(183,702,o),
(138,597,o),
(123,489,cs),
(54,0,l),
(74,0,l),
(144,488,ls),
(156,579,o),
(190,683,o),
(359,683,cs),
(434,683,o),
(495,645,o),
(495,591,cs),
(495,535,o),
(443,518,o),
(383,504,cs),
(286,481,o),
(236,447,o),
(236,364,cs),
(236,287,o),
(309,269,o),
(380,253,cs),
(457,236,o),
(521,218,o),
(521,149,cs),
(521,65,o),
(456,13,o),
(360,13,cs),
(275,13,o),
(214,59,o),
(201,124,c),
(183,117,l),
(197,45,o),
(266,-5,o),
(359,-5,cs)
);
}
);
width = 609;
},
{
layerId = "957254E3-B7AD-4837-9092-D4428001DE8E";
shapes = (
{
closed = 1;
nodes = (
(523,-11,o),
(625,52,o),
(625,171,cs),
(625,280,o),
(520,310,o),
(462,321,cs),
(435,326,o),
(422,330,o),
(422,337,cs),
(422,345,o),
(430,349,o),
(469,364,cs),
(531,388,o),
(635,433,o),
(635,556,cs),
(635,658,o),
(542,707,o),
(401,707,cs),
(169,707,o),
(100,575,o),
(80,431,cs),
(19,0,l),
(176,0,l),
(236,423,ls),
(243,473,o),
(255,566,o),
(409,566,cs),
(444,566,o),
(486,559,o),
(486,531,cs),
(486,515,o),
(474,501,o),
(421,481,cs),
(319,443,o),
(275,396,o),
(275,328,cs),
(275,239,o),
(354,215,o),
(413,197,cs),
(448,186,o),
(475,176,o),
(475,153,cs),
(475,134,o),
(457,114,o),
(419,114,cs),
(354,114,o),
(340,154,o),
(333,181,c),
(209,136,l),
(222,60,o),
(295,-11,o),
(417,-11,cs)
);
}
);
width = 663;
},
{
layerId = m003;
shapes = (
{
closed = 1;
nodes = (
(483,-8,o),
(583,48,o),
(583,155,cs),
(583,255,o),
(500,276,o),
(431,294,cs),
(378,307,o),
(338,312,o),
(338,357,cs),
(338,398,o),
(388,414,o),
(436,431,cs),
(501,454,o),
(574,480,o),
(574,575,cs),
(574,657,o),
(495,705,o),
(379,705,cs),
(175,705,o),
(119,583,o),
(102,461,cs),
(37,0,l),
(125,0,l),
(189,456,ls),
(197,515,o),
(216,626,o),
(384,626,cs),
(441,626,o),
(490,603,o),
(490,562,cs),
(490,525,o),
(445,512,o),
(400,498,cs),
(313,471,o),
(255,433,o),
(255,354,cs),
(255,265,o),
(328,245,o),
(395,226,cs),
(449,211,o),
(499,197,o),
(499,152,cs),
(499,100,o),
(447,63,o),
(383,63,cs),
(314,63,o),
(278,101,o),
(266,152,c),
(196,126,l),
(210,51,o),
(283,-8,o),
(383,-8,cs)
);
}
);
width = 634;
}
);
unicode = 223;
},
{
color = 1;
glyphname = t;
kernLeft = t;
kernRight = t;
lastChange = "2021-11-14 10:14:53 +0000";
layers = (
{
anchors = (
{
name = bottom;
pos = (177,0);
},
{
name = center;
pos = (182,247);
},
{
name = top;
pos = (226,493);
},
{
name = topright;
pos = (372,571);
}
);
layerId = "F91D9E91-C1BC-4259-B0D8-112C0CBA2B8E";
shapes = (
{
closed = 1;
nodes = (
(229,-5,o),
(247,-3,o),
(267,4,c),
(270,23,l),
(249,14,o),
(232,13,o),
(216,13,cs),
(171,13,o),
(153,34,o),
(153,73,cs),
(153,80,o),
(154,90,o),
(155,97,cs),
(235,668,l),
(213,653,l),
(135,95,ls),
(134,86,o),
(133,77,o),
(133,69,cs),
(133,21,o),
(155,-5,o),
(212,-5,cs)
);
},
{
closed = 1;
nodes = (
(333,476,l),
(336,493,l),
(69,493,l),
(66,476,l)
);
}
);
width = 345;
},
{
anchors = (
{
name = bottom;
pos = (211,0);
},
{
name = center;
pos = (200,248);
},
{
name = top;
pos = (247,493);
},
{
name = topright;
pos = (430,562);
}
);
background = {
shapes = (
{
closed = 1;
nodes = (
(306,-11,o),
(335,-6,o),
(364,5,c),
(364,120,l),
(340,114,o),
(324,111,o),
(311,111,cs),
(274,111,o),
(261,136,o),
(261,211,cs),
(261,677,l),
(109,596,l),
(109,157,ls),
(109,31,o),
(189,-11,o),
(274,-11,cs)
);
},
{
closed = 1;
nodes = (
(364,376,l),
(364,493,l),
(47,493,l),
(47,376,l)
);
}
);
};
layerId = "957254E3-B7AD-4837-9092-D4428001DE8E";
shapes = (
{
closed = 1;
nodes = (
(266,-11,o),
(294,-8,o),
(323,2,c),
(340,122,l),
(319,116,o),
(303,112,o),
(284,112,cs),
(253,112,o),
(243,125,o),
(243,151,cs),
(243,166,o),
(245,182,o),
(247,196,cs),
(314,677,l),
(150,596,l),
(92,181,ls),
(88,152,o),
(87,139,o),
(87,126,cs),
(87,26,o),
(159,-11,o),
(239,-11,cs)
);
},
{
closed = 1;
nodes = (
(376,376,l),
(392,493,l),
(55,493,l),
(38,376,l)
);
}
);
width = 391;
},
{
anchors = (
{
name = bottom;
pos = (174,0);
},
{
name = center;
pos = (180,247);
},
{
name = top;
pos = (232,493);
},
{
name = topright;
pos = (396,567);
}
);
layerId = m003;
shapes = (
{
closed = 1;
nodes = (
(238,-8,o),
(264,-4,o),
(290,3,c),
(300,73,l),
(277,65,o),
(256,62,o),
(240,62,cs),
(206,62,o),
(194,80,o),
(194,116,cs),
(194,127,o),
(195,136,o),
(196,146,cs),
(270,673,l),
(178,625,l),
(108,128,ls),
(107,118,o),
(106,108,o),
(106,99,cs),
(106,25,o),
(153,-8,o),
(217,-8,cs)
);
},
{
closed = 1;
nodes = (
(350,427,l),
(359,493,l),
(58,493,l),
(48,427,l)
);
}
);
width = 363;
}
);
metricLeft = "=f";
note = t;
unicode = 116;
},
{
glyphname = tbar;
kernLeft = t;
kernRight = t;
lastChange = "2021-11-14 10:14:53 +0000";
layers = (
{
anchors = (
{
name = bottom;
pos = (183,17);
},
{
name = center;
pos = (188,230);
},
{
name = top;
pos = (230,493);
},
{
name = topright;
pos = (376,571);
}
);
layerId = "F91D9E91-C1BC-4259-B0D8-112C0CBA2B8E";
shapes = (
{
closed = 1;
nodes = (
(227,-5,o),
(249,-1,o),
(272,5,c),
(274,23,l),
(250,16,o),
(232,13,o),
(212,13,cs),
(175,13,o),
(157,34,o),
(157,73,cs),
(157,80,o),
(158,89,o),
(159,97,cs),
(239,668,l),
(218,653,l),
(139,95,ls),
(138,86,o),
(137,77,o),
(137,69,cs),
(137,21,o),
(160,-5,o),
(208,-5,cs)
);
},
{
closed = 1;
nodes = (
(304,239,l),
(307,255,l),
(40,255,l),
(37,239,l)
);
},
{
closed = 1;
nodes = (
(338,476,l),
(341,493,l),
(73,493,l),
(70,476,l)
);
}
);
width = 368;
},
{
anchors = (
{
name = bottom;
pos = (214,0);
},
{
name = center;
pos = (203,248);
},
{
name = top;
pos = (250,493);
},
{
name = topright;
pos = (433,562);
}
);
layerId = "957254E3-B7AD-4837-9092-D4428001DE8E";
shapes = (
{
closed = 1;
nodes = (
(270,-11,o),
(299,-8,o),
(330,3,c),
(338,121,l),
(319,116,o),
(302,112,o),
(285,112,cs),
(256,112,o),
(246,125,o),
(246,155,cs),
(246,163,o),
(247,175,o),
(250,196,cs),
(317,677,l),
(153,596,l),
(93,161,ls),
(91,147,o),
(90,135,o),
(90,126,cs),
(90,26,o),
(162,-11,o),
(242,-11,cs)
);
},
{
closed = 1;
nodes = (
(353,198,l),
(367,298,l),
(30,298,l),
(16,198,l)
);
},
{
closed = 1;
nodes = (
(378,376,l),
(395,493,l),
(58,493,l),
(41,376,l)
);
}
);
width = 395;
},
{
anchors = (
{
name = bottom;
pos = (183,131);
},
{
name = center;
pos = (191,117);
},
{
name = top;
pos = (230,493);
},
{
name = topright;
pos = (394,567);
}
);
layerId = m003;
shapes = (
{
closed = 1;
nodes = (
(237,-8,o),
(264,-4,o),
(291,4,c),
(296,72,l),
(274,65,o),
(254,62,o),
(238,62,cs),
(204,62,o),
(192,80,o),
(192,116,cs),
(192,125,o),
(193,135,o),
(194,146,cs),
(268,673,l),
(176,625,l),
(106,128,ls),
(105,118,o),
(104,108,o),
(104,99,cs),
(104,25,o),
(151,-8,o),
(215,-8,cs)
);
},
{
closed = 1;
nodes = (
(319,219,l),
(327,277,l),
(25,277,l),
(17,219,l)
);
},
{
closed = 1;
nodes = (
(348,427,l),
(357,493,l),
(56,493,l),
(46,427,l)
);
}
);
width = 368;
}
);
unicode = 359;
},
{
color = 1;
glyphname = u;
kernLeft = u;
kernRight = u;
lastChange = "2021-11-14 10:14:53 +0000";
layers = (
{
anchors = (
{
name = bottom;
pos = (226,0);
},
{
name = ogonek;
pos = (393,0);
},
{
name = top;
pos = (290,493);
},
{
name = topright;
pos = (431,493);
}
);
layerId = "F91D9E91-C1BC-4259-B0D8-112C0CBA2B8E";
shapes = (
{
closed = 1;
nodes = (
(290,-5,o),
(359,34,o),
(396,133,c),
(392,134,l),
(373,0,l),
(393,0,l),
(463,493,l),
(443,493,l),
(406,233,ls),
(384,81,o),
(313,13,o),
(212,13,cs),
(133,13,o),
(91,55,o),
(91,148,cs),
(91,159,o),
(92,182,o),
(95,201,cs),
(137,493,l),
(117,493,l),
(75,196,ls),
(72,175,o),
(71,156,o),
(71,143,cs),
(71,40,o),
(123,-5,o),
(211,-5,cs)
);
}
);
width = 517;
},
{
anchors = (
{
name = bottom;
pos = (255,0);
},
{
name = ogonek;
pos = (486,0);
},
{
name = top;
pos = (318,493);
},
{
name = topright;
pos = (526,493);
}
);
background = {
shapes = (
{
closed = 1;
nodes = (
(269,-11,o),
(344,9,o),
(388,148,c),
(352,122,l),
(346,0,l),
(486,0,l),
(555,493,l),
(416,493,l),
(389,369,l),
(412,343,l),
(421,460,o),
(352,504,o),
(279,504,cs),
(134,504,o),
(37,353,o),
(37,199,cs),
(37,75,o),
(98,-11,o),
(213,-11,cs)
);
},
{
closed = 1;
nodes = (
(214,127,o),
(188,157,o),
(188,210,cs),
(188,283,o),
(227,366,o),
(313,366,cs),
(362,366,o),
(388,336,o),
(388,283,cs),
(388,212,o),
(349,127,o),
(263,127,cs)
);
}
);
};
layerId = "957254E3-B7AD-4837-9092-D4428001DE8E";
shapes = (
{
closed = 1;
nodes = (
(263,-11,o),
(321,9,o),
(364,87,c),
(349,108,l),
(346,0,l),
(486,0,l),
(555,493,l),
(404,493,l),
(382,334,ls),
(366,217,o),
(347,120,o),
(253,120,cs),
(202,120,o),
(191,145,o),
(191,178,cs),
(191,187,o),
(192,202,o),
(194,215,cs),
(233,493,l),
(82,493,l),
(40,192,ls),
(38,177,o),
(37,164,o),
(37,149,cs),
(37,55,o),
(86,-11,o),
(204,-11,cs)
);
}
);
width = 576;
},
{
anchors = (
{
name = bottom;
pos = (240,0);
},
{
name = ogonek;
pos = (438,0);
},
{
name = top;
pos = (303,493);
},
{
name = topright;
pos = (467,493);
}
);
layerId = m003;
shapes = (
{
closed = 1;
nodes = (
(285,-8,o),
(353,28,o),
(391,103,c),
(370,105,l),
(355,0,l),
(439,0,l),
(509,493,l),
(424,493,l),
(390,250,ls),
(372,124,o),
(316,66,o),
(231,66,cs),
(172,66,o),
(142,96,o),
(142,165,cs),
(142,182,o),
(143,193,o),
(145,209,cs),
(185,493,l),
(100,493,l),
(57,183,ls),
(55,168,o),
(54,155,o),
(54,141,cs),
(54,44,o),
(110,-8,o),
(207,-8,cs)
);
}
);
width = 547;
}
);
note = u;
unicode = 117;
},
{
color = 1;
glyphname = v;
kernLeft = v;
kernRight = v;
lastChange = "2021-11-14 10:14:53 +0000";
layers = (
{
anchors = (
{
name = bottom;
pos = (218,0);
},
{
name = top;
pos = (288,493);
}
);
layerId = "F91D9E91-C1BC-4259-B0D8-112C0CBA2B8E";
shapes = (
{
closed = 1;
nodes = (
(228,0,l),
(500,493,l),
(476,493,l),
(220,23,l),
(98,493,l),
(75,493,l),
(207,0,l)
);
}
);
width = 506;
},
{
anchors = (
{
name = bottom;
pos = (238,0);
},
{
name = top;
pos = (308,493);
}
);
layerId = "957254E3-B7AD-4837-9092-D4428001DE8E";
shapes = (
{
closed = 1;
nodes = (
(301,0,l),
(570,493,l),
(405,493,l),
(263,197,l),
(209,493,l),
(46,493,l),
(178,0,l)
);
}
);
width = 544;
},
{
anchors = (
{
name = bottom;
pos = (226,0);
},
{
name = top;
pos = (295,493);
}
);
layerId = m003;
shapes = (
{
closed = 1;
nodes = (
(262,0,l),
(532,493,l),
(439,493,l),
(239,109,l),
(150,493,l),
(58,493,l),
(191,0,l)
);
}
);
width = 521;
}
);
note = v;
unicode = 118;
},
{
color = 1;
glyphname = w;
kernLeft = w;
kernRight = w;
lastChange = "2021-11-14 10:14:53 +0000";
layers = (
{
anchors = (
{
name = bottom;
pos = (337,0);
},
{
name = top;
pos = (407,493);
}
);
layerId = "F91D9E91-C1BC-4259-B0D8-112C0CBA2B8E";
shapes = (
{
closed = 1;
nodes = (
(172,0,l),
(404,469,l),
(502,0,l),
(527,0,l),
(733,493,l),
(711,493,l),
(518,28,l),
(420,493,l),
(396,493,l),
(165,27,l),
(103,493,l),
(81,493,l),
(148,0,l)
);
}
);
width = 744;
},
{
anchors = (
{
name = bottom;
pos = (345,0);
},
{
name = top;
pos = (414,493);
}
);
layerId = "957254E3-B7AD-4837-9092-D4428001DE8E";
shapes = (
{
closed = 1;
nodes = (
(270,0,l),
(385,278,l),
(422,0,l),
(555,0,l),
(781,493,l),
(618,493,l),
(509,234,l),
(475,493,l),
(348,493,l),
(240,232,l),
(206,493,l),
(48,493,l),
(135,0,l)
);
}
);
width = 759;
},
{
anchors = (
{
name = bottom;
pos = (339,0);
},
{
name = top;
pos = (409,493);
}
);
layerId = m003;
shapes = (
{
closed = 1;
nodes = (
(218,0,l),
(393,375,l),
(461,0,l),
(539,0,l),
(755,493,l),
(664,493,l),
(511,130,l),
(445,493,l),
(370,493,l),
(200,128,l),
(152,493,l),
(63,493,l),
(140,0,l)
);
}
);
width = 748;
}
);
note = w;
unicode = 119;
},
{
color = 1;
glyphname = x;
kernLeft = x;
kernRight = x;
lastChange = "2021-11-14 10:14:53 +0000";
layers = (
{
anchors = (
{
name = bottom;
pos = (212,0);
},
{
name = top;
pos = (282,493);
}
);
layerId = "F91D9E91-C1BC-4259-B0D8-112C0CBA2B8E";
shapes = (
{
closed = 1;
nodes = (
(34,0,l),
(245,231,l),
(391,0,l),
(416,0,l),
(259,246,l),
(485,493,l),
(460,493,l),
(248,262,l),
(103,493,l),
(78,493,l),
(234,246,l),
(8,0,l)
);
}
);
width = 493;
},
{
anchors = (
{
name = bottom;
pos = (243,0);
},
{
name = top;
pos = (313,493);
}
);
layerId = "957254E3-B7AD-4837-9092-D4428001DE8E";
shapes = (
{
closed = 1;
nodes = (
(161,0,l),
(268,151,l),
(334,0,l),
(505,0,l),
(377,249,l),
(577,493,l),
(394,493,l),
(289,346,l),
(223,493,l),
(51,493,l),
(177,249,l),
(-21,0,l)
);
}
);
width = 556;
},
{
anchors = (
{
name = bottom;
pos = (225,0);
},
{
name = top;
pos = (294,493);
}
);
layerId = m003;
shapes = (
{
closed = 1;
nodes = (
(95,0,l),
(253,189,l),
(357,0,l),
(457,0,l),
(315,248,l),
(528,493,l),
(424,493,l),
(266,306,l),
(163,493,l),
(63,493,l),
(204,248,l),
(-9,0,l)
);
}
);
width = 520;
}
);
note = x;
unicode = 120;
},
{
color = 1;
glyphname = y;
kernLeft = v;
kernRight = v;
lastChange = "2021-11-14 10:14:53 +0000";
layers = (
{
anchors = (
{
name = bottom;
pos = (365,-30);
},
{
name = top;
pos = (288,493);
}
);
guides = (
{
pos = (400,-204);
}
);
layerId = "F91D9E91-C1BC-4259-B0D8-112C0CBA2B8E";
shapes = (
{
closed = 1;
nodes = (
(117,-203,l),
(500,493,l),
(476,493,l),
(220,23,l),
(98,493,l),
(75,493,l),
(207,1,l),
(95,-203,l)
);
}
);
width = 506;
},
{
anchors = (
{
name = bottom;
pos = (398,-31);
},
{
name = top;
pos = (308,493);
}
);
guides = (
{
pos = (314,-204);
}
);
layerId = "957254E3-B7AD-4837-9092-D4428001DE8E";
shapes = (
{
closed = 1;
nodes = (
(189,-204,l),
(570,493,l),
(405,493,l),
(263,197,l),
(209,493,l),
(46,493,l),
(164,47,l),
(23,-204,l)
);
}
);
width = 544;
},
{
anchors = (
{
name = bottom;
pos = (379,-30);
},
{
name = top;
pos = (295,493);
}
);
guides = (
{
pos = (255,-204);
}
);
layerId = m003;
shapes = (
{
closed = 1;
nodes = (
(151,-203,l),
(532,493,l),
(439,493,l),
(239,109,l),
(150,493,l),
(58,493,l),
(184,24,l),
(57,-203,l)
);
}
);
width = 521;
}
);
metricLeft = "=v";
metricRight = "=v";
note = y;
unicode = 121;
},
{
color = 1;
glyphname = z;
kernLeft = z;
kernRight = z;
lastChange = "2021-11-14 10:14:53 +0000";
layers = (
{
anchors = (
{
name = bottom;
pos = (205,0);
},
{
name = center;
pos = (240,247);
},
{
name = top;
pos = (275,493);
}
);
layerId = "F91D9E91-C1BC-4259-B0D8-112C0CBA2B8E";
shapes = (
{
closed = 1;
nodes = (
(391,0,l),
(395,18,l),
(32,18,l),
(33,17,l),
(462,468,l),
(466,493,l),
(98,493,l),
(95,475,l),
(444,475,l),
(442,473,l),
(12,22,l),
(9,0,l)
);
}
);
width = 476;
},
{
anchors = (
{
name = bottom;
pos = (201,0);
},
{
name = center;
pos = (236,247);
},
{
name = top;
pos = (271,493);
}
);
layerId = "957254E3-B7AD-4837-9092-D4428001DE8E";
shapes = (
{
closed = 1;
nodes = (
(399,0,l),
(417,126,l),
(159,126,l),
(169,76,l),
(454,388,l),
(468,493,l),
(77,493,l),
(59,367,l),
(311,367,l),
(301,409,l),
(11,98,l),
(-2,0,l)
);
}
);
width = 470;
},
{
anchors = (
{
name = bottom;
pos = (202,0);
},
{
name = center;
pos = (237,247);
},
{
name = top;
pos = (271,493);
}
);
layerId = m003;
shapes = (
{
closed = 1;
nodes = (
(394,0,l),
(404,72,l),
(93,72,l),
(98,46,l),
(457,429,l),
(465,493,l),
(86,493,l),
(76,422,l),
(377,422,l),
(371,441,l),
(10,60,l),
(2,0,l)
);
}
);
width = 472;
}
);
note = z;
unicode = 122;
},
{
color = 1;
glyphname = g.ss01;
kernLeft = c;
kernRight = g;
lastChange = "2021-11-14 10:14:54 +0000";
layers = (
{
anchors = (
{
name = bottom;
pos = (205,-209);
},
{
name = top;
pos = (302,493);
}
);
guides = (
{
pos = (405,-204);
}
);
layerId = "F91D9E91-C1BC-4259-B0D8-112C0CBA2B8E";
shapes = (
{
closed = 1;
nodes = (
(349,-209,o),
(440,-146,o),
(440,-43,cs),
(440,12,o),
(410,58,o),
(315,58,cs),
(201,58,ls),
(123,58,o),
(89,83,o),
(89,120,cs),
(89,158,o),
(109,185,o),
(149,217,c),
(139,232,l),
(94,195,o),
(71,163,o),
(71,118,cs),
(71,68,o),
(112,41,o),
(189,41,cs),
(311,41,ls),
(397,41,o),
(420,0,o),
(420,-44,cs),
(420,-138,o),
(337,-192,o),
(206,-192,cs),
(105,-192,o),
(28,-155,o),
(45,-41,cs),
(46,-34,l),
(138,51,l),
(128,59,l),
(28,-26,l),
(25,-43,o),
(23,-59,o),
(23,-73,cs),
(23,-162,o),
(89,-209,o),
(206,-209,cs)
);
},
{
closed = 1;
nodes = (
(359,180,o),
(444,254,o),
(444,360,cs),
(444,443,o),
(384,498,o),
(296,498,cs),
(189,498,o),
(101,420,o),
(101,314,cs),
(101,233,o),
(161,180,o),
(253,180,cs)
);
},
{
closed = 1;
nodes = (
(171,198,o),
(121,246,o),
(121,314,cs),
(121,410,o),
(199,480,o),
(295,480,cs),
(373,480,o),
(424,433,o),
(424,361,cs),
(424,266,o),
(349,198,o),
(253,198,cs)
);
},
{
closed = 1;
nodes = (
(518,498,l),
(509,512,l),
(412,432,l),
(424,421,l)
);
}
);
width = 537;
},
{
anchors = (
{
name = bottom;
pos = (221,-205);
},
{
name = top;
pos = (325,493);
}
);
guides = (
{
pos = (312,-204);
}
);
layerId = "957254E3-B7AD-4837-9092-D4428001DE8E";
shapes = (
{
closed = 1;
nodes = (
(382,-214,o),
(490,-161,o),
(490,-27,cs),
(490,52,o),
(439,93,o),
(338,93,cs),
(240,93,ls),
(190,93,o),
(147,89,o),
(147,122,cs),
(147,144,o),
(165,158,o),
(204,174,c),
(143,258,l),
(61,210,o),
(21,154,o),
(21,93,cs),
(21,1,o),
(120,-32,o),
(130,-32,cs),
(307,-32,ls),
(331,-32,o),
(343,-37,o),
(343,-54,cs),
(343,-85,o),
(308,-107,o),
(228,-107,cs),
(155,-107,o),
(132,-94,o),
(132,-67,cs),
(132,-60,l),
(173,-16,l),
(114,36,l),
(6,-14,l),
(-5,-35,o),
(-9,-57,o),
(-9,-80,cs),
(-9,-186,o),
(114,-214,o),
(227,-214,cs)
);
},
{
closed = 1;
nodes = (
(409,127,o),
(506,207,o),
(506,329,cs),
(506,437,o),
(418,504,o),
(311,504,cs),
(193,504,o),
(81,421,o),
(81,294,cs),
(81,196,o),
(157,127,o),
(279,127,cs)
);
},
{
closed = 1;
nodes = (
(245,245,o),
(230,269,o),
(230,296,cs),
(230,334,o),
(259,379,o),
(309,379,cs),
(343,379,o),
(359,356,o),
(359,329,cs),
(359,291,o),
(329,245,o),
(280,245,cs)
);
},
{
closed = 1;
nodes = (
(581,452,l),
(514,545,l),
(382,450,l),
(484,381,l)
);
}
);
width = 572;
},
{
anchors = (
{
name = bottom;
pos = (207,-207);
},
{
name = top;
pos = (308,493);
}
);
guides = (
{
pos = (253,-204);
}
);
layerId = m003;
shapes = (
{
closed = 1;
nodes = (
(368,-212,o),
(459,-150,o),
(459,-35,cs),
(459,31,o),
(419,75,o),
(321,75,cs),
(215,75,ls),
(161,75,o),
(120,86,o),
(120,116,cs),
(120,147,o),
(147,172,o),
(173,187,c),
(136,245,l),
(74,203,o),
(48,169,o),
(41,115,cs),
(32,42,o),
(106,5,o),
(154,5,cs),
(304,5,ls),
(360,5,o),
(376,-18,o),
(376,-47,cs),
(376,-111,o),
(320,-147,o),
(212,-147,cs),
(136,-147,o),
(84,-126,o),
(84,-59,cs),
(84,-47,l),
(156,14,l),
(116,48,l),
(12,-20,l),
(8,-38,o),
(6,-54,o),
(6,-70,cs),
(6,-164,o),
(81,-212,o),
(211,-212,cs)
);
},
{
closed = 1;
nodes = (
(378,154,o),
(469,231,o),
(469,344,cs),
(469,439,o),
(395,501,o),
(298,501,cs),
(187,501,o),
(85,421,o),
(85,305,cs),
(85,216,o),
(153,154,o),
(261,154,cs)
);
},
{
closed = 1;
nodes = (
(201,221,o),
(170,256,o),
(170,304,cs),
(170,376,o),
(225,430,o),
(298,430,cs),
(352,430,o),
(385,398,o),
(385,349,cs),
(385,278,o),
(335,221,o),
(259,221,cs)
);
},
{
closed = 1;
nodes = (
(543,475,l),
(506,528,l),
(392,442,l),
(448,401,l)
);
}
);
width = 531;
}
);
metricLeft = g;
note = g.ss02;
},
{
color = 1;
glyphname = g.ss02;
kernLeft = c;
kernRight = g;
lastChange = "2022-11-03 19:36:33 +0000";
layers = (
{
anchors = (
{
name = bottom;
pos = (214,-210);
},
{
name = top;
pos = (290,493);
}
);
layerId = "F91D9E91-C1BC-4259-B0D8-112C0CBA2B8E";
shapes = (
{
closed = 1;
nodes = (
(317,-210,o),
(412,-163,o),
(412,-68,cs),
(412,16,o),
(303,29,o),
(201,46,cs),
(130,58,o),
(74,71,o),
(74,125,cs),
(74,176,o),
(116,205,o),
(149,216,c),
(140,230,l),
(82,204,o),
(54,173,o),
(54,122,cs),
(56,53,o),
(135,38,o),
(200,27,cs),
(295,11,o),
(393,2,o),
(393,-72,cs),
(393,-156,o),
(298,-193,o),
(208,-193,cs),
(94,-193,o),
(27,-154,o),
(27,-82,cs),
(27,-72,o),
(29,-56,o),
(32,-47,c),
(136,47,l),
(123,53,l),
(13,-39,l),
(10,-50,o),
(7,-73,o),
(7,-83,cs),
(7,-164,o),
(82,-210,o),
(208,-210,cs)
);
},
{
closed = 1;
nodes = (
(352,180,o),
(435,254,o),
(435,362,cs),
(435,440,o),
(379,498,o),
(288,498,cs),
(182,498,o),
(94,421,o),
(94,314,cs),
(91,235,o),
(157,180,o),
(246,180,cs)
);
},
{
closed = 1;
nodes = (
(165,198,o),
(114,245,o),
(114,314,cs),
(114,413,o),
(196,481,o),
(288,481,cs),
(366,481,o),
(417,433,o),
(417,361,cs),
(417,262,o),
(336,198,o),
(245,198,cs)
);
},
{
closed = 1;
nodes = (
(510,498,l),
(502,512,l),
(404,432,l),
(417,421,l)
);
}
);
width = 494;
},
{
anchors = (
{
name = bottom;
pos = (203,-215);
},
{
name = top;
pos = (295,493);
}
);
background = {
shapes = (
{
closed = 1;
nodes = (
(420,-215,o),
(502,-160,o),
(502,-59,cs),
(502,51,o),
(406,67,o),
(262,84,cs),
(201,91,o),
(162,97,o),
(162,126,cs),
(162,147,o),
(181,165,o),
(207,168,c),
(135,240,l),
(77,208,o),
(40,168,o),
(40,102,cs),
(40,-9,o),
(144,-32,o),
(236,-42,cs),
(333,-53,o),
(352,-59,o),
(352,-79,cs),
(352,-101,o),
(326,-116,o),
(268,-116,cs),
(195,-116,o),
(152,-98,o),
(152,-73,cs),
(152,-71,o),
(152,-69,o),
(153,-66,c),
(211,5,l),
(179,49,l),
(30,-35,l),
(27,-47,o),
(26,-59,o),
(26,-68,cs),
(26,-159,o),
(117,-215,o),
(268,-215,cs)
);
},
{
closed = 1;
nodes = (
(383,127,o),
(467,199,o),
(467,309,cs),
(467,429,o),
(366,504,o),
(254,504,cs),
(141,504,o),
(43,429,o),
(43,314,cs),
(43,206,o),
(129,127,o),
(259,127,cs)
);
},
{
closed = 1;
nodes = (
(211,245,o),
(194,277,o),
(194,314,cs),
(194,352,o),
(216,379,o),
(256,379,cs),
(295,379,o),
(317,353,o),
(317,314,cs),
(317,277,o),
(300,245,o),
(256,245,cs)
);
},
{
closed = 1;
nodes = (
(522,452,l),
(445,545,l),
(324,450,l),
(433,381,l)
);
}
);
};
layerId = "957254E3-B7AD-4837-9092-D4428001DE8E";
shapes = (
{
closed = 1;
nodes = (
(337,-215,o),
(460,-171,o),
(460,-54,cs),
(460,42,o),
(378,58,o),
(264,74,cs),
(166,88,o),
(141,92,o),
(141,115,cs),
(141,140,o),
(169,163,o),
(193,167,c),
(137,227,l),
(64,195,o),
(18,141,o),
(18,83,cs),
(18,14,o),
(81,-28,o),
(202,-42,cs),
(294,-52,o),
(307,-56,o),
(307,-73,cs),
(307,-110,o),
(244,-116,o),
(204,-116,cs),
(144,-116,o),
(106,-103,o),
(106,-83,cs),
(106,-77,o),
(107,-74,o),
(113,-67,c),
(177,5,l),
(149,49,l),
(-10,-31,l),
(-15,-45,o),
(-18,-64,o),
(-18,-79,cs),
(-18,-163,o),
(66,-215,o),
(207,-215,cs)
);
},
{
closed = 1;
nodes = (
(380,127,o),
(477,209,o),
(477,326,cs),
(477,434,o),
(394,504,o),
(284,504,cs),
(165,504,o),
(52,421,o),
(52,296,cs),
(52,187,o),
(137,127,o),
(249,127,cs)
);
},
{
closed = 1;
nodes = (
(218,245,o),
(201,272,o),
(201,301,cs),
(201,338,o),
(228,379,o),
(274,379,cs),
(312,379,o),
(329,352,o),
(329,323,cs),
(329,286,o),
(302,245,o),
(256,245,cs)
);
},
{
closed = 1;
nodes = (
(551,452,l),
(485,545,l),
(352,450,l),
(454,381,l)
);
}
);
width = 528;
},
{
anchors = (
{
name = bottom;
pos = (210,-213);
},
{
name = top;
pos = (295,493);
}
);
background = {
shapes = (
{
closed = 1;
nodes = (
(402,-213,o),
(481,-163,o),
(481,-72,cs),
(481,32,o),
(376,50,o),
(248,68,cs),
(176,78,o),
(134,90,o),
(134,133,cs),
(134,160,o),
(151,182,o),
(196,193,c),
(141,236,l),
(88,208,o),
(53,174,o),
(53,120,cs),
(53,26,o),
(147,5,o),
(237,-8,cs),
(333,-21,o),
(398,-29,o),
(398,-82,cs),
(398,-129,o),
(344,-148,o),
(271,-148,cs),
(188,-148,o),
(125,-123,o),
(125,-69,cs),
(125,-65,o),
(125,-61,o),
(126,-56,c),
(196,31,l),
(167,51,l),
(44,-38,l),
(41,-48,o),
(41,-59,o),
(41,-66,cs),
(41,-158,o),
(129,-213,o),
(271,-213,cs)
);
},
{
closed = 1;
nodes = (
(369,154,o),
(446,221,o),
(446,323,cs),
(446,431,o),
(360,501,o),
(256,501,cs),
(150,501,o),
(65,430,o),
(65,326,cs),
(65,226,o),
(144,154,o),
(259,154,cs)
);
},
{
closed = 1;
nodes = (
(190,223,o),
(149,269,o),
(149,329,cs),
(149,389,o),
(193,433,o),
(257,433,cs),
(320,433,o),
(362,390,o),
(362,328,cs),
(362,269,o),
(323,223,o),
(257,223,cs)
);
},
{
closed = 1;
nodes = (
(500,475,l),
(457,528,l),
(353,442,l),
(414,401,l)
);
}
);
};
layerId = m003;
shapes = (
{
closed = 1;
nodes = (
(337,-213,o),
(437,-162,o),
(437,-61,cs),
(437,33,o),
(349,48,o),
(222,67,cs),
(150,78,o),
(117,85,o),
(117,120,cs),
(117,158,o),
(154,184,o),
(190,192,c),
(137,229,l),
(74,200,o),
(34,155,o),
(34,104,cs),
(34,29,o),
(120,6,o),
(204,-7,cs),
(295,-21,o),
(353,-23,o),
(353,-73,cs),
(353,-133,o),
(270,-148,o),
(209,-148,cs),
(147,-148,o),
(80,-132,o),
(80,-82,cs),
(80,-75,o),
(81,-67,o),
(84,-58,c),
(166,31,l),
(139,51,l),
(3,-36,l),
(-1,-47,o),
(-4,-68,o),
(-4,-83,cs),
(-4,-163,o),
(78,-213,o),
(207,-213,cs)
);
},
{
closed = 1;
nodes = (
(368,154,o),
(458,233,o),
(458,342,cs),
(458,439,o),
(388,501,o),
(289,501,cs),
(175,501,o),
(75,418,o),
(75,307,cs),
(75,216,o),
(143,154,o),
(249,154,cs)
);
},
{
closed = 1;
nodes = (
(189,223,o),
(159,266,o),
(159,312,cs),
(159,370,o),
(204,433,o),
(284,433,cs),
(346,433,o),
(374,390,o),
(374,344,cs),
(374,287,o),
(332,223,o),
(254,223,cs)
);
},
{
closed = 1;
nodes = (
(532,475,l),
(495,528,l),
(380,442,l),
(437,401,l)
);
}
);
width = 514;
}
);
note = g;
},
{
glyphname = f_f;
kernLeft = f;
kernRight = f;
lastChange = "2021-11-14 10:14:54 +0000";
layers = (
{
anchors = (
{
name = caret_1;
pos = (220,0);
}
);
layerId = "F91D9E91-C1BC-4259-B0D8-112C0CBA2B8E";
shapes = (
{
closed = 1;
nodes = (
(108,0,l),
(175,476,l),
(398,476,l),
(331,0,l),
(351,0,l),
(418,476,l),
(603,476,l),
(606,493,l),
(421,493,l),
(432,577,ls),
(442,649,o),
(485,684,o),
(566,684,cs),
(582,684,o),
(599,680,o),
(620,670,c),
(629,685,l),
(608,696,o),
(588,702,o),
(565,702,cs),
(522,702,o),
(486,693,o),
(460,672,c),
(428,694,o),
(394,702,o),
(355,702,cs),
(258,702,o),
(179,640,o),
(166,547,cs),
(158,493,l),
(69,493,l),
(66,476,l),
(155,476,l),
(89,0,l)
);
},
{
closed = 1;
nodes = (
(185,547,ls),
(197,629,o),
(265,685,o),
(355,685,cs),
(389,685,o),
(423,677,o),
(449,660,c),
(429,639,o),
(418,612,o),
(413,578,cs),
(401,493,l),
(178,493,l)
);
}
);
width = 572;
},
{
anchors = (
{
name = caret_1;
pos = (292,0);
}
);
layerId = "957254E3-B7AD-4837-9092-D4428001DE8E";
shapes = (
{
closed = 1;
nodes = (
(217,0,l),
(270,376,l),
(419,376,l),
(366,0,l),
(517,0,l),
(570,376,l),
(668,376,l),
(685,493,l),
(587,493,l),
(592,532,ls),
(595,555,o),
(607,583,o),
(638,583,cs),
(647,583,o),
(659,579,o),
(670,573,c),
(728,684,l),
(699,697,o),
(671,708,o),
(623,708,cs),
(585,708,o),
(545,703,o),
(508,677,c),
(474,697,o),
(428,708,o),
(379,708,cs),
(266,708,o),
(155,644,o),
(141,526,cs),
(137,493,l),
(55,493,l),
(38,376,l),
(120,376,l),
(67,0,l)
);
},
{
closed = 1;
nodes = (
(290,515,ls),
(295,552,o),
(321,587,o),
(385,587,cs),
(413,587,o),
(434,581,o),
(451,574,c),
(449,571,o),
(447,564,o),
(446,557,cs),
(437,493,l),
(287,493,l)
);
}
);
width = 667;
},
{
anchors = (
{
name = caret_1;
pos = (252,0);
}
);
layerId = m003;
shapes = (
{
closed = 1;
nodes = (
(158,0,l),
(218,427,l),
(404,427,l),
(344,0,l),
(429,0,l),
(489,427,l),
(631,427,l),
(641,493,l),
(499,493,l),
(507,554,ls),
(514,604,o),
(542,634,o),
(597,634,cs),
(609,634,o),
(623,631,o),
(641,622,c),
(674,684,l),
(647,697,o),
(623,705,o),
(589,705,cs),
(549,705,o),
(511,698,o),
(479,674,c),
(447,695,o),
(408,705,o),
(363,705,cs),
(260,705,o),
(164,645,o),
(149,537,cs),
(143,493,l),
(58,493,l),
(48,427,l),
(134,427,l),
(74,0,l)
);
},
{
closed = 1;
nodes = (
(233,531,ls),
(241,590,o),
(288,636,o),
(366,636,cs),
(396,636,o),
(423,630,o),
(445,618,c),
(433,604,o),
(427,588,o),
(425,568,cs),
(414,493,l),
(228,493,l)
);
}
);
width = 610;
}
);
metricLeft = f;
metricRight = f;
note = f_f;
},
{
glyphname = f_f_i;
kernLeft = f;
kernRight = i;
lastChange = "2021-11-19 16:23:12 +0000";
layers = (
{
anchors = (
{
name = caret_1;
pos = (220,0);
},
{
name = caret_2;
pos = (462,0);
}
);
layerId = "F91D9E91-C1BC-4259-B0D8-112C0CBA2B8E";
shapes = (
{
closed = 1;
nodes = (
(108,0,l),
(175,476,l),
(398,476,l),
(331,0,l),
(351,0,l),
(418,476,l),
(640,476,l),
(573,0,l),
(593,0,l),
(663,493,l),
(421,493,l),
(427,537,ls),
(442,649,o),
(496,685,o),
(573,685,cs),
(611,685,o),
(645,672,o),
(671,647,c),
(683,659,l),
(655,686,o),
(619,702,o),
(573,702,cs),
(530,702,o),
(495,691,o),
(467,668,c),
(436,691,o),
(400,702,o),
(355,702,cs),
(258,702,o),
(179,640,o),
(166,547,cs),
(158,493,l),
(69,493,l),
(66,476,l),
(155,476,l),
(89,0,l)
);
},
{
closed = 1;
nodes = (
(185,547,ls),
(197,629,o),
(265,685,o),
(355,685,cs),
(394,685,o),
(427,675,o),
(455,655,c),
(430,630,o),
(414,589,o),
(407,538,cs),
(401,493,l),
(178,493,l)
);
}
);
width = 714;
},
{
anchors = (
{
name = caret_1;
pos = (292,0);
},
{
name = caret_2;
pos = (592,0);
}
);
layerId = "957254E3-B7AD-4837-9092-D4428001DE8E";
shapes = (
{
closed = 1;
nodes = (
(217,0,l),
(270,376,l),
(419,376,l),
(366,0,l),
(516,0,l),
(569,376,l),
(718,376,l),
(665,0,l),
(815,0,l),
(885,493,l),
(586,493,l),
(589,518,ls),
(593,549,o),
(626,587,o),
(691,587,cs),
(743,587,o),
(784,574,o),
(818,550,c),
(897,653,l),
(839,689,o),
(781,708,o),
(685,708,cs),
(632,708,o),
(577,695,o),
(529,663,c),
(490,693,o),
(434,708,o),
(379,708,cs),
(266,708,o),
(157,644,o),
(141,526,cs),
(137,493,l),
(55,493,l),
(38,376,l),
(120,376,l),
(67,0,l)
);
},
{
closed = 1;
nodes = (
(290,515,ls),
(295,552,o),
(321,587,o),
(385,587,cs),
(414,587,o),
(438,580,o),
(452,574,c),
(448,570,o),
(443,542,o),
(441,529,cs),
(436,493,l),
(287,493,l)
);
}
);
width = 902;
},
{
anchors = (
{
name = caret_1;
pos = (252,0);
},
{
name = caret_2;
pos = (523,0);
}
);
layerId = m003;
shapes = (
{
closed = 1;
nodes = (
(158,0,l),
(218,427,l),
(404,427,l),
(344,0,l),
(428,0,l),
(488,427,l),
(674,427,l),
(614,0,l),
(699,0,l),
(768,493,l),
(498,493,l),
(503,528,ls),
(513,600,o),
(557,636,o),
(627,636,cs),
(672,636,o),
(710,623,o),
(739,599,c),
(785,656,l),
(742,687,o),
(696,705,o),
(624,705,cs),
(580,705,o),
(534,695,o),
(493,666,c),
(458,693,o),
(410,705,o),
(363,705,cs),
(260,705,o),
(164,645,o),
(149,537,cs),
(143,493,l),
(58,493,l),
(48,427,l),
(134,427,l),
(74,0,l)
);
},
{
closed = 1;
nodes = (
(233,531,ls),
(241,590,o),
(288,636,o),
(366,636,cs),
(399,636,o),
(428,629,o),
(449,615,c),
(433,599,o),
(423,562,o),
(419,534,cs),
(414,493,l),
(228,493,l)
);
}
);
width = 797;
}
);
metricLeft = f;
metricRight = i;
note = f_f_i;
},
{
glyphname = f_f_l;
kernLeft = f;
kernRight = l;
lastChange = "2021-11-14 10:14:54 +0000";
layers = (
{
anchors = (
{
name = caret_1;
pos = (220,0);
},
{
name = caret_2;
pos = (462,0);
}
);
layerId = "F91D9E91-C1BC-4259-B0D8-112C0CBA2B8E";
shapes = (
{
closed = 1;
nodes = (
(662,-5,o),
(681,-2,o),
(705,5,c),
(707,24,l),
(686,17,o),
(669,13,o),
(651,13,cs),
(621,13,o),
(605,30,o),
(605,69,cs),
(605,76,o),
(606,85,o),
(607,95,cs),
(686,659,l),
(655,686,o),
(619,702,o),
(573,702,cs),
(530,702,o),
(494,691,o),
(468,669,c),
(437,691,o),
(401,702,o),
(355,702,cs),
(258,702,o),
(179,640,o),
(166,547,cs),
(158,493,l),
(69,493,l),
(66,476,l),
(155,476,l),
(89,0,l),
(108,0,l),
(175,476,l),
(398,476,l),
(331,0,l),
(351,0,l),
(418,476,l),
(545,476,l),
(548,493,l),
(421,493,l),
(427,537,ls),
(442,649,o),
(496,685,o),
(573,685,cs),
(612,685,o),
(643,671,o),
(666,652,c),
(586,93,ls),
(585,82,o),
(584,74,o),
(584,64,cs),
(584,16,o),
(606,-5,o),
(647,-5,cs)
);
},
{
closed = 1;
nodes = (
(185,546,ls),
(197,629,o),
(265,685,o),
(355,685,cs),
(393,685,o),
(428,675,o),
(456,655,c),
(430,628,o),
(414,590,o),
(407,538,cs),
(401,493,l),
(178,493,l)
);
}
);
width = 784;
},
{
anchors = (
{
name = caret_1;
pos = (292,0);
},
{
name = caret_2;
pos = (591,0);
}
);
background = {
shapes = (
{
closed = 1;
nodes = (
(849,-11,o),
(883,-7,o),
(914,5,c),
(914,133,l),
(901,129,o),
(891,127,o),
(882,127,cs),
(863,127,o),
(854,136,o),
(854,152,cs),
(854,651,l),
(786,689,o),
(728,708,o),
(631,708,cs),
(575,708,o),
(519,692,o),
(477,664,c),
(434,694,o),
(376,708,o),
(324,708,cs),
(209,708,o),
(104,642,o),
(104,522,cs),
(104,493,l),
(25,493,l),
(25,376,l),
(104,376,l),
(104,0,l),
(254,0,l),
(254,376,l),
(403,376,l),
(403,0,l),
(554,0,l),
(554,376,l),
(637,376,l),
(637,493,l),
(554,493,l),
(554,522,ls),
(554,553,o),
(577,587,o),
(638,587,cs),
(659,587,o),
(677,586,o),
(702,583,c),
(702,125,ls),
(702,30,o),
(759,-11,o),
(828,-11,cs)
);
}
);
};
layerId = "957254E3-B7AD-4837-9092-D4428001DE8E";
shapes = (
{
closed = 1;
nodes = (
(815,-11,o),
(849,-9,o),
(880,3,c),
(890,134,l),
(877,130,o),
(866,127,o),
(853,127,cs),
(841,127,o),
(836,130,o),
(836,144,cs),
(836,149,o),
(836,152,o),
(837,157,cs),
(903,649,l),
(841,687,o),
(786,708,o),
(685,708,cs),
(633,708,o),
(576,694,o),
(527,664,c),
(491,691,o),
(435,708,o),
(379,708,cs),
(266,708,o),
(157,644,o),
(141,526,cs),
(137,493,l),
(55,493,l),
(38,376,l),
(120,376,l),
(67,0,l),
(217,0,l),
(270,376,l),
(419,376,l),
(366,0,l),
(516,0,l),
(569,376,l),
(652,376,l),
(669,493,l),
(586,493,l),
(589,518,ls),
(593,549,o),
(626,587,o),
(691,587,cs),
(708,587,o),
(726,587,o),
(751,580,c),
(684,129,ls),
(683,119,o),
(682,109,o),
(682,101,cs),
(682,25,o),
(733,-11,o),
(798,-11,cs)
);
},
{
closed = 1;
nodes = (
(288,505,ls),
(295,559,o),
(328,587,o),
(385,587,cs),
(414,587,o),
(437,580,o),
(453,575,c),
(444,554,o),
(442,537,o),
(441,529,cs),
(436,493,l),
(287,493,l)
);
}
);
width = 938;
},
{
anchors = (
{
name = caret_1;
pos = (252,0);
},
{
name = caret_2;
pos = (522,0);
}
);
layerId = m003;
shapes = (
{
closed = 1;
nodes = (
(737,-8,o),
(764,-4,o),
(788,4,c),
(794,79,l),
(776,73,o),
(761,69,o),
(747,69,cs),
(725,69,o),
(715,80,o),
(715,106,cs),
(715,114,o),
(715,119,o),
(716,125,cs),
(789,654,l),
(743,686,o),
(697,705,o),
(624,705,cs),
(579,705,o),
(532,694,o),
(493,667,c),
(460,691,o),
(414,705,o),
(363,705,cs),
(260,705,o),
(164,645,o),
(149,537,cs),
(143,493,l),
(58,493,l),
(48,427,l),
(134,427,l),
(74,0,l),
(158,0,l),
(218,427,l),
(404,427,l),
(344,0,l),
(428,0,l),
(488,427,l),
(594,427,l),
(603,493,l),
(498,493,l),
(503,528,ls),
(513,600,o),
(557,636,o),
(627,636,cs),
(657,636,o),
(680,630,o),
(703,617,c),
(630,111,ls),
(629,104,o),
(628,94,o),
(628,85,cs),
(628,22,o),
(664,-8,o),
(717,-8,cs)
);
},
{
closed = 1;
nodes = (
(232,526,ls),
(241,589,o),
(287,636,o),
(366,636,cs),
(399,636,o),
(429,628,o),
(450,615,c),
(434,593,o),
(424,568,o),
(419,534,cs),
(414,493,l),
(228,493,l)
);
}
);
width = 852;
}
);
metricLeft = f;
metricRight = l;
note = f_f_l;
},
{
glyphname = fi;
kernLeft = f;
kernRight = i;
lastChange = "2021-11-19 16:23:12 +0000";
layers = (
{
anchors = (
{
name = caret_1;
pos = (220,0);
}
);
layerId = "F91D9E91-C1BC-4259-B0D8-112C0CBA2B8E";
shapes = (
{
closed = 1;
nodes = (
(108,0,l),
(175,476,l),
(404,476,l),
(407,493,l),
(178,493,l),
(184,537,ls),
(200,649,o),
(255,685,o),
(332,685,cs),
(372,685,o),
(405,671,o),
(431,647,c),
(443,659,l),
(413,686,o),
(377,702,o),
(331,702,cs),
(237,702,o),
(179,647,o),
(164,538,cs),
(158,493,l),
(69,493,l),
(66,476,l),
(155,476,l),
(89,0,l)
);
},
{
closed = 1;
nodes = (
(352,0,l),
(422,493,l),
(402,493,l),
(332,0,l)
);
}
);
width = 473;
},
{
anchors = (
{
name = caret_1;
pos = (286,0);
}
);
layerId = "957254E3-B7AD-4837-9092-D4428001DE8E";
shapes = (
{
closed = 1;
nodes = (
(217,0,l),
(270,376,l),
(462,376,l),
(480,493,l),
(287,493,l),
(289,508,ls),
(295,552,o),
(330,587,o),
(393,587,cs),
(443,587,o),
(485,575,o),
(519,550,c),
(598,653,l),
(543,687,o),
(486,708,o),
(386,708,cs),
(272,708,o),
(157,640,o),
(142,529,cs),
(137,493,l),
(55,493,l),
(38,376,l),
(120,376,l),
(67,0,l)
);
},
{
closed = 1;
nodes = (
(504,0,l),
(574,493,l),
(424,493,l),
(354,0,l)
);
}
);
width = 593;
},
{
anchors = (
{
name = caret_1;
pos = (249,0);
}
);
layerId = m003;
shapes = (
{
closed = 1;
nodes = (
(158,0,l),
(218,427,l),
(429,427,l),
(439,493,l),
(228,493,l),
(232,522,ls),
(243,599,o),
(287,636,o),
(358,636,cs),
(403,636,o),
(440,624,o),
(470,599,c),
(515,656,l),
(473,686,o),
(426,705,o),
(354,705,cs),
(254,705,o),
(165,648,o),
(149,534,cs),
(143,493,l),
(58,493,l),
(48,427,l),
(134,427,l),
(74,0,l)
);
},
{
closed = 1;
nodes = (
(423,0,l),
(493,493,l),
(408,493,l),
(339,0,l)
);
}
);
width = 521;
}
);
metricLeft = f;
metricRight = i;
note = fi;
unicode = 64257;
},
{
glyphname = fl;
kernLeft = f;
kernRight = l;
lastChange = "2021-11-14 10:14:54 +0000";
layers = (
{
anchors = (
{
name = caret_1;
pos = (204,0);
}
);
layerId = "F91D9E91-C1BC-4259-B0D8-112C0CBA2B8E";
shapes = (
{
closed = 1;
nodes = (
(397,-5,o),
(417,-1,o),
(439,5,c),
(441,24,l),
(416,16,o),
(399,13,o),
(384,13,cs),
(354,13,o),
(337,29,o),
(337,68,cs),
(337,76,o),
(338,86,o),
(339,94,cs),
(418,658,l),
(391,686,o),
(358,702,o),
(313,702,cs),
(240,702,o),
(175,663,o),
(158,538,cs),
(152,493,l),
(69,493,l),
(66,476,l),
(149,476,l),
(82,0,l),
(102,0,l),
(169,476,l),
(286,476,l),
(289,493,l),
(172,493,l),
(178,537,ls),
(192,638,o),
(235,685,o),
(314,685,cs),
(348,685,o),
(377,672,o),
(398,650,c),
(319,93,ls),
(318,83,o),
(317,73,o),
(317,65,cs),
(317,17,o),
(339,-5,o),
(379,-5,cs)
);
}
);
width = 518;
},
{
anchors = (
{
name = caret_1;
pos = (292,0);
}
);
layerId = "957254E3-B7AD-4837-9092-D4428001DE8E";
shapes = (
{
closed = 1;
nodes = (
(516,-11,o),
(550,-9,o),
(583,3,c),
(593,134,l),
(580,130,o),
(569,127,o),
(556,127,cs),
(543,127,o),
(539,131,o),
(539,141,cs),
(539,142,o),
(539,145,o),
(539,148,cs),
(606,649,l),
(543,687,o),
(488,708,o),
(390,708,cs),
(274,708,o),
(157,639,o),
(142,529,cs),
(137,493,l),
(55,493,l),
(38,376,l),
(120,376,l),
(67,0,l),
(218,0,l),
(271,376,l),
(354,376,l),
(371,493,l),
(288,493,l),
(291,518,ls),
(295,549,o),
(328,587,o),
(397,587,cs),
(410,587,o),
(428,587,o),
(452,580,c),
(385,129,ls),
(384,119,o),
(383,109,o),
(383,101,cs),
(383,25,o),
(434,-11,o),
(499,-11,cs)
);
}
);
width = 641;
},
{
anchors = (
{
name = caret_1;
pos = (243,0);
}
);
layerId = m003;
shapes = (
{
closed = 1;
nodes = (
(450,-8,o),
(477,-5,o),
(506,4,c),
(512,79,l),
(494,73,o),
(479,69,o),
(465,69,cs),
(443,69,o),
(433,79,o),
(433,104,cs),
(433,111,o),
(433,116,o),
(434,121,cs),
(507,653,l),
(462,686,o),
(417,705,o),
(347,705,cs),
(253,705,o),
(164,651,o),
(147,534,cs),
(141,493,l),
(58,493,l),
(48,427,l),
(131,427,l),
(71,0,l),
(155,0,l),
(215,427,l),
(315,427,l),
(325,493,l),
(225,493,l),
(230,528,ls),
(240,602,o),
(285,636,o),
(351,636,cs),
(376,636,o),
(398,630,o),
(420,616,c),
(347,111,ls),
(346,104,o),
(345,94,o),
(345,85,cs),
(345,22,o),
(381,-8,o),
(434,-8,cs)
);
}
);
width = 570;
}
);
metricLeft = f;
metricRight = l;
note = fl;
unicode = 64258;
},
{
glyphname = ordfeminine;
kernLeft = ordfeminine;
lastChange = "2021-11-14 10:14:53 +0000";
layers = (
{
layerId = "F91D9E91-C1BC-4259-B0D8-112C0CBA2B8E";
shapes = (
{
closed = 1;
nodes = (
(269,345,o),
(317,377,o),
(350,438,c),
(350,350,l),
(365,350,l),
(365,565,ls),
(365,654,o),
(318,702,o),
(233,702,cs),
(178,702,o),
(140,683,o),
(105,634,c),
(117,626,l),
(146,667,o),
(181,688,o),
(234,688,cs),
(310,688,o),
(350,644,o),
(350,567,cs),
(350,560,o),
(350,552,o),
(350,545,c),
(226,545,ls),
(145,545,o),
(92,512,o),
(92,445,cs),
(92,385,o),
(138,345,o),
(207,345,cs)
);
},
{
closed = 1;
nodes = (
(150,360,o),
(108,392,o),
(108,445,cs),
(108,500,o),
(151,530,o),
(226,530,cs),
(350,530,l),
(350,506,o),
(349,484,o),
(349,461,c),
(319,397,o),
(271,360,o),
(209,360,cs)
);
}
);
width = 480;
},
{
layerId = "957254E3-B7AD-4837-9092-D4428001DE8E";
shapes = (
{
closed = 1;
nodes = (
(229,350,o),
(263,363,o),
(293,390,c),
(295,359,l),
(372,359,l),
(372,567,ls),
(372,650,o),
(316,708,o),
(222,708,cs),
(159,708,o),
(113,685,o),
(71,625,c),
(138,580,l),
(154,602,o),
(178,630,o),
(225,630,cs),
(257,630,o),
(276,617,o),
(285,596,cs),
(288,589,o),
(289,581,o),
(289,570,c),
(195,570,ls),
(122,570,o),
(61,537,o),
(61,463,cs),
(61,393,o),
(117,350,o),
(189,350,cs)
);
},
{
closed = 1;
nodes = (
(170,429,o),
(154,444,o),
(154,461,cs),
(154,480,o),
(170,493,o),
(201,493,cs),
(289,493,l),
(286,479,o),
(282,466,o),
(273,454,cs),
(259,437,o),
(238,429,o),
(209,429,cs)
);
}
);
width = 456;
},
{
layerId = m003;
shapes = (
{
closed = 1;
nodes = (
(264,348,o),
(306,370,o),
(338,415,c),
(339,355,l),
(384,355,l),
(384,566,ls),
(384,652,o),
(332,705,o),
(243,705,cs),
(184,705,o),
(142,684,o),
(104,630,c),
(143,603,l),
(166,636,o),
(196,659,o),
(245,659,cs),
(299,659,o),
(328,631,o),
(334,581,cs),
(335,573,o),
(335,562,o),
(335,558,c),
(226,558,ls),
(150,558,o),
(92,525,o),
(92,455,cs),
(92,389,o),
(143,348,o),
(214,348,cs)
);
},
{
closed = 1;
nodes = (
(176,395,o),
(146,418,o),
(146,453,cs),
(146,490,o),
(176,512,o),
(229,512,cs),
(335,512,l),
(334,493,o),
(331,476,o),
(327,458,c),
(304,416,o),
(269,395,o),
(225,395,cs)
);
}
);
width = 499;
}
);
note = ordfeminine;
unicode = 170;
},
{
glyphname = ordmasculine;
kernLeft = ordmasculine;
kernRight = ordmasculine;
lastChange = "2021-11-14 10:14:53 +0000";
layers = (
{
layerId = "F91D9E91-C1BC-4259-B0D8-112C0CBA2B8E";
shapes = (
{
closed = 1;
nodes = (
(347,356,o),
(417,430,o),
(417,529,cs),
(417,627,o),
(346,702,o),
(255,702,cs),
(163,702,o),
(92,627,o),
(92,529,cs),
(92,431,o),
(162,356,o),
(255,356,cs)
);
},
{
closed = 1;
nodes = (
(170,371,o),
(108,438,o),
(108,529,cs),
(108,619,o),
(170,687,o),
(255,687,cs),
(338,687,o),
(401,619,o),
(401,529,cs),
(401,438,o),
(338,371,o),
(255,371,cs)
);
}
);
width = 510;
},
{
layerId = "957254E3-B7AD-4837-9092-D4428001DE8E";
shapes = (
{
closed = 1;
nodes = (
(344,350,o),
(417,431,o),
(417,529,cs),
(417,626,o),
(344,708,o),
(238,708,cs),
(131,708,o),
(59,626,o),
(59,529,cs),
(59,432,o),
(130,350,o),
(238,350,cs)
);
},
{
closed = 1;
nodes = (
(174,432,o),
(156,477,o),
(156,529,cs),
(156,583,o),
(175,626,o),
(238,626,cs),
(301,626,o),
(320,583,o),
(320,529,cs),
(320,477,o),
(301,432,o),
(238,432,cs)
);
}
);
width = 477;
},
{
layerId = m003;
shapes = (
{
closed = 1;
nodes = (
(362,353,o),
(433,431,o),
(433,529,cs),
(433,627,o),
(361,705,o),
(263,705,cs),
(164,705,o),
(92,626,o),
(92,529,cs),
(92,432,o),
(163,353,o),
(263,353,cs)
);
},
{
closed = 1;
nodes = (
(188,401,o),
(148,458,o),
(148,529,cs),
(148,601,o),
(189,658,o),
(263,658,cs),
(336,658,o),
(378,601,o),
(378,529,cs),
(378,458,o),
(337,401,o),
(263,401,cs)
);
}
);
width = 526;
}
);
note = ordmasculine;
unicode = 186;
},
{
color = 1;
glyphname = Delta;
kernLeft = A;
kernRight = A;
lastChange = "2021-11-14 10:14:53 +0000";
layers = (
{
layerId = "F91D9E91-C1BC-4259-B0D8-112C0CBA2B8E";
shapes = (
{
closed = 1;
nodes = (
(536,0,l),
(390,697,l),
(365,697,l),
(24,0,l)
);
},
{
closed = 1;
nodes = (
(376,675,l),
(509,19,l),
(57,19,l)
);
}
);
width = 630;
},
{
layerId = "957254E3-B7AD-4837-9092-D4428001DE8E";
shapes = (
{
closed = 1;
nodes = (
(678,0,l),
(487,697,l),
(371,697,l),
(-16,0,l)
);
},
{
closed = 1;
nodes = (
(400,463,l),
(475,144,l),
(232,144,l)
);
}
);
width = 733;
},
{
layerId = m003;
shapes = (
{
closed = 1;
nodes = (
(625,0,l),
(457,697,l),
(387,697,l),
(23,0,l)
);
},
{
closed = 1;
nodes = (
(407,571,l),
(511,81,l),
(162,81,l)
);
}
);
width = 719;
}
);
unicode = 916;
},
{
color = 1;
glyphname = pi;
lastChange = "2021-11-14 10:14:53 +0000";
layers = (
{
layerId = "F91D9E91-C1BC-4259-B0D8-112C0CBA2B8E";
shapes = (
{
closed = 1;
nodes = (
(462,-5,o),
(472,-4,o),
(487,0,c),
(484,17,l),
(473,15,o),
(462,14,o),
(454,14,cs),
(400,14,o),
(377,40,o),
(377,102,cs),
(377,117,o),
(377,135,o),
(380,155,cs),
(425,475,l),
(529,475,l),
(532,493,l),
(83,493,l),
(80,475,l),
(143,475,l),
(76,0,l),
(96,0,l),
(163,475,l),
(405,475,l),
(360,152,ls),
(357,131,o),
(355,112,o),
(355,97,cs),
(355,25,o),
(386,-5,o),
(450,-5,cs)
);
}
);
width = 540;
},
{
layerId = "957254E3-B7AD-4837-9092-D4428001DE8E";
shapes = (
{
closed = 1;
nodes = (
(492,-11,o),
(518,-5,o),
(554,16,c),
(541,143,l),
(531,136,o),
(516,128,o),
(500,128,cs),
(492,128,o),
(485,130,o),
(485,144,cs),
(485,146,o),
(485,147,o),
(486,154,cs),
(516,367,l),
(576,367,l),
(594,493,l),
(64,493,l),
(46,367,l),
(109,367,l),
(58,0,l),
(208,0,l),
(259,367,l),
(366,367,l),
(331,111,ls),
(330,104,o),
(329,96,o),
(329,90,cs),
(329,26,o),
(375,-11,o),
(458,-11,cs)
);
}
);
width = 598;
},
{
layerId = m003;
shapes = (
{
closed = 1;
nodes = (
(484,-8,o),
(504,-5,o),
(529,8,c),
(520,79,l),
(510,74,o),
(498,70,o),
(485,70,cs),
(454,70,o),
(439,84,o),
(439,122,cs),
(439,129,o),
(440,140,o),
(442,154,cs),
(479,422,l),
(561,422,l),
(571,493,l),
(82,493,l),
(72,422,l),
(135,422,l),
(76,0,l),
(160,0,l),
(219,422,l),
(395,422,l),
(354,132,ls),
(352,118,o),
(351,106,o),
(351,98,cs),
(351,27,o),
(389,-8,o),
(463,-8,cs)
);
}
);
width = 580;
}
);
note = pi;
unicode = 960;
},
{
color = 1;
glyphname = zero;
kernLeft = zero;
kernRight = zero;
lastChange = "2021-11-14 10:14:53 +0000";
layers = (
{
layerId = "F91D9E91-C1BC-4259-B0D8-112C0CBA2B8E";
shapes = (
{
closed = 1;
nodes = (
(380,-5,o),
(466,134,o),
(496,346,cs),
(501,382,o),
(505,420,o),
(505,460,cs),
(505,605,o),
(454,703,o),
(342,703,cs),
(186,703,o),
(118,524,o),
(93,349,cs),
(88,311,o),
(85,269,o),
(85,235,cs),
(85,101,o),
(126,-5,o),
(249,-5,cs)
);
},
{
closed = 1;
nodes = (
(142,14,o),
(104,110,o),
(104,233,cs),
(104,266,o),
(108,308,o),
(113,346,cs),
(139,533,o),
(209,684,o),
(340,684,cs),
(438,684,o),
(485,598,o),
(485,461,cs),
(485,428,o),
(482,391,o),
(476,349,cs),
(448,151,o),
(371,14,o),
(250,14,cs)
);
}
);
width = 560;
},
{
layerId = "957254E3-B7AD-4837-9092-D4428001DE8E";
shapes = (
{
closed = 1;
nodes = (
(481,-10,o),
(528,208,o),
(547,344,cs),
(552,378,o),
(556,417,o),
(556,458,cs),
(556,580,o),
(517,709,o),
(337,709,cs),
(106,709,o),
(62,490,o),
(43,362,cs),
(38,326,o),
(34,285,o),
(34,244,cs),
(34,118,o),
(73,-10,o),
(252,-10,cs)
);
},
{
closed = 1;
nodes = (
(201,134,o),
(185,176,o),
(185,236,cs),
(185,267,o),
(189,302,o),
(194,339,cs),
(212,462,o),
(241,564,o),
(333,564,cs),
(388,564,o),
(405,523,o),
(405,463,cs),
(405,430,o),
(400,395,o),
(395,358,cs),
(378,239,o),
(348,134,o),
(256,134,cs)
);
}
);
width = 560;
},
{
layerId = m003;
shapes = (
{
closed = 1;
nodes = (
(431,-8,o),
(497,176,o),
(520,343,cs),
(526,383,o),
(529,426,o),
(529,460,cs),
(529,591,o),
(486,706,o),
(339,706,cs),
(147,706,o),
(90,510,o),
(68,355,cs),
(63,317,o),
(59,278,o),
(59,239,cs),
(59,110,o),
(99,-8,o),
(250,-8,cs)
);
},
{
closed = 1;
nodes = (
(170,74,o),
(144,143,o),
(144,236,cs),
(144,269,o),
(148,306,o),
(153,343,cs),
(175,496,o),
(223,625,o),
(337,625,cs),
(414,625,o),
(444,560,o),
(444,460,cs),
(444,430,o),
(441,391,o),
(435,351,cs),
(413,195,o),
(359,74,o),
(253,74,cs)
);
}
);
width = 560;
}
);
note = zero;
unicode = 48;
},
{
color = 1;
glyphname = one;
kernLeft = one;
kernRight = one;
lastChange = "2021-11-14 10:14:53 +0000";
layers = (
{
layerId = "F91D9E91-C1BC-4259-B0D8-112C0CBA2B8E";
shapes = (
{
closed = 1;
nodes = (
(307,0,l),
(405,697,l),
(385,697,l),
(375,623,ls),
(371,592,o),
(353,582,o),
(324,582,cs),
(182,582,l),
(180,564,l),
(376,564,l),
(368,578,l),
(287,0,l)
);
}
);
width = 560;
},
{
layerId = "957254E3-B7AD-4837-9092-D4428001DE8E";
shapes = (
{
closed = 1;
nodes = (
(374,0,l),
(472,697,l),
(321,697,l),
(317,669,ls),
(310,616,o),
(278,590,o),
(225,590,cs),
(130,590,l),
(114,471,l),
(331,471,l),
(298,544,l),
(223,0,l)
);
}
);
width = 560;
},
{
layerId = m003;
shapes = (
{
closed = 1;
nodes = (
(341,0,l),
(439,697,l),
(354,697,l),
(347,646,ls),
(341,603,o),
(315,586,o),
(275,586,cs),
(157,586,l),
(147,518,l),
(354,518,l),
(334,562,l),
(256,0,l)
);
}
);
width = 560;
}
);
note = one;
unicode = 49;
},
{
color = 1;
glyphname = two;
kernLeft = two;
kernRight = two;
lastChange = "2021-11-14 10:14:53 +0000";
layers = (
{
background = {
shapes = (
{
closed = 1;
nodes = (
(464,0,l),
(465,10,l),
(40,10,l),
(42,18,l),
(205,142,o),
(477,297,o),
(506,508,cs),
(508,521,o),
(509,533,o),
(509,545,cs),
(509,643,o),
(446,702,o),
(338,702,cs),
(208,702,o),
(124,622,o),
(105,482,c),
(115,482,l),
(133,616,o),
(214,692,o),
(338,692,cs),
(440,692,o),
(499,637,o),
(499,545,cs),
(499,534,o),
(498,522,o),
(496,510,cs),
(467,301,o),
(197,148,o),
(32,24,c),
(29,0,l)
);
}
);
};
layerId = "F91D9E91-C1BC-4259-B0D8-112C0CBA2B8E";
shapes = (
{
closed = 1;
nodes = (
(466,0,l),
(468,19,l),
(50,19,l),
(50,22,l),
(190,123,o),
(511,311,o),
(511,542,cs),
(511,642,o),
(446,702,o),
(338,702,cs),
(209,702,o),
(121,622,o),
(102,480,c),
(121,478,l),
(139,607,o),
(216,683,o),
(337,683,cs),
(435,683,o),
(491,629,o),
(491,542,cs),
(491,316,o),
(163,128,o),
(31,30,c),
(27,0,l)
);
}
);
width = 560;
},
{
layerId = "957254E3-B7AD-4837-9092-D4428001DE8E";
shapes = (
{
closed = 1;
nodes = (
(493,0,l),
(513,140,l),
(179,140,l),
(134,74,l),
(339,153,o),
(535,308,o),
(535,507,cs),
(535,628,o),
(453,705,o),
(332,705,cs),
(174,705,o),
(72,570,o),
(55,448,c),
(200,428,l),
(212,482,o),
(244,559,o),
(324,559,cs),
(368,559,o),
(385,534,o),
(385,500,cs),
(385,342,o),
(151,178,o),
(14,113,c),
(1,0,l)
);
}
);
width = 560;
},
{
background = {
shapes = (
{
closed = 1;
nodes = (
(478,0,l),
(489,79,l),
(113,79,l),
(89,48,l),
(287,152,o),
(493,302,o),
(519,487,cs),
(521,500,o),
(522,512,o),
(522,524,cs),
(522,634,o),
(449,704,o),
(334,704,cs),
(189,704,o),
(96,594,o),
(78,464,c),
(159,453,l),
(174,548,o),
(232,622,o),
(329,622,cs),
(401,622,o),
(438,581,o),
(438,520,cs),
(438,511,o),
(437,503,o),
(436,494,cs),
(414,337,o),
(215,204,o),
(78,110,cs),
(21,71,l),
(13,0,l)
);
}
);
};
layerId = m003;
shapes = (
{
closed = 1;
nodes = (
(478,0,l),
(489,79,l),
(113,79,l),
(109,48,l),
(280,152,o),
(522,320,o),
(522,524,cs),
(522,634,o),
(449,704,o),
(334,704,cs),
(189,704,o),
(96,594,o),
(78,464,c),
(159,453,l),
(174,548,o),
(232,622,o),
(329,622,cs),
(401,622,o),
(438,581,o),
(438,520,cs),
(438,342,o),
(181,178,o),
(21,71,c),
(13,0,l)
);
}
);
width = 560;
}
);
note = two;
unicode = 50;
},
{
color = 1;
glyphname = three;
kernLeft = three;
kernRight = three;
lastChange = "2021-11-14 10:14:53 +0000";
layers = (
{
layerId = "F91D9E91-C1BC-4259-B0D8-112C0CBA2B8E";
shapes = (
{
closed = 1;
nodes = (
(389,-5,o),
(499,92,o),
(499,216,cs),
(499,325,o),
(403,363,o),
(321,370,c),
(321,369,l),
(429,383,o),
(511,452,o),
(511,555,cs),
(511,641,o),
(440,702,o),
(336,702,cs),
(220,702,o),
(130,630,o),
(115,523,c),
(135,522,l),
(148,618,o),
(230,683,o),
(336,683,cs),
(428,683,o),
(490,630,o),
(490,554,cs),
(490,433,o),
(375,377,o),
(247,378,c),
(246,360,l),
(358,359,o),
(479,332,o),
(479,217,cs),
(479,98,o),
(374,14,o),
(242,14,cs),
(124,14,o),
(54,72,o),
(54,167,cs),
(54,177,o),
(55,187,o),
(56,198,c),
(36,198,l),
(34,187,o),
(34,174,o),
(34,165,cs),
(34,61,o),
(113,-5,o),
(241,-5,cs)
);
}
);
width = 561;
},
{
layerId = "957254E3-B7AD-4837-9092-D4428001DE8E";
shapes = (
{
closed = 1;
nodes = (
(411,-10,o),
(538,96,o),
(538,237,cs),
(538,322,o),
(491,372,o),
(409,391,c),
(409,360,l),
(504,390,o),
(538,450,o),
(538,521,cs),
(538,627,o),
(460,707,o),
(333,707,cs),
(199,707,o),
(89,619,o),
(73,497,c),
(219,479,l),
(227,529,o),
(268,563,o),
(321,563,cs),
(366,563,o),
(387,539,o),
(387,504,cs),
(387,449,o),
(337,422,o),
(262,422,c),
(254,304,l),
(353,304,o),
(389,286,o),
(389,231,cs),
(389,173,o),
(338,134,o),
(256,134,cs),
(192,134,o),
(154,162,o),
(154,223,cs),
(154,224,o),
(154,228,o),
(154,232,c),
(5,231,l),
(3,219,o),
(2,207,o),
(2,195,cs),
(2,73,o),
(97,-10,o),
(244,-10,cs)
);
}
);
width = 560;
},
{
layerId = m003;
shapes = (
{
closed = 1;
nodes = (
(413,-8,o),
(519,102,o),
(519,219,cs),
(519,325,o),
(432,370,o),
(364,379,c),
(364,362,l),
(452,382,o),
(525,444,o),
(525,541,cs),
(525,640,o),
(450,705,o),
(336,705,cs),
(211,705,o),
(111,626,o),
(95,510,c),
(177,501,l),
(187,571,o),
(246,624,o),
(331,624,cs),
(398,624,o),
(439,591,o),
(439,531,cs),
(439,438,o),
(341,398,o),
(255,400,c),
(250,333,l),
(354,333,o),
(435,310,o),
(435,220,cs),
(435,132,o),
(358,74,o),
(251,74,cs),
(159,74,o),
(104,117,o),
(104,190,cs),
(104,192,o),
(104,202,o),
(106,214,c),
(22,214,l),
(20,202,o),
(19,191,o),
(19,180,cs),
(19,67,o),
(109,-8,o),
(246,-8,cs)
);
}
);
width = 560;
}
);
note = three;
unicode = 51;
},
{
color = 1;
glyphname = four;
kernLeft = four;
kernRight = four;
lastChange = "2021-11-14 10:14:53 +0000";
layers = (
{
layerId = "F91D9E91-C1BC-4259-B0D8-112C0CBA2B8E";
shapes = (
{
closed = 1;
nodes = (
(384,0,l),
(408,169,l),
(523,169,l),
(527,188,l),
(411,188,l),
(482,697,l),
(456,697,l),
(21,190,l),
(18,169,l),
(388,169,l),
(364,0,l)
);
},
{
closed = 1;
nodes = (
(459,675,l),
(459,676,l),
(391,188,l),
(35,188,l),
(35,180,l)
);
}
);
width = 560;
},
{
layerId = "957254E3-B7AD-4837-9092-D4428001DE8E";
shapes = (
{
closed = 1;
nodes = (
(411,0,l),
(434,163,l),
(544,163,l),
(564,303,l),
(454,303,l),
(509,697,l),
(378,697,l),
(6,278,l),
(-9,163,l),
(283,163,l),
(260,0,l)
);
},
{
closed = 1;
nodes = (
(353,531,l),
(343,565,l),
(308,303,l),
(127,303,l),
(134,271,l)
);
}
);
width = 560;
},
{
layerId = m003;
shapes = (
{
closed = 1;
nodes = (
(398,0,l),
(421,166,l),
(533,166,l),
(544,245,l),
(432,245,l),
(496,697,l),
(417,697,l),
(13,233,l),
(5,166,l),
(336,166,l),
(313,0,l)
);
},
{
closed = 1;
nodes = (
(407,595,l),
(397,602,l),
(347,245,l),
(80,245,l),
(84,215,l)
);
}
);
width = 560;
}
);
note = four;
unicode = 52;
},
{
color = 1;
glyphname = five;
kernLeft = five;
kernRight = five;
lastChange = "2021-11-14 10:14:53 +0000";
layers = (
{
layerId = "F91D9E91-C1BC-4259-B0D8-112C0CBA2B8E";
shapes = (
{
closed = 1;
nodes = (
(396,-5,o),
(508,122,o),
(508,265,cs),
(508,374,o),
(435,455,o),
(323,455,cs),
(250,455,o),
(177,419,o),
(118,355,c),
(116,356,l),
(219,686,l),
(207,678,l),
(534,678,l),
(537,697,l),
(202,697,l),
(92,346,l),
(121,334,l),
(177,399,o),
(248,435,o),
(320,435,cs),
(422,435,o),
(488,364,o),
(488,264,cs),
(488,134,o),
(385,14,o),
(247,14,cs),
(145,14,o),
(76,83,o),
(68,188,c),
(48,185,l),
(57,70,o),
(134,-5,o),
(246,-5,cs)
);
}
);
width = 560;
},
{
layerId = "957254E3-B7AD-4837-9092-D4428001DE8E";
shapes = (
{
closed = 1;
nodes = (
(428,-11,o),
(540,133,o),
(540,279,cs),
(540,413,o),
(445,487,o),
(340,487,cs),
(280,487,o),
(218,463,o),
(167,411,c),
(224,411,l),
(293,620,l),
(203,557,l),
(552,557,l),
(572,697,l),
(167,697,l),
(45,326,l),
(182,288,l),
(204,319,o),
(240,346,o),
(289,346,cs),
(341,346,o),
(381,316,o),
(381,254,cs),
(381,190,o),
(337,133,o),
(262,133,cs),
(200,133,o),
(159,172,o),
(160,227,c),
(10,210,l),
(9,87,o),
(105,-11,o),
(251,-11,cs)
);
}
);
width = 560;
},
{
layerId = m003;
shapes = (
{
closed = 1;
nodes = (
(410,-8,o),
(524,122,o),
(524,263,cs),
(524,373,o),
(455,471,o),
(328,471,cs),
(261,471,o),
(197,444,o),
(145,391,c),
(170,384,l),
(256,654,l),
(205,618,l),
(544,618,l),
(555,697,l),
(186,697,l),
(70,336,l),
(151,311,l),
(192,361,o),
(247,391,o),
(309,391,cs),
(393,391,o),
(436,337,o),
(436,261,cs),
(436,164,o),
(365,73,o),
(254,73,cs),
(164,73,o),
(115,133,o),
(113,207,c),
(30,197,l),
(33,82,o),
(121,-8,o),
(252,-8,cs)
);
}
);
width = 560;
}
);
note = five;
unicode = 53;
},
{
color = 1;
glyphname = seven;
kernLeft = seven;
kernRight = seven;
lastChange = "2021-11-14 10:14:53 +0000";
layers = (
{
layerId = "F91D9E91-C1BC-4259-B0D8-112C0CBA2B8E";
shapes = (
{
closed = 1;
nodes = (
(122,0,l),
(584,673,l),
(588,697,l),
(93,697,l),
(90,678,l),
(568,678,l),
(564,677,l),
(100,0,l)
);
}
);
width = 560;
},
{
layerId = "957254E3-B7AD-4837-9092-D4428001DE8E";
shapes = (
{
closed = 1;
nodes = (
(210,0,l),
(583,589,l),
(596,697,l),
(91,697,l),
(72,557,l),
(468,557,l),
(432,617,l),
(39,0,l)
);
}
);
width = 560;
},
{
layerId = m003;
shapes = (
{
closed = 1;
nodes = (
(164,0,l),
(583,632,l),
(591,697,l),
(91,697,l),
(80,618,l),
(518,618,l),
(498,648,l),
(69,0,l)
);
}
);
width = 560;
}
);
note = seven;
unicode = 55;
},
{
color = 1;
glyphname = eight;
kernLeft = eight;
kernRight = three;
lastChange = "2021-11-14 10:14:53 +0000";
layers = (
{
layerId = "F91D9E91-C1BC-4259-B0D8-112C0CBA2B8E";
shapes = (
{
closed = 1;
nodes = (
(383,-5,o),
(487,94,o),
(487,217,cs),
(487,301,o),
(439,361,o),
(357,379,c),
(428,396,o),
(495,463,o),
(495,556,cs),
(495,644,o),
(436,702,o),
(348,702,cs),
(248,702,o),
(147,628,o),
(149,513,cs),
(150,451,o),
(181,398,o),
(242,379,c),
(124,355,o),
(56,265,o),
(56,164,cs),
(56,50,o),
(146,-5,o),
(247,-5,cs)
);
},
{
closed = 1;
nodes = (
(157,14,o),
(76,61,o),
(76,167,cs),
(76,286,o),
(180,369,o),
(299,369,cs),
(400,369,o),
(467,311,o),
(467,217,cs),
(467,106,o),
(372,14,o),
(247,14,cs)
);
},
{
closed = 1;
nodes = (
(221,386,o),
(169,435,o),
(169,513,cs),
(169,614,o),
(253,683,o),
(346,683,cs),
(424,683,o),
(476,633,o),
(476,554,cs),
(476,457,o),
(396,386,o),
(301,386,cs)
);
}
);
width = 560;
},
{
layerId = "957254E3-B7AD-4837-9092-D4428001DE8E";
shapes = (
{
closed = 1;
nodes = (
(416,-11,o),
(548,87,o),
(548,234,cs),
(548,296,o),
(525,342,o),
(485,374,c),
(536,416,o),
(555,467,o),
(555,519,cs),
(555,639,o),
(456,708,o),
(338,708,cs),
(201,708,o),
(75,616,o),
(75,487,cs),
(75,437,o),
(94,403,o),
(112,384,c),
(28,331,o),
(3,260,o),
(3,197,cs),
(3,64,o),
(115,-11,o),
(255,-11,cs)
);
},
{
closed = 1;
nodes = (
(194,129,o),
(155,163,o),
(155,215,cs),
(155,278,o),
(211,319,o),
(292,319,cs),
(361,319,o),
(400,289,o),
(400,237,cs),
(400,174,o),
(344,129,o),
(264,129,cs)
);
},
{
closed = 1;
nodes = (
(255,425,o),
(224,453,o),
(224,491,cs),
(224,537,o),
(268,572,o),
(325,572,cs),
(376,572,o),
(406,545,o),
(406,508,cs),
(406,463,o),
(362,425,o),
(304,425,cs)
);
}
);
width = 560;
},
{
layerId = m003;
shapes = (
{
closed = 1;
nodes = (
(393,-8,o),
(517,85,o),
(517,223,cs),
(517,298,o),
(481,352,o),
(419,377,c),
(486,406,o),
(525,469,o),
(524,542,cs),
(522,647,o),
(441,705,o),
(343,705,cs),
(224,705,o),
(109,618,o),
(111,499,cs),
(112,448,o),
(134,404,o),
(178,381,c),
(77,343,o),
(30,260,o),
(30,176,cs),
(30,52,o),
(134,-8,o),
(249,-8,cs)
);
},
{
closed = 1;
nodes = (
(176,72,o),
(115,107,o),
(115,189,cs),
(115,286,o),
(202,345,o),
(299,345,cs),
(380,345,o),
(434,304,o),
(434,231,cs),
(434,146,o),
(360,72,o),
(251,72,cs)
);
},
{
closed = 1;
nodes = (
(236,403,o),
(196,437,o),
(196,496,cs),
(196,573,o),
(264,625,o),
(340,625,cs),
(402,625,o),
(440,590,o),
(440,531,cs),
(440,453,o),
(373,403,o),
(298,403,cs)
);
}
);
width = 560;
}
);
note = eight;
unicode = 56;
},
{
color = 1;
glyphname = nine;
kernLeft = nine;
kernRight = nine;
lastChange = "2021-11-14 10:14:53 +0000";
layers = (
{
layerId = "F91D9E91-C1BC-4259-B0D8-112C0CBA2B8E";
shapes = (
{
closed = 1;
nodes = (
(222,0,l),
(483,363,ls),
(514,406,o),
(536,449,o),
(536,511,cs),
(536,619,o),
(454,702,o),
(343,702,cs),
(207,702,o),
(90,584,o),
(90,453,cs),
(90,345,o),
(171,262,o),
(281,262,cs),
(335,262,o),
(388,283,o),
(431,317,c),
(430,322,l),
(199,0,l)
);
},
{
closed = 1;
nodes = (
(184,280,o),
(110,356,o),
(110,453,cs),
(110,577,o),
(223,683,o),
(342,683,cs),
(443,683,o),
(516,608,o),
(516,512,cs),
(516,386,o),
(402,280,o),
(284,280,cs)
);
}
);
width = 560;
},
{
layerId = "957254E3-B7AD-4837-9092-D4428001DE8E";
shapes = (
{
closed = 1;
nodes = (
(264,0,l),
(518,322,ls),
(554,371,o),
(576,432,o),
(576,488,cs),
(576,619,o),
(473,708,o),
(336,708,cs),
(179,708,o),
(44,586,o),
(44,430,cs),
(44,308,o),
(133,220,o),
(262,220,cs),
(275,220,o),
(293,221,o),
(312,224,c),
(289,249,l),
(87,0,l)
);
},
{
closed = 1;
nodes = (
(233,353,o),
(196,382,o),
(196,434,cs),
(196,504,o),
(252,564,o),
(332,564,cs),
(384,564,o),
(422,536,o),
(422,485,cs),
(422,413,o),
(366,353,o),
(286,353,cs)
);
}
);
width = 560;
},
{
layerId = m003;
shapes = (
{
closed = 1;
nodes = (
(241,0,l),
(500,343,ls),
(533,389,o),
(555,439,o),
(555,500,cs),
(555,619,o),
(463,705,o),
(339,705,cs),
(191,705,o),
(67,585,o),
(67,443,cs),
(67,328,o),
(151,241,o),
(272,241,cs),
(303,241,o),
(339,251,o),
(371,270,c),
(359,285,l),
(143,0,l)
);
},
{
closed = 1;
nodes = (
(207,316,o),
(151,369,o),
(151,443,cs),
(151,546,o),
(241,625,o),
(336,625,cs),
(413,625,o),
(469,573,o),
(469,499,cs),
(469,395,o),
(378,316,o),
(284,316,cs)
);
}
);
width = 560;
}
);
note = nine;
unicode = 57;
},
{
glyphname = fraction;
kernLeft = fraction;
kernRight = fraction;
lastChange = "2021-11-14 10:14:53 +0000";
layers = (
{
layerId = "F91D9E91-C1BC-4259-B0D8-112C0CBA2B8E";
shapes = (
{
closed = 1;
nodes = (
(-144,0,l),
(322,697,l),
(305,697,l),
(-161,0,l)
);
}
);
width = 133;
},
{
layerId = "957254E3-B7AD-4837-9092-D4428001DE8E";
shapes = (
{
closed = 1;
nodes = (
(-84,0,l),
(450,697,l),
(341,697,l),
(-193,0,l)
);
}
);
width = 229;
},
{
layerId = m003;
shapes = (
{
closed = 1;
nodes = (
(-98,0,l),
(401,697,l),
(338,697,l),
(-161,0,l)
);
}
);
width = 212;
}
);
note = fraction;
unicode = 8260;
},
{
glyphname = onesuperior;
kernLeft = onesuperior;
kernRight = onesuperior;
lastChange = "2021-11-19 16:23:12 +0000";
layers = (
{
background = {
shapes = (
{
closed = 1;
nodes = (
(567,488,l),
(568,498,l),
(298,498,l),
(299,503,l),
(428,578,o),
(568,665,o),
(585,788,cs),
(586,796,o),
(587,803,o),
(587,810,cs),
(587,870,o),
(549,905,o),
(484,905,cs),
(405,905,o),
(355,855,o),
(343,772,c),
(353,772,l),
(364,849,o),
(412,895,o),
(484,895,cs),
(543,895,o),
(577,864,o),
(577,811,cs),
(577,677,o),
(419,584,o),
(283,504,c),
(281,488,l)
);
}
);
};
layerId = "F91D9E91-C1BC-4259-B0D8-112C0CBA2B8E";
shapes = (
{
alignment = -1;
pos = (109,488);
ref = one;
scale = (0.6,0.6);
}
);
width = 477;
},
{
background = {
shapes = (
{
closed = 1;
nodes = (
(678,488,l),
(689,560,l),
(470,560,l),
(494,551,l),
(577,588,o),
(686,681,o),
(698,769,cs),
(699,777,o),
(700,785,o),
(700,793,cs),
(700,867,o),
(648,908,o),
(575,908,cs),
(486,908,o),
(427,835,o),
(417,759,c),
(493,745,l),
(500,785,o),
(525,836,o),
(581,836,cs),
(616,836,o),
(624,814,o),
(621,789,cs),
(606,686,o),
(443,593,o),
(368,552,c),
(363,488,l)
);
}
);
};
layerId = "957254E3-B7AD-4837-9092-D4428001DE8E";
shapes = (
{
alignment = -1;
pos = (88,488);
ref = one;
scale = (0.6,0.6);
}
);
width = 429;
},
{
background = {
shapes = (
{
closed = 1;
nodes = (
(647,488,l),
(653,531,l),
(411,531,l),
(423,528,l),
(536,587,o),
(669,686,o),
(669,800,cs),
(669,868,o),
(623,907,o),
(553,907,cs),
(469,907,o),
(414,844,o),
(404,766,c),
(448,758,l),
(458,819,o),
(497,864,o),
(556,864,cs),
(601,864,o),
(622,840,o),
(622,804,cs),
(622,799,o),
(622,794,o),
(621,789,cs),
(605,677,o),
(451,588,o),
(349,530,c),
(346,488,l)
);
}
);
};
layerId = m003;
shapes = (
{
alignment = -1;
pos = (98,488);
ref = one;
scale = (0.6,0.6);
}
);
width = 453;
}
);
metricLeft = one;
metricRight = one;
unicode = 185;
},
{
glyphname = .notdef;
lastChange = "2021-11-14 10:14:53 +0000";
layers = (
{
layerId = "F91D9E91-C1BC-4259-B0D8-112C0CBA2B8E";
shapes = (
{
closed = 1;
nodes = (
(463,0,l),
(463,476,l),
(50,476,l),
(50,0,l)
);
},
{
closed = 1;
nodes = (
(63,463,l),
(451,463,l),
(451,13,l),
(63,13,l)
);
}
);
width = 513;
},
{
layerId = "957254E3-B7AD-4837-9092-D4428001DE8E";
shapes = (
{
closed = 1;
nodes = (
(454,0,l),
(454,471,l),
(50,471,l),
(50,0,l)
);
},
{
closed = 1;
nodes = (
(100,420,l),
(403,420,l),
(403,51,l),
(100,51,l)
);
}
);
width = 504;
},
{
layerId = m003;
shapes = (
{
closed = 1;
nodes = (
(459,0,l),
(459,474,l),
(50,474,l),
(50,0,l)
);
},
{
closed = 1;
nodes = (
(81,442,l),
(428,442,l),
(428,32,l),
(81,32,l)
);
}
);
width = 509;
}
);
note = ".notdef";
},
{
color = 1;
glyphname = period;
kernLeft = period;
kernRight = comma;
lastChange = "2021-11-14 11:14:48 +0000";
layers = (
{
layerId = "F91D9E91-C1BC-4259-B0D8-112C0CBA2B8E";
shapes = (
{
closed = 1;
nodes = (
(98,0,l),
(112,91,l),
(84,91,l),
(71,0,l)
);
}
);
width = 240;
},
{
layerId = "957254E3-B7AD-4837-9092-D4428001DE8E";
shapes = (
{
closed = 1;
nodes = (
(162,0,l),
(182,142,l),
(28,142,l),
(8,0,l)
);
}
);
width = 240;
},
{
layerId = m003;
shapes = (
{
closed = 1;
nodes = (
(135,0,l),
(151,116,l),
(51,116,l),
(35,0,l)
);
}
);
width = 240;
}
);
note = period;
unicode = 46;
},
{
color = 1;
glyphname = comma;
kernLeft = comma;
kernRight = comma;
lastChange = "2021-11-14 10:14:53 +0000";
layers = (
{
layerId = "F91D9E91-C1BC-4259-B0D8-112C0CBA2B8E";
shapes = (
{
closed = 1;
nodes = (
(-6,-161,l),
(172,131,l),
(150,131,l),
(-24,-161,l)
);
}
);
width = 240;
},
{
layerId = "957254E3-B7AD-4837-9092-D4428001DE8E";
shapes = (
{
closed = 1;
nodes = (
(70,-145,l),
(237,162,l),
(66,162,l),
(-29,-145,l)
);
}
);
width = 240;
},
{
layerId = m003;
shapes = (
{
closed = 1;
nodes = (
(25,-154,l),
(198,147,l),
(102,147,l),
(-33,-154,l)
);
}
);
width = 240;
}
);
note = comma;
unicode = 44;
},
{
color = 1;
glyphname = colon;
kernLeft = colon;
kernRight = colon;
lastChange = "2021-11-14 10:14:53 +0000";
layers = (
{
layerId = "F91D9E91-C1BC-4259-B0D8-112C0CBA2B8E";
shapes = (
{
closed = 1;
nodes = (
(152,380,l),
(165,471,l),
(138,471,l),
(124,380,l)
);
},
{
closed = 1;
nodes = (
(98,0,l),
(112,91,l),
(85,91,l),
(71,0,l)
);
}
);
width = 239;
},
{
layerId = "957254E3-B7AD-4837-9092-D4428001DE8E";
shapes = (
{
closed = 1;
nodes = (
(209,327,l),
(230,471,l),
(74,471,l),
(53,327,l)
);
},
{
closed = 1;
nodes = (
(163,0,l),
(183,142,l),
(27,142,l),
(7,0,l)
);
}
);
width = 240;
},
{
layerId = m003;
shapes = (
{
closed = 1;
nodes = (
(185,354,l),
(202,471,l),
(102,471,l),
(85,354,l)
);
},
{
closed = 1;
nodes = (
(135,0,l),
(152,116,l),
(52,116,l),
(35,0,l)
);
}
);
width = 240;
}
);
note = colon;
unicode = 58;
},
{
color = 1;
glyphname = semicolon;
kernLeft = semicolon;
kernRight = colon;
lastChange = "2021-11-14 10:14:53 +0000";
layers = (
{
layerId = "F91D9E91-C1BC-4259-B0D8-112C0CBA2B8E";
shapes = (
{
closed = 1;
nodes = (
(-20,-161,l),
(158,128,l),
(136,128,l),
(-38,-161,l)
);
},
{
closed = 1;
nodes = (
(177,380,l),
(191,471,l),
(164,471,l),
(150,380,l)
);
}
);
width = 241;
},
{
layerId = "957254E3-B7AD-4837-9092-D4428001DE8E";
shapes = (
{
closed = 1;
nodes = (
(51,-145,l),
(212,131,l),
(41,131,l),
(-51,-145,l)
);
},
{
closed = 1;
nodes = (
(225,327,l),
(245,471,l),
(88,471,l),
(68,327,l)
);
}
);
width = 240;
},
{
layerId = m003;
shapes = (
{
closed = 1;
nodes = (
(11,-154,l),
(181,130,l),
(85,130,l),
(-48,-154,l)
);
},
{
closed = 1;
nodes = (
(201,354,l),
(218,471,l),
(118,471,l),
(101,354,l)
);
}
);
width = 240;
}
);
note = semicolon;
unicode = 59;
},
{
color = 1;
glyphname = ellipsis;
kernLeft = period;
kernRight = comma;
lastChange = "2021-11-14 10:14:53 +0000";
layers = (
{
layerId = "F91D9E91-C1BC-4259-B0D8-112C0CBA2B8E";
shapes = (
{
closed = 1;
nodes = (
(509,0,l),
(522,91,l),
(497,91,l),
(483,0,l)
);
},
{
closed = 1;
nodes = (
(97,0,l),
(110,91,l),
(84,91,l),
(71,0,l)
);
},
{
closed = 1;
nodes = (
(303,0,l),
(316,91,l),
(291,91,l),
(277,0,l)
);
}
);
width = 650;
},
{
layerId = "957254E3-B7AD-4837-9092-D4428001DE8E";
shapes = (
{
closed = 1;
nodes = (
(630,0,l),
(650,142,l),
(496,142,l),
(476,0,l)
);
},
{
closed = 1;
nodes = (
(162,0,l),
(182,142,l),
(28,142,l),
(8,0,l)
);
},
{
closed = 1;
nodes = (
(396,0,l),
(416,142,l),
(262,142,l),
(242,0,l)
);
}
);
width = 708;
},
{
layerId = m003;
shapes = (
{
closed = 1;
nodes = (
(563,0,l),
(580,116,l),
(491,116,l),
(474,0,l)
);
},
{
closed = 1;
nodes = (
(123,0,l),
(140,116,l),
(51,116,l),
(35,0,l)
);
},
{
closed = 1;
nodes = (
(344,0,l),
(360,116,l),
(271,116,l),
(255,0,l)
);
}
);
width = 668;
}
);
metricLeft = period;
metricRight = period;
note = ellipsis;
unicode = 8230;
},
{
color = 1;
glyphname = exclam;
kernLeft = exclam;
kernRight = exclam;
lastChange = "2021-11-14 10:14:53 +0000";
layers = (
{
layerId = "F91D9E91-C1BC-4259-B0D8-112C0CBA2B8E";
shapes = (
{
closed = 1;
nodes = (
(88,185,l),
(161,697,l),
(140,697,l),
(69,185,l)
);
},
{
closed = 1;
nodes = (
(65,0,l),
(79,91,l),
(52,91,l),
(38,0,l)
);
}
);
width = 174;
},
{
layerId = "957254E3-B7AD-4837-9092-D4428001DE8E";
shapes = (
{
closed = 1;
nodes = (
(183,219,l),
(268,697,l),
(119,697,l),
(69,219,l)
);
},
{
closed = 1;
nodes = (
(173,0,l),
(193,142,l),
(37,142,l),
(17,0,l)
);
}
);
width = 260;
},
{
layerId = m003;
shapes = (
{
closed = 1;
nodes = (
(147,202,l),
(226,697,l),
(141,697,l),
(81,202,l)
);
},
{
closed = 1;
nodes = (
(135,0,l),
(152,116,l),
(52,116,l),
(35,0,l)
);
}
);
width = 240;
}
);
note = exclam;
unicode = 33;
},
{
color = 1;
glyphname = question;
kernLeft = question;
kernRight = question;
lastChange = "2021-11-14 10:14:53 +0000";
layers = (
{
layerId = "F91D9E91-C1BC-4259-B0D8-112C0CBA2B8E";
shapes = (
{
closed = 1;
nodes = (
(237,183,l),
(249,265,ls),
(258,328,o),
(300,352,o),
(346,378,cs),
(436,428,o),
(473,470,o),
(473,550,cs),
(473,641,o),
(409,702,o),
(297,702,cs),
(185,702,o),
(98,637,o),
(81,528,c),
(100,528,l),
(114,623,o),
(191,684,o),
(296,684,cs),
(399,684,o),
(455,629,o),
(455,549,cs),
(455,481,o),
(420,440,o),
(337,393,cs),
(289,365,o),
(241,340,o),
(231,270,cs),
(219,183,l)
);
},
{
closed = 1;
nodes = (
(216,0,l),
(229,91,l),
(202,91,l),
(189,0,l)
);
}
);
width = 481;
},
{
layerId = "957254E3-B7AD-4837-9092-D4428001DE8E";
shapes = (
{
closed = 1;
nodes = (
(312,217,l),
(314,228,ls),
(323,278,o),
(354,306,o),
(401,340,cs),
(476,394,o),
(520,440,o),
(520,532,cs),
(520,651,o),
(423,708,o),
(316,708,cs),
(179,708,o),
(80,629,o),
(59,481,c),
(191,473,l),
(200,543,o),
(242,583,o),
(316,583,cs),
(362,583,o),
(389,559,o),
(389,528,cs),
(389,483,o),
(352,461,o),
(312,431,cs),
(262,393,o),
(204,351,o),
(190,247,cs),
(186,217,l)
);
},
{
closed = 1;
nodes = (
(298,0,l),
(318,142,l),
(163,142,l),
(143,0,l)
);
}
);
width = 514;
},
{
layerId = m003;
shapes = (
{
closed = 1;
nodes = (
(284,200,l),
(291,249,ls),
(299,305,o),
(338,332,o),
(382,360,cs),
(467,413,o),
(505,449,o),
(505,542,cs),
(505,646,o),
(427,705,o),
(318,705,cs),
(195,705,o),
(99,635,o),
(79,505,c),
(154,501,l),
(165,583,o),
(226,634,o),
(316,634,cs),
(390,634,o),
(431,595,o),
(431,538,cs),
(431,470,o),
(392,449,o),
(334,411,cs),
(284,378,o),
(233,343,o),
(220,259,cs),
(211,200,l)
);
},
{
closed = 1;
nodes = (
(271,0,l),
(287,116,l),
(187,116,l),
(171,0,l)
);
}
);
width = 516;
}
);
note = question;
unicode = 63;
},
{
color = 1;
glyphname = periodcentered;
kernLeft = periodcentered;
kernRight = periodcentered;
lastChange = "2021-11-14 10:14:53 +0000";
layers = (
{
layerId = "F91D9E91-C1BC-4259-B0D8-112C0CBA2B8E";
shapes = (
{
closed = 1;
nodes = (
(144,303,l),
(157,394,l),
(130,394,l),
(117,303,l)
);
}
);
width = 262;
},
{
layerId = "957254E3-B7AD-4837-9092-D4428001DE8E";
shapes = (
{
closed = 1;
nodes = (
(220,278,l),
(240,420,l),
(100,420,l),
(80,278,l)
);
}
);
width = 290;
},
{
layerId = m003;
shapes = (
{
closed = 1;
nodes = (
(215,291,l),
(231,407,l),
(131,407,l),
(115,291,l)
);
}
);
width = 334;
}
);
note = periodcentered;
unicode = 183;
},
{
color = 1;
glyphname = bullet;
kernLeft = bullet;
kernRight = bullet;
lastChange = "2021-11-14 10:14:53 +0000";
layers = (
{
layerId = "F91D9E91-C1BC-4259-B0D8-112C0CBA2B8E";
shapes = (
{
closed = 1;
nodes = (
(224,162,l),
(247,332,l),
(77,332,l),
(54,162,l)
);
}
);
width = 301;
},
{
layerId = "957254E3-B7AD-4837-9092-D4428001DE8E";
shapes = (
{
closed = 1;
nodes = (
(320,110,l),
(358,384,l),
(85,384,l),
(47,110,l)
);
}
);
width = 405;
},
{
layerId = m003;
shapes = (
{
closed = 1;
nodes = (
(271,137,l),
(302,358,l),
(82,358,l),
(51,137,l)
);
}
);
width = 353;
}
);
note = bullet;
unicode = 8226;
},
{
color = 1;
glyphname = asterisk;
kernLeft = asterisk;
kernRight = asterisk;
lastChange = "2021-11-14 10:14:53 +0000";
layers = (
{
layerId = "F91D9E91-C1BC-4259-B0D8-112C0CBA2B8E";
shapes = (
{
closed = 1;
nodes = (
(224,532,l),
(294,417,l),
(305,424,l),
(235,540,l),
(378,587,l),
(376,598,l),
(234,553,l),
(253,697,l),
(240,697,l),
(220,553,l),
(91,598,l),
(84,587,l),
(214,540,l),
(113,424,l),
(123,417,l)
);
}
);
width = 367;
},
{
layerId = "957254E3-B7AD-4837-9092-D4428001DE8E";
shapes = (
{
closed = 1;
nodes = (
(237,489,l),
(280,373,l),
(358,428,l),
(279,519,l),
(409,539,l),
(394,629,l),
(271,570,l),
(310,697,l),
(218,697,l),
(219,570,l),
(110,629,l),
(71,539,l),
(195,519,l),
(92,428,l),
(160,373,l)
);
}
);
width = 400;
},
{
layerId = m003;
shapes = (
{
closed = 1;
nodes = (
(238,511,l),
(294,395,l),
(338,426,l),
(265,530,l),
(401,564,l),
(393,614,l),
(260,562,l),
(288,697,l),
(236,697,l),
(227,562,l),
(108,614,l),
(85,564,l),
(212,530,l),
(111,426,l),
(148,395,l)
);
}
);
width = 398;
}
);
note = asterisk;
unicode = 42;
},
{
color = 1;
glyphname = numbersign;
kernLeft = numbersign;
kernRight = numbersign;
lastChange = "2021-11-14 10:14:53 +0000";
layers = (
{
layerId = "F91D9E91-C1BC-4259-B0D8-112C0CBA2B8E";
shapes = (
{
closed = 1;
nodes = (
(115,0,l),
(190,218,l),
(408,218,l),
(332,0,l),
(351,0,l),
(426,218,l),
(573,218,l),
(576,234,l),
(433,234,l),
(516,477,l),
(653,477,l),
(655,494,l),
(522,494,l),
(592,697,l),
(574,697,l),
(504,494,l),
(287,494,l),
(356,697,l),
(339,697,l),
(268,494,l),
(125,494,l),
(122,477,l),
(262,477,l),
(178,234,l),
(46,234,l),
(43,218,l),
(173,218,l),
(97,0,l)
);
},
{
closed = 1;
nodes = (
(281,477,l),
(497,477,l),
(413,234,l),
(197,234,l)
);
}
);
width = 668;
},
{
layerId = "957254E3-B7AD-4837-9092-D4428001DE8E";
shapes = (
{
closed = 1;
nodes = (
(189,0,l),
(259,200,l),
(352,200,l),
(280,0,l),
(399,0,l),
(471,200,l),
(606,200,l),
(621,306,l),
(508,306,l),
(543,400,l),
(674,400,l),
(689,506,l),
(580,506,l),
(653,697,l),
(532,697,l),
(463,506,l),
(371,506,l),
(443,697,l),
(322,697,l),
(251,511,l),
(116,511,l),
(100,400,l),
(212,400,l),
(179,306,l),
(47,306,l),
(32,200,l),
(142,200,l),
(70,0,l)
);
},
{
closed = 1;
nodes = (
(331,400,l),
(423,400,l),
(392,306,l),
(300,306,l)
);
}
);
width = 691;
},
{
layerId = m003;
shapes = (
{
closed = 1;
nodes = (
(161,0,l),
(234,209,l),
(390,209,l),
(316,0,l),
(384,0,l),
(458,209,l),
(599,209,l),
(608,270,l),
(479,270,l),
(539,439,l),
(673,439,l),
(682,500,l),
(561,500,l),
(632,697,l),
(563,697,l),
(493,500,l),
(338,500,l),
(408,697,l),
(340,697,l),
(269,503,l),
(130,503,l),
(121,439,l),
(247,439,l),
(188,270,l),
(56,270,l),
(47,209,l),
(167,209,l),
(93,0,l)
);
},
{
closed = 1;
nodes = (
(315,439,l),
(470,439,l),
(412,270,l),
(257,270,l)
);
}
);
width = 699;
}
);
note = numbersign;
unicode = 35;
},
{
color = 1;
glyphname = slash;
kernLeft = slash;
kernRight = slash;
lastChange = "2021-11-14 10:14:53 +0000";
layers = (
{
layerId = "F91D9E91-C1BC-4259-B0D8-112C0CBA2B8E";
shapes = (
{
closed = 1;
nodes = (
(-87,-209,l),
(391,697,l),
(371,697,l),
(-106,-209,l)
);
}
);
width = 365;
},
{
layerId = "957254E3-B7AD-4837-9092-D4428001DE8E";
shapes = (
{
closed = 1;
nodes = (
(-20,-212,l),
(473,697,l),
(357,697,l),
(-135,-212,l)
);
}
);
width = 422;
},
{
layerId = m003;
shapes = (
{
closed = 1;
nodes = (
(-41,-211,l),
(445,697,l),
(378,697,l),
(-107,-211,l)
);
}
);
width = 418;
}
);
note = slash;
unicode = 47;
},
{
color = 1;
glyphname = triangularbullet;
lastChange = "2021-11-14 10:14:53 +0000";
layers = (
{
layerId = "F91D9E91-C1BC-4259-B0D8-112C0CBA2B8E";
shapes = (
{
closed = 1;
nodes = (
(271,239,l),
(82,353,l),
(49,123,l)
);
}
);
width = 292;
},
{
layerId = "957254E3-B7AD-4837-9092-D4428001DE8E";
shapes = (
{
closed = 1;
nodes = (
(436,271,l),
(100,486,l),
(41,55,l)
);
}
);
width = 448;
},
{
layerId = m003;
shapes = (
{
closed = 1;
nodes = (
(352,255,l),
(91,419,l),
(45,90,l)
);
}
);
width = 371;
}
);
note = uni2023;
unicode = 8227;
},
{
color = 1;
glyphname = twodotenleader;
kernLeft = period;
kernRight = comma;
lastChange = "2021-11-14 10:14:53 +0000";
layers = (
{
layerId = "F91D9E91-C1BC-4259-B0D8-112C0CBA2B8E";
shapes = (
{
closed = 1;
nodes = (
(302,0,l),
(316,91,l),
(288,91,l),
(275,0,l)
);
},
{
closed = 1;
nodes = (
(98,0,l),
(112,91,l),
(84,91,l),
(71,0,l)
);
}
);
width = 444;
},
{
layerId = "957254E3-B7AD-4837-9092-D4428001DE8E";
shapes = (
{
closed = 1;
nodes = (
(364,0,l),
(384,142,l),
(232,142,l),
(212,0,l)
);
},
{
closed = 1;
nodes = (
(160,0,l),
(180,142,l),
(28,142,l),
(8,0,l)
);
}
);
width = 442;
},
{
layerId = m003;
shapes = (
{
closed = 1;
nodes = (
(339,0,l),
(355,116,l),
(255,116,l),
(239,0,l)
);
},
{
closed = 1;
nodes = (
(135,0,l),
(151,116,l),
(51,116,l),
(35,0,l)
);
}
);
width = 444;
}
);
metricLeft = period;
metricRight = period;
note = twodotenleader;
unicode = 8229;
},
{
color = 1;
glyphname = period.ss03;
kernLeft = comma;
kernRight = comma;
lastChange = "2022-11-03 19:36:33 +0000";
layers = (
{
layerId = "F91D9E91-C1BC-4259-B0D8-112C0CBA2B8E";
shapes = (
{
closed = 1;
nodes = (
(109,-5,o),
(121,8,o),
(121,22,cs),
(121,35,o),
(112,44,o),
(100,44,cs),
(86,44,o),
(73,31,o),
(73,16,cs),
(73,4,o),
(82,-5,o),
(95,-5,cs)
);
}
);
width = 257;
},
{
layerId = "957254E3-B7AD-4837-9092-D4428001DE8E";
shapes = (
{
closed = 1;
nodes = (
(177,-11,o),
(217,31,o),
(217,81,cs),
(217,126,o),
(183,160,o),
(136,160,cs),
(87,160,o),
(48,119,o),
(48,69,cs),
(48,23,o),
(82,-11,o),
(128,-11,cs)
);
}
);
width = 312;
},
{
layerId = m003;
shapes = (
{
closed = 1;
nodes = (
(159,-8,o),
(186,18,o),
(186,49,cs),
(186,79,o),
(165,101,o),
(135,101,cs),
(105,101,o),
(78,75,o),
(78,44,cs),
(78,15,o),
(99,-8,o),
(129,-8,cs)
);
}
);
width = 319;
}
);
note = period;
},
{
color = 1;
glyphname = colon.ss03;
kernLeft = colon;
kernRight = colon;
lastChange = "2022-11-03 19:36:33 +0000";
layers = (
{
layerId = "F91D9E91-C1BC-4259-B0D8-112C0CBA2B8E";
shapes = (
{
closed = 1;
nodes = (
(167,400,o),
(179,413,o),
(179,427,cs),
(179,440,o),
(170,449,o),
(158,449,cs),
(143,449,o),
(130,436,o),
(130,423,cs),
(130,410,o),
(140,400,o),
(152,400,cs)
);
},
{
closed = 1;
nodes = (
(110,-5,o),
(122,8,o),
(122,22,cs),
(122,35,o),
(113,44,o),
(101,44,cs),
(87,44,o),
(74,31,o),
(74,16,cs),
(74,4,o),
(83,-5,o),
(96,-5,cs)
);
}
);
width = 259;
},
{
layerId = "957254E3-B7AD-4837-9092-D4428001DE8E";
shapes = (
{
closed = 1;
nodes = (
(220,301,o),
(260,342,o),
(260,391,cs),
(260,438,o),
(227,472,o),
(179,472,cs),
(131,472,o),
(90,432,o),
(90,383,cs),
(90,336,o),
(124,301,o),
(171,301,cs)
);
},
{
closed = 1;
nodes = (
(176,-11,o),
(216,31,o),
(216,81,cs),
(216,126,o),
(182,160,o),
(135,160,cs),
(86,160,o),
(47,119,o),
(47,69,cs),
(47,23,o),
(81,-11,o),
(127,-11,cs)
);
}
);
width = 311;
},
{
layerId = m003;
shapes = (
{
closed = 1;
nodes = (
(209,351,o),
(236,378,o),
(236,410,cs),
(236,439,o),
(214,460,o),
(184,460,cs),
(153,460,o),
(127,434,o),
(127,402,cs),
(127,373,o),
(149,351,o),
(178,351,cs)
);
},
{
closed = 1;
nodes = (
(158,-8,o),
(185,18,o),
(185,49,cs),
(185,79,o),
(164,101,o),
(134,101,cs),
(104,101,o),
(77,76,o),
(77,44,cs),
(77,15,o),
(98,-8,o),
(128,-8,cs)
);
}
);
width = 319;
}
);
note = colon;
},
{
color = 1;
glyphname = semicolon.ss03;
kernLeft = colon;
kernRight = colon;
lastChange = "2022-11-03 19:36:33 +0000";
layers = (
{
layerId = "F91D9E91-C1BC-4259-B0D8-112C0CBA2B8E";
shapes = (
{
closed = 1;
nodes = (
(-8,-161,l),
(170,128,l),
(148,128,l),
(-26,-161,l)
);
},
{
closed = 1;
nodes = (
(203,400,o),
(215,413,o),
(215,427,cs),
(215,439,o),
(206,449,o),
(193,449,cs),
(179,449,o),
(166,436,o),
(166,423,cs),
(166,410,o),
(176,400,o),
(188,400,cs)
);
}
);
width = 254;
},
{
layerId = "957254E3-B7AD-4837-9092-D4428001DE8E";
shapes = (
{
closed = 1;
nodes = (
(66,-145,l),
(227,131,l),
(56,131,l),
(-36,-145,l)
);
},
{
closed = 1;
nodes = (
(218,301,o),
(258,342,o),
(258,391,cs),
(258,438,o),
(225,472,o),
(177,472,cs),
(129,472,o),
(88,432,o),
(88,383,cs),
(88,336,o),
(122,301,o),
(169,301,cs)
);
}
);
width = 284;
},
{
layerId = m003;
shapes = (
{
closed = 1;
nodes = (
(35,-154,l),
(204,130,l),
(108,130,l),
(-25,-154,l)
);
},
{
closed = 1;
nodes = (
(216,351,o),
(242,378,o),
(242,410,cs),
(242,439,o),
(220,460,o),
(191,460,cs),
(160,460,o),
(134,434,o),
(134,402,cs),
(134,373,o),
(156,351,o),
(185,351,cs)
);
}
);
width = 284;
}
);
note = semicolon;
},
{
color = 1;
glyphname = ellipsis.ss03;
kernLeft = comma;
kernRight = comma;
lastChange = "2022-11-03 19:36:33 +0000";
layers = (
{
layerId = "F91D9E91-C1BC-4259-B0D8-112C0CBA2B8E";
shapes = (
{
closed = 1;
nodes = (
(486,-5,o),
(498,8,o),
(498,22,cs),
(498,35,o),
(489,44,o),
(477,44,cs),
(462,44,o),
(450,30,o),
(450,16,cs),
(450,4,o),
(459,-5,o),
(472,-5,cs)
);
},
{
closed = 1;
nodes = (
(109,-5,o),
(121,8,o),
(121,22,cs),
(121,35,o),
(112,44,o),
(100,44,cs),
(86,44,o),
(73,31,o),
(73,16,cs),
(73,4,o),
(82,-5,o),
(95,-5,cs)
);
},
{
closed = 1;
nodes = (
(297,-5,o),
(310,8,o),
(310,22,cs),
(310,34,o),
(301,44,o),
(288,44,cs),
(274,44,o),
(262,31,o),
(262,16,cs),
(262,4,o),
(271,-5,o),
(283,-5,cs)
);
}
);
width = 634;
},
{
layerId = "957254E3-B7AD-4837-9092-D4428001DE8E";
shapes = (
{
closed = 1;
nodes = (
(568,-11,o),
(609,30,o),
(609,79,cs),
(609,125,o),
(576,159,o),
(528,159,cs),
(479,159,o),
(441,118,o),
(441,69,cs),
(441,23,o),
(474,-11,o),
(520,-11,cs)
);
},
{
closed = 1;
nodes = (
(177,-11,o),
(216,30,o),
(216,79,cs),
(216,125,o),
(183,159,o),
(136,159,cs),
(87,159,o),
(48,118,o),
(48,69,cs),
(48,23,o),
(82,-11,o),
(128,-11,cs)
);
},
{
closed = 1;
nodes = (
(373,-11,o),
(412,30,o),
(412,79,cs),
(412,125,o),
(379,159,o),
(332,159,cs),
(283,159,o),
(245,118,o),
(245,69,cs),
(245,23,o),
(278,-11,o),
(324,-11,cs)
);
}
);
width = 704;
},
{
layerId = m003;
shapes = (
{
closed = 1;
nodes = (
(543,-8,o),
(570,18,o),
(570,49,cs),
(570,79,o),
(549,101,o),
(519,101,cs),
(488,101,o),
(462,73,o),
(462,43,cs),
(462,14,o),
(485,-8,o),
(513,-8,cs)
);
},
{
closed = 1;
nodes = (
(160,-8,o),
(186,19,o),
(186,51,cs),
(186,79,o),
(164,101,o),
(135,101,cs),
(105,101,o),
(78,75,o),
(78,44,cs),
(78,15,o),
(99,-8,o),
(129,-8,cs)
);
},
{
closed = 1;
nodes = (
(352,-8,o),
(378,19,o),
(378,51,cs),
(378,79,o),
(357,101,o),
(327,101,cs),
(297,101,o),
(271,75,o),
(271,44,cs),
(271,15,o),
(292,-8,o),
(321,-8,cs)
);
}
);
width = 703;
}
);
metricLeft = period.ss03;
metricRight = period.ss03;
note = ellipsis;
},
{
color = 1;
glyphname = exclam.ss03;
kernLeft = exclam;
kernRight = exclam;
lastChange = "2022-11-03 19:36:33 +0000";
layers = (
{
layerId = "F91D9E91-C1BC-4259-B0D8-112C0CBA2B8E";
shapes = (
{
closed = 1;
nodes = (
(81,185,l),
(154,697,l),
(133,697,l),
(63,185,l)
);
},
{
closed = 1;
nodes = (
(60,-5,o),
(72,8,o),
(72,22,cs),
(72,35,o),
(63,44,o),
(51,44,cs),
(36,44,o),
(24,31,o),
(24,16,cs),
(24,4,o),
(33,-5,o),
(46,-5,cs)
);
}
);
width = 160;
},
{
layerId = "957254E3-B7AD-4837-9092-D4428001DE8E";
shapes = (
{
closed = 1;
nodes = (
(188,219,l),
(273,697,l),
(124,697,l),
(74,219,l)
);
},
{
closed = 1;
nodes = (
(156,-11,o),
(195,31,o),
(195,82,cs),
(195,127,o),
(162,161,o),
(114,161,cs),
(64,161,o),
(26,120,o),
(26,70,cs),
(26,23,o),
(60,-11,o),
(106,-11,cs)
);
}
);
width = 271;
},
{
layerId = m003;
shapes = (
{
closed = 1;
nodes = (
(136,202,l),
(215,697,l),
(131,697,l),
(70,202,l)
);
},
{
closed = 1;
nodes = (
(108,-8,o),
(135,18,o),
(135,50,cs),
(135,79,o),
(114,101,o),
(84,101,cs),
(52,101,o),
(27,76,o),
(27,45,cs),
(27,15,o),
(48,-8,o),
(78,-8,cs)
);
}
);
width = 219;
}
);
note = exclam;
},
{
color = 1;
glyphname = exclamdown.ss03;
kernLeft = exclamdown;
kernRight = exclamdown;
lastChange = "2022-11-03 19:36:33 +0000";
layers = (
{
layerId = "F91D9E91-C1BC-4259-B0D8-112C0CBA2B8E";
shapes = (
{
closed = 1;
nodes = (
(27,-204,l),
(97,308,l),
(79,308,l),
(6,-204,l)
);
},
{
closed = 1;
nodes = (
(123,449,o),
(136,462,o),
(136,477,cs),
(136,489,o),
(127,498,o),
(114,498,cs),
(100,498,o),
(88,485,o),
(88,471,cs),
(88,458,o),
(97,449,o),
(109,449,cs)
);
}
);
width = 159;
},
{
layerId = "957254E3-B7AD-4837-9092-D4428001DE8E";
shapes = (
{
closed = 1;
nodes = (
(147,-204,l),
(197,274,l),
(83,274,l),
(-2,-204,l)
);
},
{
closed = 1;
nodes = (
(204,333,o),
(245,373,o),
(245,422,cs),
(245,469,o),
(211,504,o),
(164,504,cs),
(115,504,o),
(75,463,o),
(75,414,cs),
(75,367,o),
(108,333,o),
(156,333,cs)
);
}
);
width = 271;
},
{
layerId = m003;
shapes = (
{
closed = 1;
nodes = (
(88,-204,l),
(148,292,l),
(83,292,l),
(4,-204,l)
);
},
{
closed = 1;
nodes = (
(165,392,o),
(192,419,o),
(192,451,cs),
(192,479,o),
(169,501,o),
(141,501,cs),
(109,501,o),
(83,473,o),
(83,442,cs),
(83,413,o),
(105,392,o),
(135,392,cs)
);
}
);
width = 218;
}
);
note = exclamdown;
},
{
color = 1;
glyphname = question.ss03;
kernLeft = question;
kernRight = question;
lastChange = "2022-11-03 19:36:33 +0000";
layers = (
{
layerId = "F91D9E91-C1BC-4259-B0D8-112C0CBA2B8E";
shapes = (
{
closed = 1;
nodes = (
(207,183,l),
(219,269,ls),
(237,395,o),
(417,355,o),
(441,529,cs),
(442,537,o),
(443,547,o),
(443,560,cs),
(443,652,o),
(378,702,o),
(267,702,cs),
(155,702,o),
(68,637,o),
(51,528,c),
(70,528,l),
(84,623,o),
(161,684,o),
(266,684,cs),
(369,684,o),
(425,639,o),
(425,559,cs),
(425,556,o),
(424,542,o),
(423,533,cs),
(403,383,o),
(220,409,o),
(201,270,cs),
(189,183,l)
);
},
{
closed = 1;
nodes = (
(187,-5,o),
(199,8,o),
(199,22,cs),
(199,35,o),
(190,44,o),
(178,44,cs),
(164,44,o),
(151,31,o),
(151,16,cs),
(151,4,o),
(160,-5,o),
(173,-5,cs)
);
}
);
width = 419;
},
{
layerId = "957254E3-B7AD-4837-9092-D4428001DE8E";
shapes = (
{
closed = 1;
nodes = (
(300,217,l),
(301,228,ls),
(318,349,o),
(480,341,o),
(504,506,cs),
(506,519,o),
(507,531,o),
(507,542,cs),
(507,661,o),
(415,708,o),
(308,708,cs),
(171,708,o),
(67,629,o),
(46,481,c),
(178,473,l),
(187,543,o),
(229,583,o),
(303,583,cs),
(349,583,o),
(376,569,o),
(376,537,cs),
(376,534,o),
(376,533,o),
(375,526,cs),
(361,429,o),
(203,428,o),
(177,247,cs),
(173,217,l)
);
},
{
closed = 1;
nodes = (
(265,-11,o),
(305,30,o),
(305,79,cs),
(305,126,o),
(272,160,o),
(224,160,cs),
(176,160,o),
(135,120,o),
(135,71,cs),
(135,24,o),
(169,-11,o),
(216,-11,cs)
);
}
);
width = 485;
},
{
layerId = m003;
shapes = (
{
closed = 1;
nodes = (
(253,200,l),
(260,249,ls),
(277,372,o),
(447,342,o),
(472,519,cs),
(474,533,o),
(474,541,o),
(474,552,cs),
(474,656,o),
(396,705,o),
(287,705,cs),
(164,705,o),
(68,635,o),
(48,505,c),
(123,501,l),
(134,583,o),
(195,634,o),
(285,634,cs),
(359,634,o),
(400,605,o),
(400,548,cs),
(400,539,o),
(400,536,o),
(399,529,cs),
(381,401,o),
(211,418,o),
(189,259,cs),
(180,200,l)
);
},
{
closed = 1;
nodes = (
(225,-8,o),
(251,20,o),
(251,51,cs),
(251,80,o),
(230,101,o),
(200,101,cs),
(169,101,o),
(142,74,o),
(142,42,cs),
(142,14,o),
(165,-8,o),
(194,-8,cs)
);
}
);
width = 452;
}
);
note = question;
},
{
color = 1;
glyphname = questiondown.ss03;
kernLeft = questiondown;
kernRight = questiondown;
lastChange = "2022-11-03 19:36:33 +0000";
layers = (
{
layerId = "F91D9E91-C1BC-4259-B0D8-112C0CBA2B8E";
shapes = (
{
closed = 1;
nodes = (
(265,-209,o),
(352,-142,o),
(368,-35,c),
(350,-35,l),
(335,-130,o),
(258,-191,o),
(153,-191,cs),
(50,-191,o),
(-6,-146,o),
(-6,-66,cs),
(-6,-57,o),
(-4,-44,o),
(-4,-40,cs),
(16,110,o),
(199,84,o),
(218,223,cs),
(230,310,l),
(212,310,l),
(200,224,ls),
(182,98,o),
(2,138,o),
(-22,-37,cs),
(-23,-44,o),
(-24,-59,o),
(-24,-67,cs),
(-24,-158,o),
(40,-209,o),
(153,-209,cs)
);
},
{
closed = 1;
nodes = (
(255,449,o),
(268,462,o),
(268,477,cs),
(268,489,o),
(259,498,o),
(246,498,cs),
(232,498,o),
(220,485,o),
(220,471,cs),
(220,458,o),
(229,449,o),
(241,449,cs)
);
}
);
width = 419;
},
{
layerId = "957254E3-B7AD-4837-9092-D4428001DE8E";
shapes = (
{
closed = 1;
nodes = (
(314,-215,o),
(418,-136,o),
(439,12,c),
(307,20,l),
(298,-50,o),
(256,-90,o),
(182,-90,cs),
(136,-90,o),
(109,-76,o),
(109,-44,cs),
(109,-41,o),
(109,-40,o),
(110,-33,cs),
(124,64,o),
(282,65,o),
(308,246,cs),
(312,276,l),
(185,276,l),
(184,265,ls),
(167,144,o),
(5,152,o),
(-19,-13,cs),
(-21,-26,o),
(-22,-38,o),
(-22,-49,cs),
(-22,-168,o),
(70,-215,o),
(177,-215,cs)
);
},
{
closed = 1;
nodes = (
(309,333,o),
(350,373,o),
(350,422,cs),
(350,469,o),
(316,504,o),
(269,504,cs),
(220,504,o),
(180,463,o),
(180,414,cs),
(180,367,o),
(213,333,o),
(261,333,cs)
);
}
);
width = 485;
},
{
layerId = m003;
shapes = (
{
closed = 1;
nodes = (
(289,-212,o),
(385,-139,o),
(404,-12,c),
(329,-8,l),
(317,-90,o),
(258,-141,o),
(167,-141,cs),
(92,-141,o),
(51,-111,o),
(51,-54,cs),
(51,-47,o),
(51,-43,o),
(52,-36,cs),
(70,92,o),
(240,75,o),
(263,234,cs),
(271,294,l),
(199,294,l),
(192,244,ls),
(174,121,o),
(5,151,o),
(-20,-26,cs),
(-22,-40,o),
(-22,-48,o),
(-22,-59,cs),
(-22,-163,o),
(56,-212,o),
(165,-212,cs)
);
},
{
closed = 1;
nodes = (
(282,392,o),
(309,417,o),
(309,451,cs),
(309,479,o),
(286,501,o),
(258,501,cs),
(228,501,o),
(200,475,o),
(200,444,cs),
(200,414,o),
(222,392,o),
(252,392,cs)
);
}
);
width = 452;
}
);
note = questiondown;
},
{
color = 1;
glyphname = bullet.ss03;
kernLeft = bullet;
kernRight = bullet;
lastChange = "2022-11-03 19:36:33 +0000";
layers = (
{
layerId = "F91D9E91-C1BC-4259-B0D8-112C0CBA2B8E";
shapes = (
{
closed = 1;
nodes = (
(210,120,o),
(274,183,o),
(274,251,cs),
(274,311,o),
(230,355,o),
(170,355,cs),
(102,355,o),
(37,293,o),
(37,223,cs),
(37,164,o),
(81,120,o),
(140,120,cs)
);
}
);
width = 313;
},
{
layerId = "957254E3-B7AD-4837-9092-D4428001DE8E";
shapes = (
{
closed = 1;
nodes = (
(213,120,o),
(271,181,o),
(271,246,cs),
(271,308,o),
(225,355,o),
(163,355,cs),
(96,355,o),
(38,294,o),
(38,228,cs),
(38,167,o),
(83,120,o),
(146,120,cs)
);
}
);
width = 312;
},
{
layerId = m003;
shapes = (
{
closed = 1;
nodes = (
(212,120,o),
(273,181,o),
(273,248,cs),
(273,309,o),
(228,355,o),
(167,355,cs),
(100,355,o),
(37,295,o),
(37,226,cs),
(37,166,o),
(82,120,o),
(143,120,cs)
);
}
);
width = 313;
}
);
note = bullet;
},
{
color = 1;
glyphname = twodotenleader.ss03;
kernLeft = period;
kernRight = comma;
lastChange = "2022-11-03 19:36:33 +0000";
layers = (
{
layerId = "F91D9E91-C1BC-4259-B0D8-112C0CBA2B8E";
shapes = (
{
closed = 1;
nodes = (
(298,-5,o),
(310,8,o),
(310,22,cs),
(310,34,o),
(301,44,o),
(288,44,cs),
(274,44,o),
(262,31,o),
(262,16,cs),
(262,4,o),
(271,-5,o),
(283,-5,cs)
);
},
{
closed = 1;
nodes = (
(109,-5,o),
(121,8,o),
(121,22,cs),
(121,35,o),
(112,44,o),
(100,44,cs),
(86,44,o),
(73,31,o),
(73,16,cs),
(73,4,o),
(82,-5,o),
(95,-5,cs)
);
}
);
width = 446;
},
{
layerId = "957254E3-B7AD-4837-9092-D4428001DE8E";
shapes = (
{
closed = 1;
nodes = (
(375,-11,o),
(415,31,o),
(415,81,cs),
(415,126,o),
(381,160,o),
(334,160,cs),
(284,160,o),
(246,119,o),
(246,69,cs),
(246,23,o),
(279,-11,o),
(326,-11,cs)
);
},
{
closed = 1;
nodes = (
(178,-11,o),
(217,31,o),
(217,81,cs),
(217,126,o),
(184,160,o),
(136,160,cs),
(87,160,o),
(48,119,o),
(48,69,cs),
(48,23,o),
(82,-11,o),
(128,-11,cs)
);
}
);
width = 510;
},
{
layerId = m003;
shapes = (
{
closed = 1;
nodes = (
(352,-8,o),
(379,18,o),
(379,49,cs),
(379,79,o),
(358,101,o),
(328,101,cs),
(297,101,o),
(271,75,o),
(271,42,cs),
(271,14,o),
(292,-8,o),
(322,-8,cs)
);
},
{
closed = 1;
nodes = (
(159,-8,o),
(186,18,o),
(186,50,cs),
(186,79,o),
(165,101,o),
(135,101,cs),
(105,101,o),
(78,75,o),
(78,44,cs),
(78,15,o),
(99,-8,o),
(129,-8,cs)
);
}
);
width = 512;
}
);
metricLeft = period.ss03;
metricRight = period.ss03;
note = twodotenleader;
},
{
color = 1;
glyphname = hyphen;
kernLeft = hyphen;
kernRight = hyphen;
lastChange = "2021-11-14 10:14:53 +0000";
layers = (
{
layerId = "F91D9E91-C1BC-4259-B0D8-112C0CBA2B8E";
shapes = (
{
closed = 1;
nodes = (
(263,308,l),
(266,325,l),
(18,325,l),
(15,308,l)
);
}
);
width = 263;
},
{
layerId = "957254E3-B7AD-4837-9092-D4428001DE8E";
shapes = (
{
closed = 1;
nodes = (
(343,234,l),
(358,346,l),
(57,346,l),
(42,234,l)
);
}
);
width = 388;
},
{
layerId = m003;
shapes = (
{
closed = 1;
nodes = (
(285,272,l),
(293,335,l),
(19,335,l),
(10,272,l)
);
}
);
width = 289;
}
);
note = hyphen;
unicode = 45;
},
{
color = 1;
glyphname = softhyphen;
lastChange = "2021-11-14 10:14:53 +0000";
layers = (
{
layerId = "F91D9E91-C1BC-4259-B0D8-112C0CBA2B8E";
shapes = (
{
closed = 1;
nodes = (
(327,308,l),
(330,325,l),
(11,325,l),
(8,308,l)
);
}
);
width = 319;
},
{
layerId = "957254E3-B7AD-4837-9092-D4428001DE8E";
shapes = (
{
closed = 1;
nodes = (
(368,234,l),
(383,346,l),
(13,346,l),
(-2,234,l)
);
}
);
width = 370;
},
{
layerId = m003;
shapes = (
{
closed = 1;
nodes = (
(347,272,l),
(356,335,l),
(12,335,l),
(3,272,l)
);
}
);
width = 344;
}
);
note = uni00AD;
unicode = 173;
},
{
color = 1;
glyphname = endash;
kernLeft = hyphen;
kernRight = hyphen;
lastChange = "2021-11-14 10:14:54 +0000";
layers = (
{
layerId = "F91D9E91-C1BC-4259-B0D8-112C0CBA2B8E";
shapes = (
{
closed = 1;
nodes = (
(348,308,l),
(351,325,l),
(12,325,l),
(9,308,l)
);
}
);
width = 340;
},
{
layerId = "957254E3-B7AD-4837-9092-D4428001DE8E";
shapes = (
{
closed = 1;
nodes = (
(388,234,l),
(404,346,l),
(14,346,l),
(-2,234,l)
);
}
);
width = 390;
},
{
layerId = m003;
shapes = (
{
closed = 1;
nodes = (
(368,272,l),
(376,335,l),
(12,335,l),
(4,272,l)
);
}
);
width = 364;
}
);
metricLeft = emdash;
metricRight = emdash;
note = endash;
unicode = 8211;
},
{
color = 1;
glyphname = emdash;
kernLeft = hyphen;
kernRight = hyphen;
lastChange = "2021-11-14 10:14:54 +0000";
layers = (
{
layerId = "F91D9E91-C1BC-4259-B0D8-112C0CBA2B8E";
shapes = (
{
closed = 1;
nodes = (
(1019,308,l),
(1022,325,l),
(12,325,l),
(9,308,l)
);
}
);
width = 1011;
},
{
layerId = "957254E3-B7AD-4837-9092-D4428001DE8E";
shapes = (
{
closed = 1;
nodes = (
(1008,234,l),
(1024,346,l),
(14,346,l),
(-2,234,l)
);
}
);
width = 1010;
},
{
layerId = m003;
shapes = (
{
closed = 1;
nodes = (
(1014,272,l),
(1022,335,l),
(12,335,l),
(4,272,l)
);
}
);
width = 1010;
}
);
metricLeft = space;
metricRight = space;
note = emdash;
unicode = 8212;
},
{
color = 1;
glyphname = horizontalbar;
lastChange = "2021-11-14 10:14:53 +0000";
layers = (
{
layerId = "F91D9E91-C1BC-4259-B0D8-112C0CBA2B8E";
shapes = (
{
closed = 1;
nodes = (
(631,308,l),
(634,325,l),
(52,325,l),
(49,308,l)
);
}
);
width = 664;
},
{
layerId = "957254E3-B7AD-4837-9092-D4428001DE8E";
shapes = (
{
closed = 1;
nodes = (
(675,234,l),
(690,346,l),
(57,346,l),
(42,234,l)
);
}
);
width = 720;
},
{
layerId = m003;
shapes = (
{
closed = 1;
nodes = (
(651,272,l),
(660,335,l),
(53,335,l),
(44,272,l)
);
}
);
width = 689;
}
);
note = uni2015;
unicode = 8213;
},
{
color = 1;
glyphname = underscore;
kernLeft = underscore;
kernRight = underscore;
lastChange = "2021-11-14 10:14:53 +0000";
layers = (
{
layerId = "F91D9E91-C1BC-4259-B0D8-112C0CBA2B8E";
shapes = (
{
closed = 1;
nodes = (
(343,-17,l),
(345,0,l),
(-35,0,l),
(-37,-17,l)
);
}
);
width = 380;
},
{
layerId = "957254E3-B7AD-4837-9092-D4428001DE8E";
shapes = (
{
closed = 1;
nodes = (
(440,-114,l),
(456,0,l),
(25,0,l),
(9,-114,l)
);
}
);
width = 551;
},
{
layerId = m003;
shapes = (
{
closed = 1;
nodes = (
(361,-65,l),
(370,0,l),
(-35,0,l),
(-44,-65,l)
);
}
);
width = 405;
}
);
note = underscore;
unicode = 95;
},
{
color = 1;
glyphname = parenleft;
kernLeft = parenleft;
kernRight = parenleft;
lastChange = "2021-11-14 10:14:53 +0000";
layers = (
{
layerId = "F91D9E91-C1BC-4259-B0D8-112C0CBA2B8E";
shapes = (
{
closed = 1;
nodes = (
(140,-204,l),
(98,-126,o),
(80,3,o),
(80,118,cs),
(80,290,o),
(137,530,o),
(268,697,c),
(246,697,l),
(121,533,o),
(62,302,o),
(62,117,cs),
(62,-7,o),
(82,-130,o),
(119,-204,c)
);
}
);
width = 259;
},
{
layerId = "957254E3-B7AD-4837-9092-D4428001DE8E";
shapes = (
{
closed = 1;
nodes = (
(242,-204,l),
(184,-119,o),
(157,-5,o),
(157,116,cs),
(157,292,o),
(218,528,o),
(373,697,c),
(234,697,l),
(95,545,o),
(40,289,o),
(40,113,cs),
(40,-9,o),
(64,-122,o),
(113,-204,c)
);
}
);
width = 332;
},
{
layerId = m003;
shapes = (
{
closed = 1;
nodes = (
(201,-204,l),
(151,-123,o),
(128,0,o),
(128,117,cs),
(128,289,o),
(189,531,o),
(330,697,c),
(251,697,l),
(118,540,o),
(61,291,o),
(61,117,cs),
(61,-1,o),
(81,-122,o),
(126,-204,c)
);
}
);
width = 320;
}
);
note = parenleft;
unicode = 40;
},
{
color = 1;
glyphname = parenright;
kernLeft = parenright;
lastChange = "2021-11-14 10:14:53 +0000";
layers = (
{
layerId = "F91D9E91-C1BC-4259-B0D8-112C0CBA2B8E";
shapes = (
{
closed = 1;
nodes = (
(10,-205,l),
(135,-46,o),
(198,170,o),
(198,373,cs),
(198,489,o),
(181,611,o),
(141,697,c),
(123,697,l),
(164,610,o),
(181,486,o),
(181,370,cs),
(181,152,o),
(111,-54,o),
(-9,-205,c)
);
}
);
width = 258;
},
{
layerId = "957254E3-B7AD-4837-9092-D4428001DE8E";
shapes = (
{
closed = 1;
nodes = (
(93,-204,l),
(229,-56,o),
(289,176,o),
(289,378,cs),
(289,507,o),
(265,623,o),
(221,697,c),
(95,697,l),
(145,622,o),
(178,501,o),
(178,364,cs),
(178,181,o),
(119,-31,o),
(-42,-204,c)
);
}
);
width = 332;
},
{
layerId = m003;
shapes = (
{
closed = 1;
nodes = (
(66,-204,l),
(203,-44,o),
(259,167,o),
(259,362,cs),
(259,484,o),
(237,619,o),
(195,697,c),
(123,697,l),
(173,612,o),
(194,470,o),
(194,351,cs),
(194,146,o),
(132,-38,o),
(-12,-204,c)
);
}
);
width = 320;
}
);
note = parenright;
unicode = 41;
},
